<svg width="20" height="14" viewBox="0 0 20 14" fill="none" xmlns="http://www.w3.org/2000/svg">
<path d="M8.2 5.8C8.42667 5.94667 8.6 6.14 8.72 6.38C8.84 6.60667 8.9 6.85333 8.9 7.12C8.9 7.4 8.84 7.67333 8.72 7.94C8.61333 8.19333 8.46667 8.41333 8.28 8.6C7.69333 8.54667 6.80667 8.50667 5.62 8.48C5.56667 9.21333 5.54 10.02 5.54 10.9C5.36667 11.06 5.16 11.1867 4.92 11.28C4.68 11.36 4.44 11.4 4.2 11.4C3.88 11.4 3.58667 11.3333 3.32 11.2C3.06667 11.0533 2.87333 10.8467 2.74 10.58C2.88667 9.99333 3.02667 9.31333 3.16 8.54L2.28 8.64C1.77333 8.69333 1.38667 8.74 1.12 8.78C0.88 8.64667 0.686667 8.46 0.54 8.22C0.406667 7.96667 0.34 7.69333 0.34 7.4C0.34 6.85333 0.56 6.38667 1 6C1.68 6.05333 2.5 6.09333 3.46 6.12L3.58 3.44C3.95333 3.08 4.38 2.9 4.86 2.9C5.19333 2.9 5.49333 2.98667 5.76 3.16C6.02667 3.32 6.22 3.54667 6.34 3.84C6.20667 4.72 6.06 5.45333 5.9 6.04C6.78 6 7.54667 5.92 8.2 5.8ZM11.9044 14C11.531 14 11.1377 13.8267 10.7244 13.48C10.3244 13.1333 9.98438 12.72 9.70438 12.24C9.43771 11.7467 9.30438 11.32 9.30438 10.96C9.30438 10.6667 9.50438 10.34 9.90438 9.98C10.3177 9.60667 10.9577 9.11333 11.8244 8.5C12.7444 7.83333 13.4844 7.26667 14.0444 6.8C14.6177 6.33333 15.151 5.8 15.6444 5.2C16.151 4.6 16.491 3.97333 16.6644 3.32C15.931 3.38667 15.231 3.57333 14.5644 3.88C13.911 4.18667 13.251 4.6 12.5844 5.12C12.0644 5.01333 11.651 4.79333 11.3444 4.46C11.051 4.12667 10.9044 3.76 10.9044 3.36C10.9044 2.88 11.151 2.43333 11.6444 2.02C12.151 1.59333 12.8044 1.26 13.6044 1.02C14.4177 0.766666 15.2577 0.639999 16.1244 0.639999C16.6044 0.639999 17.091 0.799999 17.5844 1.12C18.091 1.44 18.5044 1.82667 18.8244 2.28C19.1577 2.73333 19.3244 3.14 19.3244 3.5C19.3244 4.78 18.6377 6.10667 17.2644 7.48C15.9044 8.85333 14.2244 10.1333 12.2244 11.32L12.3844 11.58C12.9844 11.46 13.8244 11.2667 14.9044 11C16.611 10.5867 17.6377 10.38 17.9844 10.38C18.371 10.38 18.6644 10.52 18.8644 10.8C19.0644 11.08 19.1644 11.4333 19.1644 11.86C19.1644 12.3 19.071 12.6867 18.8844 13.02L18.3044 13.12C16.8244 13.3867 15.5577 13.6 14.5044 13.76C13.4644 13.92 12.5977 14 11.9044 14Z" fill="black"/>
</svg>
