<svg width="40" height="38" viewBox="0 0 40 38" fill="none" xmlns="http://www.w3.org/2000/svg">
<path d="M31.6667 10.6666H30.3L27.4667 2.86663C27.2317 2.22373 26.8054 1.66824 26.2452 1.27492C25.685 0.88159 25.0178 0.669303 24.3333 0.666626H21.6667C20.75 0.666626 20 1.41663 20 2.33329C20 3.24996 20.75 3.99996 21.6667 3.99996H24.3333L26.7667 10.6666H18.75L18.15 8.99996H18.3C19.2167 8.99996 19.9667 8.24996 19.9667 7.33329C19.9667 6.41663 19.2167 5.66663 18.3 5.66663H13.3333C12.4167 5.66663 11.6667 6.41663 11.6667 7.33329C11.6667 8.24996 12.4167 8.99996 13.3333 8.99996H14.5833L17.6167 17.3333H16.5C15.7667 13.6166 12.65 10.8666 8.75 10.6833C4.08333 10.45 0 14.3333 0 19C0 23.6666 3.66667 27.3333 8.33333 27.3333C12.4333 27.3333 15.75 24.5166 16.5 20.6666H23.5C24.2333 24.3833 27.35 27.1333 31.25 27.3166C35.9167 27.5333 40 23.6666 40 18.9833C40 14.3333 36.3333 10.6666 31.6667 10.6666ZM10 20.6666H13.0333C12.3333 22.7166 10.3667 24.1333 8 23.9833C5.51667 23.8333 3.45 21.7333 3.33333 19.2333C3.21667 16.3166 5.45 14 8.33333 14C10.55 14 12.3667 15.3833 13.0333 17.3333H10C9.08333 17.3333 8.33333 18.0833 8.33333 19C8.33333 19.9166 9.08333 20.6666 10 20.6666ZM23.5 17.3333H21.1667L19.95 14H25C24.2667 14.9666 23.7333 16.0833 23.5 17.3333ZM31.4667 24C28.9 23.9 26.7333 21.7166 26.6667 19.1333C26.6333 17.5333 27.3167 16.1333 28.4167 15.2L29.45 18.0333C29.7667 18.9 30.7167 19.35 31.5833 19.0333C32.45 18.7166 32.9 17.7666 32.5833 16.9L31.5333 14.0166L31.55 14C32.2182 13.9774 32.884 14.0904 33.5073 14.3322C34.1305 14.574 34.6984 14.9396 35.1765 15.4068C35.6547 15.8741 36.0332 16.4333 36.2893 17.0509C36.5454 17.6684 36.6738 18.3315 36.6667 19C36.6667 21.8666 34.3667 24.1 31.4667 24ZM18.3333 32.3333H11.6667L21.6667 37.3333V34H28.3333L18.3333 29V32.3333Z" fill="black"/>
</svg>
