<svg width="30" height="34" viewBox="0 0 30 34" fill="none" xmlns="http://www.w3.org/2000/svg">
<path d="M12.6599 30.9114L18.7642 29.2692C19.2158 30.9478 18.2119 32.6908 16.5332 33.1424C14.8545 33.594 13.1115 32.5901 12.6599 30.9114ZM28.6257 23.3431L29.0362 24.8692L1.56679 32.2592L1.15623 30.7331L3.38728 26.8599L0.923932 17.7034C-0.348796 12.9725 1.59486 8.03102 5.80359 5.42587L5.68042 4.96805C5.22881 3.28936 6.23278 1.54639 7.91147 1.09478C9.59015 0.643164 11.3331 1.64713 11.7847 3.32582L11.9079 3.78364C16.8556 3.92544 21.0163 7.22474 22.289 11.9556L24.7524 21.1121L28.6257 23.3431ZM19.2369 12.7767C18.0873 8.50368 13.8267 6.04953 9.5537 7.19909C5.28068 8.34865 2.82653 12.6093 3.97609 16.8823L6.84999 27.5648L22.1108 23.4592L19.2369 12.7767Z" fill="black"/>
</svg>
