<svg width="16" height="16" viewBox="0 0 16 16" fill="none" xmlns="http://www.w3.org/2000/svg">
<mask id="mask0_630_111" style="mask-type:luminance" maskUnits="userSpaceOnUse" x="0" y="0" width="16" height="16">
<path d="M6.97499 14.725C10.3993 14.725 13.175 11.9493 13.175 8.52495C13.175 5.10061 10.3993 2.32495 6.97499 2.32495C3.55066 2.32495 0.774994 5.10061 0.774994 8.52495C0.774994 11.9493 3.55066 14.725 6.97499 14.725Z" stroke="white" stroke-width="1.55" stroke-linecap="round" stroke-linejoin="round"/>
<path d="M6.97499 10.0749C7.38607 10.0749 7.78032 9.9116 8.071 9.62092C8.36168 9.33024 8.52499 8.93599 8.52499 8.5249C8.52499 8.11382 8.36168 7.71957 8.071 7.42889C7.78032 7.13821 7.38607 6.9749 6.97499 6.9749C6.5639 6.9749 6.16965 7.13821 5.87897 7.42889C5.58829 7.71957 5.42499 8.11382 5.42499 8.5249C5.42499 8.93599 5.58829 9.33024 5.87897 9.62092C6.16965 9.9116 6.5639 10.0749 6.97499 10.0749ZM6.97499 0.774902C7.99273 0.774902 9.00051 0.975362 9.94078 1.36484C10.8811 1.75431 11.7354 2.32517 12.4551 3.04482C13.1747 3.76448 13.7456 4.61883 14.1351 5.55911C14.5245 6.49938 14.725 7.50716 14.725 8.5249H11.6273C11.6273 7.29103 11.1372 6.10769 10.2647 5.23521C9.3922 4.36273 8.20886 3.87258 6.97499 3.87258V0.774902Z" fill="#555555" stroke="white" stroke-width="1.55" stroke-linecap="round" stroke-linejoin="round"/>
</mask>
<g mask="url(#mask0_630_111)">
<path d="M-2.32501 -0.775146H16.275V17.8249H-2.32501V-0.775146Z" fill="black"/>
</g>
</svg>
