<svg width="13" height="13" viewBox="0 0 13 13" fill="none" xmlns="http://www.w3.org/2000/svg">
<path fill-rule="evenodd" clip-rule="evenodd" d="M5.85939 0.876215C5.89597 1.03783 5.86689 1.20735 5.77852 1.34753C5.69015 1.4877 5.54973 1.58704 5.38814 1.62371C5.2655 1.65162 5.14395 1.68414 5.02376 1.72121C4.94534 1.74543 4.86291 1.75396 4.78119 1.74631C4.69947 1.73867 4.62006 1.71501 4.54748 1.67668C4.47491 1.63834 4.4106 1.58609 4.35822 1.5229C4.30583 1.45971 4.26641 1.38683 4.2422 1.3084C4.21799 1.22998 4.20946 1.14755 4.2171 1.06583C4.22474 0.984114 4.24841 0.904699 4.28674 0.832125C4.32507 0.75955 4.37733 0.695236 4.44051 0.642855C4.5037 0.590474 4.57659 0.551052 4.65501 0.52684C4.80501 0.480173 4.9571 0.439548 5.11126 0.404964C5.19133 0.386756 5.2742 0.384504 5.35514 0.398335C5.43607 0.412167 5.51349 0.441811 5.58297 0.485575C5.65245 0.529339 5.71262 0.586364 5.76005 0.653392C5.80748 0.720419 5.84123 0.796136 5.85939 0.876215ZM7.14064 0.876215C7.17731 0.714621 7.27665 0.574205 7.41683 0.485836C7.557 0.397466 7.72652 0.368378 7.88814 0.404964C10.6719 1.03621 12.7506 3.52496 12.7506 6.49996C12.7506 9.95184 9.95189 12.75 6.50064 12.75C3.52501 12.75 1.03626 10.6718 0.405013 7.88809C0.372612 7.72808 0.404107 7.56174 0.492764 7.42465C0.58142 7.28756 0.720198 7.1906 0.879419 7.15451C1.03864 7.11842 1.20566 7.14607 1.34476 7.23153C1.48386 7.317 1.584 7.4535 1.62376 7.61184C1.82265 8.48294 2.25133 9.28482 2.8652 9.93407C3.47907 10.5833 4.25571 11.0562 5.11431 11.3035C5.97291 11.5509 6.8821 11.5636 7.74729 11.3404C8.61248 11.1172 9.40205 10.6662 10.0339 10.0344C10.6657 9.40263 11.1166 8.61306 11.3398 7.74787C11.563 6.88268 11.5503 5.97349 11.303 5.11489C11.0556 4.25629 10.5827 3.47965 9.9335 2.86578C9.28425 2.2519 8.48236 1.82322 7.61126 1.62434C7.44965 1.58753 7.30928 1.48804 7.22102 1.34774C7.13276 1.20744 7.10385 1.03783 7.14064 0.876215ZM3.13376 1.94996C3.18966 2.01015 3.23314 2.08075 3.26173 2.15775C3.29032 2.23475 3.30345 2.31663 3.30037 2.39871C3.2973 2.48078 3.27807 2.56145 3.2438 2.63609C3.20953 2.71073 3.16088 2.77789 3.10064 2.83371C3.00814 2.91913 2.91918 3.00788 2.83376 3.09996C2.72023 3.2181 2.56484 3.28693 2.40105 3.29163C2.23727 3.29632 2.07819 3.23652 1.95807 3.12508C1.83795 3.01364 1.76639 2.85949 1.7588 2.69582C1.75122 2.53214 1.80821 2.37203 1.91751 2.24996C2.02376 2.13496 2.1346 2.02392 2.25001 1.91684C2.31019 1.86094 2.3808 1.81746 2.4578 1.78887C2.5348 1.76028 2.61668 1.74715 2.69875 1.75023C2.78083 1.75331 2.8615 1.77253 2.93614 1.8068C3.01078 1.84107 3.07793 1.88972 3.13376 1.94996ZM6.50001 2.74996C6.66577 2.74996 6.82474 2.81581 6.94195 2.93302C7.05916 3.05023 7.12501 3.2092 7.12501 3.37496V6.24121L8.81689 7.93309C8.93074 8.05097 8.99373 8.20884 8.99231 8.37272C8.99088 8.53659 8.92515 8.69335 8.80927 8.80923C8.69339 8.92511 8.53664 8.99084 8.37276 8.99226C8.20889 8.99368 8.05101 8.93069 7.93314 8.81684L6.05814 6.94184C5.94092 6.82466 5.87505 6.66571 5.87501 6.49996V3.37496C5.87501 3.2092 5.94086 3.05023 6.05807 2.93302C6.17528 2.81581 6.33425 2.74996 6.50001 2.74996ZM1.30814 4.24246C1.46651 4.2913 1.599 4.40104 1.67647 4.54755C1.75394 4.69405 1.77005 4.86533 1.72126 5.02371C1.68419 5.1439 1.65167 5.26545 1.62376 5.38809C1.584 5.54643 1.48386 5.68293 1.34476 5.7684C1.20566 5.85386 1.03864 5.88151 0.879419 5.84542C0.720198 5.80933 0.58142 5.71237 0.492764 5.57528C0.404107 5.43819 0.372612 5.27185 0.405013 5.11184C0.440013 4.95767 0.480638 4.80559 0.526888 4.65559C0.575725 4.49722 0.685463 4.36473 0.831969 4.28726C0.978476 4.20979 1.14975 4.19367 1.30814 4.24246Z" fill="black" fill-opacity="0.5"/>
</svg>
