<svg width="207" height="150" viewBox="0 0 207 150" fill="none" xmlns="http://www.w3.org/2000/svg">
<path opacity="0.5" d="M0.8 29V10.088H9.952V13.64H6.112V17.32H9.632V21.32H6.112V25.544H9.952V29H0.8ZM3.36 27.24L8.64 27.208V27.144L3.52 27.112L3.648 19.464L7.84 19.432V19.368L3.648 19.336L3.52 11.976L8.64 11.944V11.88L3.36 11.848L3.232 19.4L3.36 27.24ZM13.508 29L10.756 10.088H16.036L17.22 23.976L18.564 10.088H23.652L20.836 29H13.508ZM15.684 27.496L17.252 27.432L18.852 27.496L20.196 18.952L20.932 11.496H20.804L19.78 18.952L18.724 27.368L17.252 27.4L15.812 27.368L14.692 18.984L13.54 11.496H13.412L14.276 19.016L15.684 27.496ZM27.9383 29.352C27.2556 29.352 26.6796 29.128 26.2103 28.68C25.7409 28.2107 25.5063 27.656 25.5063 27.016C25.5063 26.3547 25.7409 25.8 26.2103 25.352C26.6796 24.8827 27.2556 24.648 27.9383 24.648C28.6209 24.648 29.2076 24.8827 29.6983 25.352C30.1889 25.8 30.4343 26.3547 30.4343 27.016C30.4343 27.656 30.1889 28.2107 29.6983 28.68C29.2076 29.128 28.6209 29.352 27.9383 29.352ZM27.9383 28.2C28.7276 28.2 29.1223 27.8053 29.1223 27.016C29.1223 26.2267 28.7276 25.832 27.9383 25.832C27.1489 25.832 26.7543 26.2267 26.7543 27.016C26.7543 27.8053 27.1489 28.2 27.9383 28.2ZM27.9383 28.136C27.6396 28.136 27.3943 28.0293 27.2023 27.816C27.0103 27.5813 26.9143 27.3147 26.9143 27.016C26.9143 26.696 27.0103 26.44 27.2023 26.248C27.3943 26.0347 27.6396 25.928 27.9383 25.928C28.2369 25.928 28.4716 26.0347 28.6423 26.248C28.8343 26.44 28.9303 26.696 28.9303 27.016C28.9303 27.3147 28.8343 27.5813 28.6423 27.816C28.4716 28.0293 28.2369 28.136 27.9383 28.136ZM36.7993 29.32C35.5619 29.32 34.5593 28.9467 33.7913 28.2C33.0446 27.4533 32.6713 26.1093 32.6713 24.168V14.184C32.6713 12.6053 33.1833 11.496 34.2073 10.856C35.2313 10.1947 36.5966 9.864 38.3033 9.864C40.0099 9.864 41.3966 10.1947 42.4633 10.856C43.5513 11.496 44.0953 12.6053 44.0953 14.184V17.064H39.1673V13.864C39.1673 13.5013 39.1033 13.256 38.9753 13.128C38.8473 12.9787 38.6766 12.904 38.4633 12.904C38.2499 12.904 38.0793 12.9787 37.9513 13.128C37.8233 13.256 37.7593 13.5013 37.7593 13.864V25.48C37.7593 25.8427 37.8233 26.0987 37.9513 26.248C38.0793 26.376 38.2499 26.44 38.4633 26.44C38.6766 26.44 38.8473 26.376 38.9753 26.248C39.1033 26.0987 39.1673 25.8427 39.1673 25.48V21.896H38.3673V19.048H44.0953V29H40.2552L39.8073 27.016C39.6366 27.528 39.3059 28.04 38.8153 28.552C38.3459 29.064 37.6739 29.32 36.7993 29.32ZM37.4713 27.56V27.496C36.7673 27.56 36.2659 27.3147 35.9673 26.76C35.6899 26.184 35.5619 25.4587 35.5833 24.584L35.6473 19.624L35.5513 14.088C35.5299 13.2773 35.7326 12.6587 36.1593 12.232C36.6073 11.784 37.3859 11.56 38.4953 11.56C39.5833 11.56 40.3193 11.7733 40.7033 12.2C41.0873 12.6053 41.2899 13.16 41.3113 13.864L41.3433 15.912H41.4073L41.4392 13.864C41.4606 13.1173 41.2579 12.5307 40.8313 12.104C40.4259 11.656 39.6473 11.432 38.4953 11.432C37.3433 11.432 36.5539 11.6667 36.1273 12.136C35.7006 12.584 35.4659 13.2347 35.4233 14.088L35.2633 19.624L35.4553 24.68C35.4979 25.5333 35.6473 26.248 35.9033 26.824C36.1806 27.4 36.7033 27.6453 37.4713 27.56ZM41.8233 27.496H41.9513L42.0473 20.424L39.6793 20.456V20.52L40.6073 20.552H41.7593L41.8233 27.496ZM51.1203 29.384C49.8403 29.384 48.7629 29.224 47.8883 28.904C47.0349 28.584 46.3843 27.9973 45.9363 27.144C45.5096 26.2693 45.2963 25.0427 45.2963 23.464V14.12C45.2963 12.5413 45.8296 11.432 46.8963 10.792C47.9629 10.1307 49.3709 9.8 51.1203 9.8C52.8696 9.8 54.2349 10.1307 55.2163 10.792C56.2189 11.432 56.7203 12.5413 56.7203 14.12V23.432C56.7203 25.032 56.5176 26.2587 56.1123 27.112C55.7283 27.9653 55.1203 28.5627 54.2883 28.904C53.4563 29.224 52.4003 29.384 51.1203 29.384ZM49.9683 27.56H50.8323C50.9603 27.56 51.0563 27.5493 51.1203 27.528C51.1629 27.5493 51.2376 27.56 51.3443 27.56H52.1123C53.4776 27.56 54.1816 26.824 54.2243 25.352L54.3523 19.4L54.2243 13.224C54.2029 12.5627 53.9789 12.0933 53.5523 11.816C53.1469 11.5173 52.6029 11.3893 51.9203 11.432L51.1203 11.464L50.1603 11.432C49.4776 11.4107 48.9229 11.5387 48.4963 11.816C48.0909 12.0933 47.8776 12.5627 47.8563 13.224L47.7283 19.4L47.8563 25.352C47.8989 26.824 48.6029 27.56 49.9683 27.56ZM50.8323 27.464L50.4483 27.432H49.9683C48.6243 27.3893 47.9629 26.696 47.9843 25.352L48.1443 19.368L47.9843 13.224C47.9629 12.6053 48.1549 12.1787 48.5603 11.944C48.9656 11.7093 49.4989 11.5813 50.1603 11.56L51.1203 11.528L51.9203 11.56C52.5816 11.5813 53.1149 11.7093 53.5203 11.944C53.9256 12.1787 54.1176 12.6053 54.0963 13.224L53.9363 19.368L54.0963 25.352C54.1176 26.696 53.4563 27.3893 52.1123 27.432H51.6643L51.3443 27.464H50.8323ZM51.1203 26.44C51.2909 26.44 51.4189 26.3653 51.5043 26.216C51.5896 26.1093 51.6323 25.864 51.6323 25.48V13.864C51.6323 13.5013 51.5896 13.2453 51.5043 13.096C51.4189 12.968 51.2909 12.904 51.1203 12.904C50.9709 12.904 50.8429 12.968 50.7363 13.096C50.6509 13.2453 50.6083 13.5013 50.6083 13.864V25.48C50.6083 25.864 50.6509 26.1093 50.7363 26.216C50.8216 26.3653 50.9496 26.44 51.1203 26.44ZM59.775 22.984L58.911 16.936L58.655 8.84H64.095L63.839 16.84L62.975 22.984H59.775ZM61.311 21.832H61.439L61.599 15.976L61.471 9.672H61.343L61.183 15.976L61.311 21.832ZM61.535 29.256C60.7883 29.256 60.159 29.0213 59.647 28.552C59.135 28.0827 58.879 27.5067 58.879 26.824C58.879 26.1627 59.135 25.5973 59.647 25.128C60.159 24.6373 60.7883 24.392 61.535 24.392C62.2817 24.392 62.911 24.6373 63.423 25.128C63.935 25.5973 64.191 26.1627 64.191 26.824C64.191 27.5067 63.935 28.0827 63.423 28.552C62.911 29.0213 62.2817 29.256 61.535 29.256ZM61.503 28.04C62.2923 28.04 62.687 27.6453 62.687 26.856C62.687 26.0667 62.2923 25.672 61.503 25.672C60.7137 25.672 60.319 26.0667 60.319 26.856C60.319 27.6453 60.7137 28.04 61.503 28.04ZM61.503 27.976C61.2043 27.976 60.959 27.8693 60.767 27.656C60.575 27.4213 60.479 27.1547 60.479 26.856C60.479 26.536 60.575 26.28 60.767 26.088C60.959 25.8747 61.2043 25.768 61.503 25.768C61.8017 25.768 62.0363 25.8747 62.207 26.088C62.399 26.28 62.495 26.536 62.495 26.856C62.495 27.1547 62.399 27.4213 62.207 27.656C62.0363 27.8693 61.8017 27.976 61.503 27.976Z" fill="black"/>
<path d="M80.2935 31.6487H106.68C106.68 31.6487 105.368 29.9837 103.926 29.7905C103.926 29.7905 101.113 21.6884 96.4041 21.6318C92.0253 21.5752 90.2697 26.6269 90.2697 26.6269C90.2697 26.6269 88.2421 24.3658 86.304 25.3981C84.3659 26.4305 83.2712 29.3942 83.2712 29.3942C83.2712 29.3942 81.0818 30.5132 80.2935 31.6487Z" fill="#EBEBEB"/>
<path d="M199.953 44.7893H166.586C166.586 44.7893 166.586 42.7247 171.185 42.3218C171.185 42.3218 175.381 33.3072 181.787 34.5194C185.777 35.272 187.819 40.5735 187.819 40.5735C187.819 40.5735 190.834 36.4009 193.244 37.2101C195.654 38.0193 197.089 42.455 197.089 42.455C197.089 42.455 199.578 43.6238 199.953 44.7893Z" fill="#EBEBEB"/>
<path d="M170.998 19.1709H148.309C148.309 19.1709 150.45 17.2428 151.407 17.2428C152.364 17.2428 155.128 10.7724 158.678 11.0455C162.227 11.3186 164.11 16.1405 164.11 16.1405C164.11 16.1405 168.423 14.8352 170.998 19.1709Z" fill="#EBEBEB"/>
<path d="M154.93 37.6098H135.528C135.528 37.6098 136.492 36.3943 137.556 36.2445C137.556 36.2445 139.621 30.287 143.088 30.2503C146.306 30.2104 147.597 33.9134 147.597 33.9134C147.597 33.9134 149.088 32.2484 150.513 33.0143C151.938 33.7802 152.747 35.9481 152.747 35.9481C152.747 35.9481 154.348 36.774 154.93 37.6098Z" fill="#EBEBEB"/>
<path d="M83.4609 55.1987H64.0457C64.0457 55.1987 65.0096 53.9832 66.0733 53.8333C66.0733 53.8333 68.1387 47.8758 71.6052 47.8392C74.8239 47.7992 76.1148 51.5023 76.1148 51.5023C76.1148 51.5023 77.6054 49.8372 79.0305 50.5998C80.4557 51.3624 81.2647 53.5336 81.2647 53.5336C81.2647 53.5336 82.8654 54.3628 83.4609 55.1987Z" fill="#EBEBEB"/>
<path d="M111.153 53.5469H122.09V108.999H111.153V53.5469Z" fill="#DBDBDB"/>
<path d="M118.265 55.3486H120.393V57.4666H118.265V55.3486Z" fill="#EBEBEB"/>
<path d="M115.544 55.3486H117.672V57.4666H115.544V55.3486Z" fill="#EBEBEB"/>
<path d="M118.265 58.9453H120.393V61.0632H118.265V58.9453Z" fill="#EBEBEB"/>
<path d="M115.544 58.9453H117.672V61.0632H115.544V58.9453Z" fill="#EBEBEB"/>
<path d="M118.265 62.5381H120.393V64.656H118.265V62.5381Z" fill="#EBEBEB"/>
<path d="M115.544 62.5381H117.672V64.656H115.544V62.5381Z" fill="#EBEBEB"/>
<path d="M118.265 66.1348H120.393V68.2527H118.265V66.1348Z" fill="#EBEBEB"/>
<path d="M115.544 66.1348H117.672V68.2527H115.544V66.1348Z" fill="#EBEBEB"/>
<path d="M118.265 69.728H120.393V71.846H118.265V69.728Z" fill="#EBEBEB"/>
<path d="M115.544 69.728H117.672V71.846H115.544V69.728Z" fill="#EBEBEB"/>
<path d="M118.265 73.3247H120.393V75.4426H118.265V73.3247Z" fill="#EBEBEB"/>
<path d="M115.544 73.3247H117.672V75.4426H115.544V73.3247Z" fill="#EBEBEB"/>
<path d="M118.265 76.918H120.393V79.0359H118.265V76.918Z" fill="#EBEBEB"/>
<path d="M115.544 76.918H117.672V79.0359H115.544V76.918Z" fill="#EBEBEB"/>
<path d="M118.265 80.5142H120.393V82.6321H118.265V80.5142Z" fill="#EBEBEB"/>
<path d="M115.544 80.5142H117.672V82.6321H115.544V80.5142Z" fill="#EBEBEB"/>
<path d="M118.265 84.1074H120.393V86.2254H118.265V84.1074Z" fill="#EBEBEB"/>
<path d="M115.544 84.1074H117.672V86.2254H115.544V84.1074Z" fill="#EBEBEB"/>
<path d="M118.265 87.7041H120.393V89.822H118.265V87.7041Z" fill="#EBEBEB"/>
<path d="M115.544 87.7041H117.672V89.822H115.544V87.7041Z" fill="#EBEBEB"/>
<path d="M118.265 91.2974H120.393V93.4153H118.265V91.2974Z" fill="#EBEBEB"/>
<path d="M115.544 91.2974H117.672V93.4153H115.544V91.2974Z" fill="#EBEBEB"/>
<path d="M118.265 94.8936H120.393V97.0115H118.265V94.8936Z" fill="#EBEBEB"/>
<path d="M115.544 94.8936H117.672V97.0115H115.544V94.8936Z" fill="#EBEBEB"/>
<path d="M118.265 98.4873H120.393V100.605H118.265V98.4873Z" fill="#EBEBEB"/>
<path d="M115.544 98.4873H117.672V100.605H115.544V98.4873Z" fill="#EBEBEB"/>
<path d="M118.265 102.083H120.393V104.201H118.265V102.083Z" fill="#EBEBEB"/>
<path d="M114.979 104.201H112.852V102.083H114.979V104.201Z" fill="#EBEBEB"/>
<path d="M114.979 100.608H112.852V98.49H114.979V100.608Z" fill="#EBEBEB"/>
<path d="M114.979 97.0117H112.852V94.8938H114.979V97.0117Z" fill="#EBEBEB"/>
<path d="M114.979 93.418H112.852V91.3H114.979V93.418Z" fill="#EBEBEB"/>
<path d="M114.979 89.8218H112.852V87.7038H114.979V89.8218Z" fill="#EBEBEB"/>
<path d="M114.979 86.229H112.852V84.1111H114.979V86.229Z" fill="#EBEBEB"/>
<path d="M114.979 82.6289H112.852V80.511H114.979V82.6289Z" fill="#EBEBEB"/>
<path d="M114.979 79.0356H112.852V76.9177H114.979V79.0356Z" fill="#EBEBEB"/>
<path d="M114.979 75.4395H112.852V73.3215H114.979V75.4395Z" fill="#EBEBEB"/>
<path d="M114.979 71.8457H112.852V69.7278H114.979V71.8457Z" fill="#EBEBEB"/>
<path d="M114.979 68.25H112.852V66.1321H114.979V68.25Z" fill="#EBEBEB"/>
<path d="M114.979 64.6567H112.852V62.5388H114.979V64.6567Z" fill="#EBEBEB"/>
<path d="M114.979 61.0596H112.852V58.9416H114.979V61.0596Z" fill="#EBEBEB"/>
<path d="M114.979 57.4668H112.852V55.3489H114.979V57.4668Z" fill="#EBEBEB"/>
<path d="M115.544 102.083H117.672V104.201H115.544V102.083Z" fill="#EBEBEB"/>
<path d="M102.533 53.5469H111.156V108.999H102.533V53.5469Z" fill="#A6A6A6"/>
<path d="M105.176 104.201H103.42V102.083H105.176V104.201Z" fill="#C7C7C7"/>
<path d="M107.426 104.201H105.67V102.083H107.426V104.201Z" fill="#C7C7C7"/>
<path d="M105.176 100.608H103.42V98.49H105.176V100.608Z" fill="#C7C7C7"/>
<path d="M107.426 100.608H105.67V98.49H107.426V100.608Z" fill="#C7C7C7"/>
<path d="M105.176 97.0117H103.42V94.8938H105.176V97.0117Z" fill="#C7C7C7"/>
<path d="M107.426 97.0117H105.67V94.8938H107.426V97.0117Z" fill="#C7C7C7"/>
<path d="M105.176 93.418H103.42V91.3H105.176V93.418Z" fill="#C7C7C7"/>
<path d="M107.426 93.418H105.67V91.3H107.426V93.418Z" fill="#C7C7C7"/>
<path d="M105.176 89.8218H103.42V87.7038H105.176V89.8218Z" fill="#C7C7C7"/>
<path d="M107.426 89.8218H105.67V87.7038H107.426V89.8218Z" fill="#C7C7C7"/>
<path d="M105.176 86.229H103.42V84.1111H105.176V86.229Z" fill="#C7C7C7"/>
<path d="M107.426 86.229H105.67V84.1111H107.426V86.229Z" fill="#C7C7C7"/>
<path d="M105.176 82.6289H103.42V80.511H105.176V82.6289Z" fill="#C7C7C7"/>
<path d="M107.426 82.6289H105.67V80.511H107.426V82.6289Z" fill="#C7C7C7"/>
<path d="M105.176 79.0356H103.42V76.9177H105.176V79.0356Z" fill="#C7C7C7"/>
<path d="M107.426 79.0356H105.67V76.9177H107.426V79.0356Z" fill="#C7C7C7"/>
<path d="M105.176 75.4395H103.42V73.3215H105.176V75.4395Z" fill="#C7C7C7"/>
<path d="M107.426 75.4395H105.67V73.3215H107.426V75.4395Z" fill="#C7C7C7"/>
<path d="M105.176 71.8457H103.42V69.7278H105.176V71.8457Z" fill="#C7C7C7"/>
<path d="M107.426 71.8457H105.67V69.7278H107.426V71.8457Z" fill="#C7C7C7"/>
<path d="M105.176 68.25H103.42V66.1321H105.176V68.25Z" fill="#C7C7C7"/>
<path d="M107.426 68.25H105.67V66.1321H107.426V68.25Z" fill="#C7C7C7"/>
<path d="M105.176 64.6567H103.42V62.5388H105.176V64.6567Z" fill="#C7C7C7"/>
<path d="M107.426 64.6567H105.67V62.5388H107.426V64.6567Z" fill="#C7C7C7"/>
<path d="M105.176 61.0596H103.42V58.9416H105.176V61.0596Z" fill="#C7C7C7"/>
<path d="M107.426 61.0596H105.67V58.9416H107.426V61.0596Z" fill="#C7C7C7"/>
<path d="M105.176 57.4668H103.42V55.3489H105.176V57.4668Z" fill="#C7C7C7"/>
<path d="M107.893 55.3486H109.648V57.4666H107.893V55.3486Z" fill="#C7C7C7"/>
<path d="M107.893 58.9453H109.648V61.0632H107.893V58.9453Z" fill="#C7C7C7"/>
<path d="M107.893 62.5381H109.648V64.656H107.893V62.5381Z" fill="#C7C7C7"/>
<path d="M107.893 66.1348H109.648V68.2527H107.893V66.1348Z" fill="#C7C7C7"/>
<path d="M107.893 69.728H109.648V71.846H107.893V69.728Z" fill="#C7C7C7"/>
<path d="M107.893 73.3247H109.648V75.4426H107.893V73.3247Z" fill="#C7C7C7"/>
<path d="M107.893 76.918H109.648V79.0359H107.893V76.918Z" fill="#C7C7C7"/>
<path d="M107.893 80.5142H109.648V82.6321H107.893V80.5142Z" fill="#C7C7C7"/>
<path d="M107.893 84.1074H109.648V86.2254H107.893V84.1074Z" fill="#C7C7C7"/>
<path d="M107.893 87.7041H109.648V89.822H107.893V87.7041Z" fill="#C7C7C7"/>
<path d="M107.893 91.2974H109.648V93.4153H107.893V91.2974Z" fill="#C7C7C7"/>
<path d="M107.893 94.8936H109.648V97.0115H107.893V94.8936Z" fill="#C7C7C7"/>
<path d="M107.893 98.4873H109.648V100.605H107.893V98.4873Z" fill="#C7C7C7"/>
<path d="M107.893 102.083H109.648V104.201H107.893V102.083Z" fill="#C7C7C7"/>
<path d="M107.426 57.4668H105.67V55.3489H107.426V57.4668Z" fill="#C7C7C7"/>
<path d="M154.235 50.5566H167.172V109H154.235V50.5566Z" fill="#EBEBEB"/>
<path d="M154.234 49.2783H167.48V50.5571H154.234V49.2783Z" fill="#C7C7C7"/>
<path d="M164.688 52.4453H166V109.003H164.688V52.4453Z" fill="white"/>
<path d="M162.368 52.4453H163.68V109.003H162.368V52.4453Z" fill="white"/>
<path d="M160.046 52.4453H161.357V109.003H160.046V52.4453Z" fill="white"/>
<path d="M157.726 52.4453H159.037V109.003H157.726V52.4453Z" fill="white"/>
<path d="M155.401 52.4453H156.713V109.003H155.401V52.4453Z" fill="white"/>
<path d="M164.688 54.0605H166V56.5847H164.688V54.0605Z" fill="#EBEBEB"/>
<path d="M162.368 54.0605H163.68V56.5847H162.368V54.0605Z" fill="#EBEBEB"/>
<path d="M160.046 54.0605H161.357V56.5847H160.046V54.0605Z" fill="#EBEBEB"/>
<path d="M157.726 54.0605H159.037V56.5847H157.726V54.0605Z" fill="#EBEBEB"/>
<path d="M155.401 54.0605H156.713V56.5847H155.401V54.0605Z" fill="#EBEBEB"/>
<path d="M164.688 58.166H166V60.6936H164.688V58.166Z" fill="#EBEBEB"/>
<path d="M162.368 58.166H163.68V60.6936H162.368V58.166Z" fill="#EBEBEB"/>
<path d="M160.046 58.166H161.357V60.6936H160.046V58.166Z" fill="#EBEBEB"/>
<path d="M157.726 58.166H159.037V60.6936H157.726V58.166Z" fill="#EBEBEB"/>
<path d="M155.401 58.166H156.713V60.6936H155.401V58.166Z" fill="#EBEBEB"/>
<path d="M164.688 62.272H166V64.7962H164.688V62.272Z" fill="#EBEBEB"/>
<path d="M162.368 62.272H163.68V64.7962H162.368V62.272Z" fill="#EBEBEB"/>
<path d="M160.046 62.272H161.357V64.7962H160.046V62.272Z" fill="#EBEBEB"/>
<path d="M157.726 62.272H159.037V64.7962H157.726V62.272Z" fill="#EBEBEB"/>
<path d="M155.401 62.272H156.713V64.7962H155.401V62.272Z" fill="#EBEBEB"/>
<path d="M164.688 66.375H166V68.9025H164.688V66.375Z" fill="#EBEBEB"/>
<path d="M162.368 66.375H163.68V68.9025H162.368V66.375Z" fill="#EBEBEB"/>
<path d="M160.046 66.375H161.357V68.9025H160.046V66.375Z" fill="#EBEBEB"/>
<path d="M157.726 66.375H159.037V68.9025H157.726V66.375Z" fill="#EBEBEB"/>
<path d="M155.401 66.375H156.713V68.9025H155.401V66.375Z" fill="#EBEBEB"/>
<path d="M164.688 70.481H166V73.0085H164.688V70.481Z" fill="#EBEBEB"/>
<path d="M162.368 70.481H163.68V73.0085H162.368V70.481Z" fill="#EBEBEB"/>
<path d="M160.046 70.481H161.357V73.0085H160.046V70.481Z" fill="#EBEBEB"/>
<path d="M157.726 70.481H159.037V73.0085H157.726V70.481Z" fill="#EBEBEB"/>
<path d="M155.401 70.481H156.713V73.0085H155.401V70.481Z" fill="#EBEBEB"/>
<path d="M164.688 74.5869H166V77.1144H164.688V74.5869Z" fill="#EBEBEB"/>
<path d="M162.368 74.5869H163.68V77.1144H162.368V74.5869Z" fill="#EBEBEB"/>
<path d="M160.046 74.5869H161.357V77.1144H160.046V74.5869Z" fill="#EBEBEB"/>
<path d="M157.726 74.5869H159.037V77.1144H157.726V74.5869Z" fill="#EBEBEB"/>
<path d="M155.401 74.5869H156.713V77.1144H155.401V74.5869Z" fill="#EBEBEB"/>
<path d="M164.688 78.6924H166V81.2199H164.688V78.6924Z" fill="#EBEBEB"/>
<path d="M162.368 78.6924H163.68V81.2199H162.368V78.6924Z" fill="#EBEBEB"/>
<path d="M160.046 78.6924H161.357V81.2199H160.046V78.6924Z" fill="#EBEBEB"/>
<path d="M157.726 78.6924H159.037V81.2199H157.726V78.6924Z" fill="#EBEBEB"/>
<path d="M155.401 78.6924H156.713V81.2199H155.401V78.6924Z" fill="#EBEBEB"/>
<path d="M164.688 82.7954H166V85.3229H164.688V82.7954Z" fill="#EBEBEB"/>
<path d="M162.368 82.7954H163.68V85.3229H162.368V82.7954Z" fill="#EBEBEB"/>
<path d="M160.046 82.7954H161.357V85.3229H160.046V82.7954Z" fill="#EBEBEB"/>
<path d="M157.726 82.7954H159.037V85.3229H157.726V82.7954Z" fill="#EBEBEB"/>
<path d="M155.401 82.7954H156.713V85.3229H155.401V82.7954Z" fill="#EBEBEB"/>
<path d="M164.688 86.9014H166V89.4256H164.688V86.9014Z" fill="#EBEBEB"/>
<path d="M162.368 86.9014H163.68V89.4256H162.368V86.9014Z" fill="#EBEBEB"/>
<path d="M160.046 86.9014H161.357V89.4256H160.046V86.9014Z" fill="#EBEBEB"/>
<path d="M157.726 86.9014H159.037V89.4256H157.726V86.9014Z" fill="#EBEBEB"/>
<path d="M155.401 86.9014H156.713V89.4256H155.401V86.9014Z" fill="#EBEBEB"/>
<path d="M164.688 91.0078H166V93.532H164.688V91.0078Z" fill="#EBEBEB"/>
<path d="M162.368 91.0078H163.68V93.532H162.368V91.0078Z" fill="#EBEBEB"/>
<path d="M160.046 91.0078H161.357V93.532H160.046V91.0078Z" fill="#EBEBEB"/>
<path d="M157.726 91.0078H159.037V93.532H157.726V91.0078Z" fill="#EBEBEB"/>
<path d="M155.401 91.0078H156.713V93.532H155.401V91.0078Z" fill="#EBEBEB"/>
<path d="M164.688 95.1133H166V97.6375H164.688V95.1133Z" fill="#EBEBEB"/>
<path d="M162.368 95.1133H163.68V97.6375H162.368V95.1133Z" fill="#EBEBEB"/>
<path d="M160.046 95.1133H161.357V97.6375H160.046V95.1133Z" fill="#EBEBEB"/>
<path d="M157.726 95.1133H159.037V97.6375H157.726V95.1133Z" fill="#EBEBEB"/>
<path d="M155.401 95.1133H156.713V97.6375H155.401V95.1133Z" fill="#EBEBEB"/>
<path d="M164.688 99.2158H166V101.74H164.688V99.2158Z" fill="#EBEBEB"/>
<path d="M162.368 99.2158H163.68V101.74H162.368V99.2158Z" fill="#EBEBEB"/>
<path d="M160.046 99.2158H161.357V101.74H160.046V99.2158Z" fill="#EBEBEB"/>
<path d="M157.726 99.2158H159.037V101.74H157.726V99.2158Z" fill="#EBEBEB"/>
<path d="M155.401 99.2158H156.713V101.74H155.401V99.2158Z" fill="#EBEBEB"/>
<path d="M164.688 103.322H166V105.846H164.688V103.322Z" fill="#EBEBEB"/>
<path d="M162.368 103.322H163.68V105.846H162.368V103.322Z" fill="#EBEBEB"/>
<path d="M160.046 103.322H161.357V105.846H160.046V103.322Z" fill="#EBEBEB"/>
<path d="M157.726 103.322H159.037V105.846H157.726V103.322Z" fill="#EBEBEB"/>
<path d="M155.401 103.322H156.713V105.846H155.401V103.322Z" fill="#EBEBEB"/>
<path d="M164.688 107.429H166V109.004H164.688V107.429Z" fill="#EBEBEB"/>
<path d="M162.368 107.429H163.68V109.004H162.368V107.429Z" fill="#EBEBEB"/>
<path d="M160.046 107.429H161.357V109.004H160.046V107.429Z" fill="#EBEBEB"/>
<path d="M157.726 107.429H159.037V109.004H157.726V107.429Z" fill="#EBEBEB"/>
<path d="M155.401 107.429H156.713V109.004H155.401V107.429Z" fill="#EBEBEB"/>
<path d="M145.928 50.5566H154.234V109H145.928V50.5566Z" fill="#DBDBDB"/>
<path d="M145.57 49.2783H154.234V50.5571H145.57V49.2783Z" fill="#C7C7C7"/>
<path d="M151.753 52.4453H153.064V109.003H151.753V52.4453Z" fill="#C7C7C7"/>
<path d="M149.433 52.4453H150.744V109.003H149.433V52.4453Z" fill="#C7C7C7"/>
<path d="M147.108 52.4453H148.42V109.003H147.108V52.4453Z" fill="#C7C7C7"/>
<path d="M151.753 54.0605H153.064V56.5847H151.753V54.0605Z" fill="#DBDBDB"/>
<path d="M149.433 54.0605H150.744V56.5847H149.433V54.0605Z" fill="#DBDBDB"/>
<path d="M147.108 54.0605H148.42V56.5847H147.108V54.0605Z" fill="#DBDBDB"/>
<path d="M151.753 58.166H153.064V60.6936H151.753V58.166Z" fill="#DBDBDB"/>
<path d="M149.433 58.166H150.744V60.6936H149.433V58.166Z" fill="#DBDBDB"/>
<path d="M147.108 58.166H148.42V60.6936H147.108V58.166Z" fill="#DBDBDB"/>
<path d="M151.753 62.272H153.064V64.7962H151.753V62.272Z" fill="#DBDBDB"/>
<path d="M149.433 62.272H150.744V64.7962H149.433V62.272Z" fill="#DBDBDB"/>
<path d="M147.108 62.272H148.42V64.7962H147.108V62.272Z" fill="#DBDBDB"/>
<path d="M151.753 66.375H153.064V68.9025H151.753V66.375Z" fill="#DBDBDB"/>
<path d="M149.433 66.375H150.744V68.9025H149.433V66.375Z" fill="#DBDBDB"/>
<path d="M147.108 66.375H148.42V68.9025H147.108V66.375Z" fill="#DBDBDB"/>
<path d="M151.753 70.481H153.064V73.0085H151.753V70.481Z" fill="#DBDBDB"/>
<path d="M149.433 70.481H150.744V73.0085H149.433V70.481Z" fill="#DBDBDB"/>
<path d="M147.108 70.481H148.42V73.0085H147.108V70.481Z" fill="#DBDBDB"/>
<path d="M151.753 74.5869H153.064V77.1144H151.753V74.5869Z" fill="#DBDBDB"/>
<path d="M149.433 74.5869H150.744V77.1144H149.433V74.5869Z" fill="#DBDBDB"/>
<path d="M147.108 74.5869H148.42V77.1144H147.108V74.5869Z" fill="#DBDBDB"/>
<path d="M151.753 78.6924H153.064V81.2199H151.753V78.6924Z" fill="#DBDBDB"/>
<path d="M149.433 78.6924H150.744V81.2199H149.433V78.6924Z" fill="#DBDBDB"/>
<path d="M147.108 78.6924H148.42V81.2199H147.108V78.6924Z" fill="#DBDBDB"/>
<path d="M151.753 82.7954H153.064V85.3229H151.753V82.7954Z" fill="#DBDBDB"/>
<path d="M149.433 82.7954H150.744V85.3229H149.433V82.7954Z" fill="#DBDBDB"/>
<path d="M147.108 82.7954H148.42V85.3229H147.108V82.7954Z" fill="#DBDBDB"/>
<path d="M151.753 86.9014H153.064V89.4256H151.753V86.9014Z" fill="#DBDBDB"/>
<path d="M149.433 86.9014H150.744V89.4256H149.433V86.9014Z" fill="#DBDBDB"/>
<path d="M147.108 86.9014H148.42V89.4256H147.108V86.9014Z" fill="#DBDBDB"/>
<path d="M151.753 91.0078H153.064V93.532H151.753V91.0078Z" fill="#DBDBDB"/>
<path d="M149.433 91.0078H150.744V93.532H149.433V91.0078Z" fill="#DBDBDB"/>
<path d="M147.108 91.0078H148.42V93.532H147.108V91.0078Z" fill="#DBDBDB"/>
<path d="M151.753 95.1133H153.064V97.6375H151.753V95.1133Z" fill="#DBDBDB"/>
<path d="M149.433 95.1133H150.744V97.6375H149.433V95.1133Z" fill="#DBDBDB"/>
<path d="M147.108 95.1133H148.42V97.6375H147.108V95.1133Z" fill="#DBDBDB"/>
<path d="M151.753 99.2158H153.064V101.74H151.753V99.2158Z" fill="#DBDBDB"/>
<path d="M149.433 99.2158H150.744V101.74H149.433V99.2158Z" fill="#DBDBDB"/>
<path d="M147.108 99.2158H148.42V101.74H147.108V99.2158Z" fill="#DBDBDB"/>
<path d="M151.753 103.322H153.064V105.846H151.753V103.322Z" fill="#DBDBDB"/>
<path d="M149.433 103.322H150.744V105.846H149.433V103.322Z" fill="#DBDBDB"/>
<path d="M147.108 103.322H148.42V105.846H147.108V103.322Z" fill="#DBDBDB"/>
<path d="M151.753 107.429H153.064V109.004H151.753V107.429Z" fill="#DBDBDB"/>
<path d="M149.433 107.429H150.744V109.004H149.433V107.429Z" fill="#DBDBDB"/>
<path d="M147.108 107.429H148.42V109.004H147.108V107.429Z" fill="#DBDBDB"/>
<path d="M185.966 72.0361H198.848V109H185.966V72.0361Z" fill="#EBEBEB"/>
<path d="M185.962 68.9023H197.012V72.036H185.962V68.9023Z" fill="#C7C7C7"/>
<path d="M187.378 73.6709H197.434V109H187.378V73.6709Z" fill="#DBDBDB"/>
<path d="M187.378 77.0449H197.434V77.8808H187.378V77.0449Z" fill="white"/>
<path d="M187.378 80.501H197.434V81.3368H187.378V80.501Z" fill="white"/>
<path d="M187.378 83.9609H197.434V84.7968H187.378V83.9609Z" fill="white"/>
<path d="M187.378 87.418H197.434V88.2538H187.378V87.418Z" fill="white"/>
<path d="M187.378 90.8779H197.434V91.7138H187.378V90.8779Z" fill="white"/>
<path d="M187.378 94.334H197.434V95.1698H187.378V94.334Z" fill="white"/>
<path d="M187.378 97.7939H197.434V98.6298H187.378V97.7939Z" fill="white"/>
<path d="M187.378 101.251H197.434V102.087H187.378V101.251Z" fill="white"/>
<path d="M187.378 104.711H197.434V105.547H187.378V104.711Z" fill="white"/>
<path d="M187.378 108.168H197.434V109.004H187.378V108.168Z" fill="white"/>
<path d="M177.898 72.0361H185.967V109H177.898V72.0361Z" fill="#DBDBDB"/>
<path d="M179.109 68.9023H185.967V72.036H179.109V68.9023Z" fill="#A6A6A6"/>
<path d="M178.646 73.6709H184.85V109H178.646V73.6709Z" fill="#C7C7C7"/>
<path d="M178.646 77.0449H184.85V77.8808H178.646V77.0449Z" fill="white"/>
<path d="M178.646 80.501H184.85V81.3368H178.646V80.501Z" fill="white"/>
<path d="M178.646 83.9609H184.85V84.7968H178.646V83.9609Z" fill="white"/>
<path d="M178.646 87.418H184.85V88.2538H178.646V87.418Z" fill="white"/>
<path d="M178.646 90.8779H184.85V91.7138H178.646V90.8779Z" fill="white"/>
<path d="M178.646 94.334H184.85V95.1698H178.646V94.334Z" fill="white"/>
<path d="M178.646 97.7939H184.85V98.6298H178.646V97.7939Z" fill="white"/>
<path d="M178.646 101.251H184.85V102.087H178.646V101.251Z" fill="white"/>
<path d="M178.646 104.711H184.85V105.547H178.646V104.711Z" fill="white"/>
<path d="M178.646 108.168H184.85V109.004H178.646V108.168Z" fill="white"/>
<path d="M91.3243 87.3613H101.283V109H91.3243V87.3613Z" fill="#DBDBDB"/>
<path d="M97.9582 89.2363H99.7207V90.5617H97.9582V89.2363Z" fill="#C7C7C7"/>
<path d="M97.9582 92.0664H99.7207V93.3918H97.9582V92.0664Z" fill="#C7C7C7"/>
<path d="M97.9582 94.8965H99.7207V96.2219H97.9582V94.8965Z" fill="#C7C7C7"/>
<path d="M97.9582 97.731H99.7207V99.0563H97.9582V97.731Z" fill="#C7C7C7"/>
<path d="M97.9582 100.562H99.7207V101.887H97.9582V100.562Z" fill="#C7C7C7"/>
<path d="M97.9582 103.396H99.7207V104.721H97.9582V103.396Z" fill="#C7C7C7"/>
<path d="M97.9582 106.226H99.7207V107.551H97.9582V106.226Z" fill="#C7C7C7"/>
<path d="M95.4191 89.2363H97.1816V90.5617H95.4191V89.2363Z" fill="#C7C7C7"/>
<path d="M95.4191 92.0664H97.1816V93.3918H95.4191V92.0664Z" fill="#C7C7C7"/>
<path d="M95.4191 94.8965H97.1816V96.2219H95.4191V94.8965Z" fill="#C7C7C7"/>
<path d="M95.4191 97.731H97.1816V99.0563H95.4191V97.731Z" fill="#C7C7C7"/>
<path d="M95.4191 100.562H97.1816V101.887H95.4191V100.562Z" fill="#C7C7C7"/>
<path d="M95.4191 103.396H97.1816V104.721H95.4191V103.396Z" fill="#C7C7C7"/>
<path d="M95.4191 106.226H97.1816V107.551H95.4191V106.226Z" fill="#C7C7C7"/>
<path d="M92.8898 89.2363H94.6523V90.5617H92.8898V89.2363Z" fill="#C7C7C7"/>
<path d="M92.8898 92.0664H94.6523V93.3918H92.8898V92.0664Z" fill="#C7C7C7"/>
<path d="M92.8898 94.8965H94.6523V96.2219H92.8898V94.8965Z" fill="#C7C7C7"/>
<path d="M92.8898 97.731H94.6523V99.0563H92.8898V97.731Z" fill="#C7C7C7"/>
<path d="M92.8898 100.562H94.6523V101.887H92.8898V100.562Z" fill="#C7C7C7"/>
<path d="M92.8898 103.396H94.6523V104.721H92.8898V103.396Z" fill="#C7C7C7"/>
<path d="M92.8898 106.226H94.6523V107.551H92.8898V106.226Z" fill="#C7C7C7"/>
<path d="M84.3381 87.3613H91.3262V109H84.3381V87.3613Z" fill="#A6A6A6"/>
<path d="M86.4882 107.338H85.0527V106.013H86.4882V107.338Z" fill="#C7C7C7"/>
<path d="M86.4882 104.508H85.0527V103.182H86.4882V104.508Z" fill="#C7C7C7"/>
<path d="M86.4882 101.677H85.0527V100.351H86.4882V101.677Z" fill="#C7C7C7"/>
<path d="M86.4882 98.8467H85.0527V97.5213H86.4882V98.8467Z" fill="#C7C7C7"/>
<path d="M86.4882 96.0122H85.0527V94.6868H86.4882V96.0122Z" fill="#C7C7C7"/>
<path d="M86.4882 93.1787H85.0527V91.8533H86.4882V93.1787Z" fill="#C7C7C7"/>
<path d="M86.4882 90.3516H85.0527V89.0262H86.4882V90.3516Z" fill="#C7C7C7"/>
<path d="M88.5546 107.338H87.1191V106.013H88.5546V107.338Z" fill="#C7C7C7"/>
<path d="M88.5546 104.508H87.1191V103.182H88.5546V104.508Z" fill="#C7C7C7"/>
<path d="M88.5546 101.677H87.1191V100.351H88.5546V101.677Z" fill="#C7C7C7"/>
<path d="M88.5546 98.8462H87.1191V97.5208H88.5546V98.8462Z" fill="#C7C7C7"/>
<path d="M88.5546 96.0122H87.1191V94.6868H88.5546V96.0122Z" fill="#C7C7C7"/>
<path d="M88.5546 93.1787H87.1191V91.8533H88.5546V93.1787Z" fill="#C7C7C7"/>
<path d="M88.5546 90.3516H87.1191V89.0262H88.5546V90.3516Z" fill="#C7C7C7"/>
<path d="M90.6113 107.338H89.1758V106.013H90.6113V107.338Z" fill="#C7C7C7"/>
<path d="M90.6113 104.508H89.1758V103.182H90.6113V104.508Z" fill="#C7C7C7"/>
<path d="M90.6113 101.677H89.1758V100.351H90.6113V101.677Z" fill="#C7C7C7"/>
<path d="M90.6113 98.8467H89.1758V97.5213H90.6113V98.8467Z" fill="#C7C7C7"/>
<path d="M90.6113 96.0122H89.1758V94.6868H90.6113V96.0122Z" fill="#C7C7C7"/>
<path d="M90.6113 93.1787H89.1758V91.8533H90.6113V93.1787Z" fill="#C7C7C7"/>
<path d="M90.6113 90.3516H89.1758V89.0262H90.6113V90.3516Z" fill="#C7C7C7"/>
<path d="M75.771 62.5381H82.6523V70.4004H75.771V62.5381Z" fill="#DBDBDB"/>
<path d="M71.4119 62.5381H75.7734V70.6868H71.4119V62.5381Z" fill="#C7C7C7"/>
<path d="M71.1206 66.0117H75.4512V70.6905H71.1206V66.0117Z" fill="#DBDBDB"/>
<path d="M68.4203 66.0117H71.1191V70.6905H68.4203V66.0117Z" fill="#C7C7C7"/>
<path d="M74.1671 69.8916H85.293V109.003H74.1671V69.8916Z" fill="#EBEBEB"/>
<path d="M80.522 71.5732H84.0195V72.9552H80.522V71.5732Z" fill="white"/>
<path d="M76.0455 71.5732H79.543V72.9552H76.0455V71.5732Z" fill="white"/>
<path d="M80.522 73.9209H84.0195V75.3029H80.522V73.9209Z" fill="white"/>
<path d="M76.0455 73.9209H79.543V75.3029H76.0455V73.9209Z" fill="white"/>
<path d="M80.522 76.2686H84.0195V77.6505H80.522V76.2686Z" fill="white"/>
<path d="M76.0455 76.2686H79.543V77.6505H76.0455V76.2686Z" fill="white"/>
<path d="M80.522 78.6128H84.0195V79.9948H80.522V78.6128Z" fill="white"/>
<path d="M76.0455 78.6128H79.543V79.9948H76.0455V78.6128Z" fill="white"/>
<path d="M80.522 80.9609H84.0195V82.3429H80.522V80.9609Z" fill="white"/>
<path d="M76.0455 80.9609H79.543V82.3429H76.0455V80.9609Z" fill="white"/>
<path d="M80.522 83.3086H84.0195V84.6906H80.522V83.3086Z" fill="white"/>
<path d="M76.0455 83.3086H79.543V84.6906H76.0455V83.3086Z" fill="white"/>
<path d="M80.522 85.6562H84.0195V87.0382H80.522V85.6562Z" fill="white"/>
<path d="M76.0455 85.6562H79.543V87.0382H76.0455V85.6562Z" fill="white"/>
<path d="M80.522 88.0039H84.0195V89.3859H80.522V88.0039Z" fill="white"/>
<path d="M76.0455 88.0039H79.543V89.3859H76.0455V88.0039Z" fill="white"/>
<path d="M80.522 90.3516H84.0195V91.7335H80.522V90.3516Z" fill="white"/>
<path d="M76.0455 90.3516H79.543V91.7335H76.0455V90.3516Z" fill="white"/>
<path d="M80.522 92.6992H84.0195V94.0812H80.522V92.6992Z" fill="white"/>
<path d="M76.0455 92.6987H79.543V94.0807H76.0455V92.6987Z" fill="white"/>
<path d="M80.522 95.0469H84.0195V96.4289H80.522V95.0469Z" fill="white"/>
<path d="M76.0455 95.0469H79.543V96.4289H76.0455V95.0469Z" fill="white"/>
<path d="M80.522 97.3945H84.0195V98.7765H80.522V97.3945Z" fill="white"/>
<path d="M76.0455 97.3945H79.543V98.7765H76.0455V97.3945Z" fill="white"/>
<path d="M80.522 99.7422H84.0195V101.124H80.522V99.7422Z" fill="white"/>
<path d="M76.0455 99.7422H79.543V101.124H76.0455V99.7422Z" fill="white"/>
<path d="M80.522 102.09H84.0195V103.472H80.522V102.09Z" fill="white"/>
<path d="M76.0455 102.09H79.543V103.472H76.0455V102.09Z" fill="white"/>
<path d="M65.1523 69.8916H74.168V109.003H65.1523V69.8916Z" fill="#C7C7C7"/>
<path d="M68.9276 103.476H66.0566V102.094H68.9276V103.476Z" fill="#EBEBEB"/>
<path d="M72.6014 103.476H69.7305V102.094H72.6014V103.476Z" fill="#EBEBEB"/>
<path d="M68.9276 101.128H66.0566V99.7459H68.9276V101.128Z" fill="#EBEBEB"/>
<path d="M72.6014 101.128H69.7305V99.7459H72.6014V101.128Z" fill="#EBEBEB"/>
<path d="M68.9276 98.7803H66.0566V97.3983H68.9276V98.7803Z" fill="#EBEBEB"/>
<path d="M72.6014 98.7803H69.7305V97.3983H72.6014V98.7803Z" fill="#EBEBEB"/>
<path d="M68.9276 96.4326H66.0566V95.0506H68.9276V96.4326Z" fill="#EBEBEB"/>
<path d="M72.6014 96.4326H69.7305V95.0506H72.6014V96.4326Z" fill="#EBEBEB"/>
<path d="M68.9276 94.0845H66.0566V92.7025H68.9276V94.0845Z" fill="#EBEBEB"/>
<path d="M72.6014 94.0845H69.7305V92.7025H72.6014V94.0845Z" fill="#EBEBEB"/>
<path d="M68.9276 91.7368H66.0566V90.3548H68.9276V91.7368Z" fill="#EBEBEB"/>
<path d="M72.6014 91.7368H69.7305V90.3548H72.6014V91.7368Z" fill="#EBEBEB"/>
<path d="M68.9276 89.3887H66.0566V88.0067H68.9276V89.3887Z" fill="#EBEBEB"/>
<path d="M72.6014 89.3887H69.7305V88.0067H72.6014V89.3887Z" fill="#EBEBEB"/>
<path d="M68.9276 87.041H66.0566V85.659H68.9276V87.041Z" fill="#EBEBEB"/>
<path d="M72.6014 87.041H69.7305V85.659H72.6014V87.041Z" fill="#EBEBEB"/>
<path d="M68.9276 84.6934H66.0566V83.3114H68.9276V84.6934Z" fill="#EBEBEB"/>
<path d="M72.6014 84.6934H69.7305V83.3114H72.6014V84.6934Z" fill="#EBEBEB"/>
<path d="M68.9276 82.3457H66.0566V80.9637H68.9276V82.3457Z" fill="#EBEBEB"/>
<path d="M72.6014 82.3457H69.7305V80.9637H72.6014V82.3457Z" fill="#EBEBEB"/>
<path d="M68.9276 79.998H66.0566V78.6161H68.9276V79.998Z" fill="#EBEBEB"/>
<path d="M72.6014 79.998H69.7305V78.6161H72.6014V79.998Z" fill="#EBEBEB"/>
<path d="M68.9276 77.6475H66.0566V76.2655H68.9276V77.6475Z" fill="#EBEBEB"/>
<path d="M72.6014 77.6475H69.7305V76.2655H72.6014V77.6475Z" fill="#EBEBEB"/>
<path d="M68.9276 75.2988H66.0566V73.9168H68.9276V75.2988Z" fill="#EBEBEB"/>
<path d="M72.6014 75.2993H69.7305V73.9173H72.6014V75.2993Z" fill="#EBEBEB"/>
<path d="M68.9276 72.9517H66.0566V71.5697H68.9276V72.9517Z" fill="#EBEBEB"/>
<path d="M72.6014 72.9517H69.7305V71.5697H72.6014V72.9517Z" fill="#EBEBEB"/>
<path d="M167.76 83.5146H180.883V109H167.76V83.5146Z" fill="#C7C7C7"/>
<path d="M176.495 85.7227H178.818V87.2845H176.495V85.7227Z" fill="#DBDBDB"/>
<path d="M176.495 89.0557H178.818V90.6175H176.495V89.0557Z" fill="#DBDBDB"/>
<path d="M176.495 92.3926H178.818V93.9544H176.495V92.3926Z" fill="#DBDBDB"/>
<path d="M176.495 95.7261H178.818V97.2879H176.495V95.7261Z" fill="#DBDBDB"/>
<path d="M176.495 99.063H178.818V100.625H176.495V99.063Z" fill="#DBDBDB"/>
<path d="M176.495 102.396H178.818V103.958H176.495V102.396Z" fill="#DBDBDB"/>
<path d="M176.495 105.733H178.818V107.295H176.495V105.733Z" fill="#DBDBDB"/>
<path d="M173.155 85.7227H175.479V87.2845H173.155V85.7227Z" fill="#DBDBDB"/>
<path d="M173.155 89.0557H175.479V90.6175H173.155V89.0557Z" fill="#DBDBDB"/>
<path d="M173.155 92.3926H175.479V93.9544H173.155V92.3926Z" fill="#DBDBDB"/>
<path d="M173.155 95.7261H175.479V97.2879H173.155V95.7261Z" fill="#DBDBDB"/>
<path d="M173.155 99.063H175.479V100.625H173.155V99.063Z" fill="#DBDBDB"/>
<path d="M173.155 102.396H175.479V103.958H173.155V102.396Z" fill="#DBDBDB"/>
<path d="M173.155 105.733H175.479V107.295H173.155V105.733Z" fill="#DBDBDB"/>
<path d="M169.823 85.7227H172.146V87.2845H169.823V85.7227Z" fill="#DBDBDB"/>
<path d="M169.823 89.0557H172.146V90.6175H169.823V89.0557Z" fill="#DBDBDB"/>
<path d="M169.823 92.3926H172.146V93.9544H169.823V92.3926Z" fill="#DBDBDB"/>
<path d="M169.823 95.7261H172.146V97.2879H169.823V95.7261Z" fill="#DBDBDB"/>
<path d="M169.823 99.063H172.146V100.625H169.823V99.063Z" fill="#DBDBDB"/>
<path d="M169.823 102.396H172.146V103.958H169.823V102.396Z" fill="#DBDBDB"/>
<path d="M169.823 105.733H172.146V107.295H169.823V105.733Z" fill="#DBDBDB"/>
<path d="M167.759 80.8604H176.496V83.5144H167.759V80.8604Z" fill="#DBDBDB"/>
<path d="M167.76 79.2158H173.299V80.8609H167.76V79.2158Z" fill="#EBEBEB"/>
<path d="M158.555 83.5146H167.76V109H158.555V83.5146Z" fill="#A6A6A6"/>
<path d="M161.386 107.045H159.496V105.483H161.386V107.045Z" fill="#C7C7C7"/>
<path d="M161.386 103.708H159.496V102.147H161.386V103.708Z" fill="#C7C7C7"/>
<path d="M161.386 100.375H159.496V98.8132H161.386V100.375Z" fill="#C7C7C7"/>
<path d="M161.386 97.0381H159.496V95.4763H161.386V97.0381Z" fill="#C7C7C7"/>
<path d="M161.386 93.7051H159.496V92.1433H161.386V93.7051Z" fill="#C7C7C7"/>
<path d="M161.386 90.3682H159.496V88.8064H161.386V90.3682Z" fill="#C7C7C7"/>
<path d="M161.386 87.0352H159.496V85.4733H161.386V87.0352Z" fill="#C7C7C7"/>
<path d="M164.105 107.045H162.215V105.483H164.105V107.045Z" fill="#C7C7C7"/>
<path d="M164.105 103.708H162.215V102.147H164.105V103.708Z" fill="#C7C7C7"/>
<path d="M164.105 100.375H162.215V98.8132H164.105V100.375Z" fill="#C7C7C7"/>
<path d="M164.105 97.0381H162.215V95.4763H164.105V97.0381Z" fill="#C7C7C7"/>
<path d="M164.105 93.7051H162.215V92.1433H164.105V93.7051Z" fill="#C7C7C7"/>
<path d="M164.105 90.3682H162.215V88.8064H164.105V90.3682Z" fill="#C7C7C7"/>
<path d="M164.105 87.0352H162.215V85.4733H164.105V87.0352Z" fill="#C7C7C7"/>
<path d="M166.818 107.045H164.928V105.483H166.818V107.045Z" fill="#C7C7C7"/>
<path d="M166.818 103.708H164.928V102.147H166.818V103.708Z" fill="#C7C7C7"/>
<path d="M166.818 100.375H164.928V98.8132H166.818V100.375Z" fill="#C7C7C7"/>
<path d="M166.818 97.0381H164.928V95.4763H166.818V97.0381Z" fill="#C7C7C7"/>
<path d="M166.818 93.7051H164.928V92.1433H166.818V93.7051Z" fill="#C7C7C7"/>
<path d="M166.818 90.3682H164.928V88.8064H166.818V90.3682Z" fill="#C7C7C7"/>
<path d="M166.818 87.0352H164.928V85.4733H166.818V87.0352Z" fill="#C7C7C7"/>
<path d="M159.949 80.8604H167.76V83.5144H159.949V80.8604Z" fill="#C7C7C7"/>
<path d="M163.526 79.2158H167.76V80.8609H163.526V79.2158Z" fill="#DBDBDB"/>
<path d="M132.884 150C102.865 150 78.5286 148.188 78.5286 145.954C78.5286 143.719 102.865 141.908 132.884 141.908C162.904 141.908 187.24 143.719 187.24 145.954C187.24 148.188 162.904 150 132.884 150Z" fill="#CCCCCC"/>
<path d="M58.9724 109.004H205.027V111.268H58.9724V109.004Z" fill="#C7C7C7"/>
<path d="M194.79 109.004C194.556 109.742 194.556 110.531 194.79 111.268C194.913 110.903 194.971 110.52 194.962 110.136C194.968 109.752 194.909 109.37 194.79 109.004Z" fill="#263238"/>
<path d="M183.369 109.004C183.25 109.37 183.192 109.752 183.197 110.136C183.188 110.52 183.247 110.903 183.369 111.268C183.603 110.531 183.603 109.742 183.369 109.004Z" fill="#263238"/>
<path d="M171.957 109.004C171.727 109.742 171.727 110.53 171.957 111.268C172.186 110.53 172.186 109.742 171.957 109.004Z" fill="#263238"/>
<path d="M160.54 109.004C160.306 109.742 160.306 110.531 160.54 111.268C160.663 110.903 160.721 110.52 160.712 110.136C160.719 109.752 160.661 109.37 160.54 109.004Z" fill="#263238"/>
<path d="M149.121 109.004C149.002 109.37 148.944 109.752 148.949 110.136C148.94 110.52 148.999 110.903 149.121 111.268C149.355 110.531 149.355 109.742 149.121 109.004Z" fill="#263238"/>
<path d="M137.707 109.004C137.478 109.742 137.478 110.53 137.707 111.268C137.941 110.531 137.941 109.742 137.707 109.004Z" fill="#263238"/>
<path d="M126.293 109.004C126.059 109.742 126.059 110.531 126.293 111.268C126.522 110.53 126.522 109.742 126.293 109.004Z" fill="#263238"/>
<path d="M114.878 109.004C114.644 109.742 114.644 110.531 114.878 111.268C115.001 110.903 115.059 110.52 115.05 110.136C115.056 109.752 114.997 109.37 114.878 109.004Z" fill="#263238"/>
<path d="M103.459 109.004C103.338 109.37 103.28 109.752 103.287 110.136C103.278 110.52 103.337 110.903 103.459 111.268C103.693 110.531 103.693 109.742 103.459 109.004Z" fill="#263238"/>
<path d="M92.0427 109.004C91.8132 109.742 91.8132 110.53 92.0427 111.268C92.2722 110.53 92.2722 109.742 92.0427 109.004Z" fill="#263238"/>
<path d="M80.6278 109.004C80.3937 109.742 80.3937 110.531 80.6278 111.268C80.7505 110.903 80.8087 110.52 80.7999 110.136C80.8072 109.752 80.7491 109.37 80.6278 109.004Z" fill="#263238"/>
<path d="M69.2112 109.004C69.0916 109.37 69.0335 109.752 69.0391 110.136C69.0303 110.52 69.0885 110.903 69.2112 111.268C69.4452 110.531 69.4452 109.742 69.2112 109.004Z" fill="#263238"/>
<path d="M207 111.435L188.249 111.355L169.502 111.325L132 111.269L94.4983 111.325L75.7509 111.355L57 111.435L75.7509 111.518L94.4983 111.545L132 111.602L169.502 111.545L188.249 111.515L207 111.435Z" fill="#263238"/>
<path d="M191.72 82.1298C191.72 82.1298 184.202 98.2774 196.471 98.2907C208.74 98.304 200.808 81.587 200.808 81.587C200.808 81.587 203.648 80.3815 200.364 71.367C197.08 62.3524 195.61 62.3491 194.24 62.3491C192.519 62.3491 190.898 66.2486 192.071 72.2361C192.071 72.2395 187.744 79.7088 191.72 82.1298Z" fill="#37474F"/>
<path d="M197.549 109.007L196.392 84.6709L195.184 109.007H197.549Z" fill="#263238"/>
<path d="M196.863 94.8742L192.409 89.8291L195.899 95.5402L196.863 94.8742Z" fill="#263238"/>
<path d="M72.4823 83.8682C72.4823 83.8682 75.9833 82.5362 78.7544 87.1983C81.5979 91.9969 78.0246 95.1505 75.195 93.2657C75.195 93.2657 72.9677 97.778 68.5236 96.699C64.0794 95.6201 63.3599 92.1801 63.3599 92.1801C63.3599 92.1801 59.4184 92.4432 59.3082 89.596C59.198 86.7487 62.0931 84.2278 62.0931 84.2278C62.0931 84.2278 62.2687 77.1348 67.0433 77.1947C71.8179 77.2547 72.4823 83.8682 72.4823 83.8682Z" fill="#455A64"/>
<path d="M69.2051 108.997L68.2309 87.8945L67.205 108.994L69.2051 108.997Z" fill="#263238"/>
<path d="M68.5158 95.8228L71.5898 89.9053L68.0132 94.9004L68.5158 95.8228Z" fill="#263238"/>
<path d="M175.252 83.8675C175.252 83.8675 178.749 82.5355 181.524 87.1976C184.364 91.9962 180.791 95.1498 177.961 93.265C177.961 93.265 175.734 97.7773 171.293 96.6983C166.852 95.6194 166.13 92.1794 166.13 92.1794C166.13 92.1794 162.185 92.4425 162.078 89.5952C161.971 86.748 164.859 84.2271 164.859 84.2271C164.859 84.2271 165.049 77.1341 169.816 77.2007C174.584 77.2673 175.252 83.8675 175.252 83.8675Z" fill="#455A64"/>
<path d="M171.971 108.997L170.996 87.8945L169.974 108.994L171.971 108.997Z" fill="#263238"/>
<path d="M171.285 95.8228L174.355 89.9053L170.779 94.9004L171.285 95.8228Z" fill="#263238"/>
<path d="M83.7322 85.4595C83.7322 85.4595 90.2728 99.619 79.5359 99.6057C68.799 99.5923 75.7699 84.9699 75.7699 84.9699C75.7699 84.9699 73.2845 83.9076 76.1795 76.0187C79.0746 68.1297 80.3655 68.123 81.56 68.123C83.0747 68.123 84.4827 71.543 83.443 76.7813C83.443 76.8012 87.2159 83.3382 83.7322 85.4595Z" fill="#37474F"/>
<path d="M78.5722 108.984L79.6325 87.668L80.6445 108.987L78.5722 108.984Z" fill="#263238"/>
<path d="M79.2027 96.6058L83.1133 92.1968L80.0426 97.1886L79.2027 96.6058Z" fill="#263238"/>
<path d="M180.911 96.439H181.658V102.839H180.911V96.439Z" fill="#263238"/>
<path d="M167.368 96.439H168.115V102.839H167.368V96.439Z" fill="#263238"/>
<path d="M165.413 97.0215H183.613V97.9672H165.413V97.0215Z" fill="#00AFB8"/>
<path opacity="0.2" d="M165.413 97.0215H183.613V97.9672H165.413V97.0215Z" fill="black"/>
<path d="M165.413 98.4775H183.613V99.4233H165.413V98.4775Z" fill="#00AFB8"/>
<path opacity="0.2" d="M165.413 98.4775H183.613V99.4233H165.413V98.4775Z" fill="black"/>
<path d="M165.413 99.9355H183.613V100.881H165.413V99.9355Z" fill="#00AFB8"/>
<path opacity="0.2" d="M165.413 99.9355H183.613V100.881H165.413V99.9355Z" fill="black"/>
<path d="M165.413 101.395H183.613V102.34H165.413V101.395Z" fill="#00AFB8"/>
<path opacity="0.2" d="M165.413 101.395H183.613V102.34H165.413V101.395Z" fill="black"/>
<path d="M163.554 102.839H185.217V104.248H163.554V102.839Z" fill="#00AFB8"/>
<path opacity="0.2" d="M163.554 102.839H185.217V104.248H163.554V102.839Z" fill="black"/>
<path d="M183.255 104.248H184.002V109.013H183.255V104.248Z" fill="#263238"/>
<path d="M164.765 104.248H165.512V109.013H164.765V104.248Z" fill="#263238"/>
<g opacity="0.2">
<path d="M181.193 97.4947C181.193 97.5125 181.198 97.5299 181.209 97.5447C181.219 97.5594 181.233 97.571 181.25 97.5778C181.267 97.5846 181.286 97.5864 181.304 97.5829C181.322 97.5794 181.339 97.5709 181.352 97.5583C181.365 97.5457 181.374 97.5297 181.377 97.5122C181.381 97.4948 181.379 97.4767 181.372 97.4603C181.365 97.4439 181.353 97.4298 181.338 97.4199C181.322 97.4101 181.304 97.4048 181.286 97.4048C181.261 97.4048 181.238 97.4143 181.22 97.4311C181.203 97.448 181.193 97.4709 181.193 97.4947Z" fill="black"/>
<path d="M181.193 98.9506C181.19 98.9636 181.191 98.9771 181.194 98.9899C181.197 99.0028 181.204 99.0148 181.212 99.025C181.221 99.0352 181.232 99.0435 181.244 99.0492C181.257 99.0548 181.27 99.0578 181.284 99.0578C181.298 99.0578 181.311 99.0548 181.324 99.0492C181.336 99.0435 181.347 99.0352 181.356 99.025C181.364 99.0148 181.371 99.0028 181.374 98.9899C181.377 98.9771 181.378 98.9636 181.375 98.9506C181.371 98.9302 181.36 98.9117 181.343 98.8984C181.326 98.8852 181.306 98.8779 181.284 98.8779C181.262 98.8779 181.242 98.8852 181.225 98.8984C181.208 98.9117 181.197 98.9302 181.193 98.9506Z" fill="black"/>
<path d="M181.286 100.499C181.235 100.499 181.193 100.459 181.193 100.409C181.193 100.36 181.235 100.319 181.286 100.319C181.337 100.319 181.379 100.36 181.379 100.409C181.379 100.459 181.337 100.499 181.286 100.499Z" fill="black"/>
<path d="M181.193 101.867C181.193 101.885 181.198 101.902 181.209 101.917C181.219 101.932 181.233 101.944 181.25 101.95C181.267 101.957 181.286 101.959 181.304 101.955C181.322 101.952 181.339 101.943 181.352 101.931C181.365 101.918 181.374 101.902 181.377 101.885C181.381 101.867 181.379 101.849 181.372 101.833C181.365 101.816 181.353 101.802 181.338 101.792C181.322 101.783 181.304 101.777 181.286 101.777C181.261 101.777 181.238 101.787 181.22 101.804C181.203 101.821 181.193 101.843 181.193 101.867Z" fill="black"/>
<path d="M167.65 97.4947C167.65 97.5125 167.655 97.5299 167.666 97.5447C167.676 97.5594 167.69 97.571 167.707 97.5778C167.724 97.5846 167.743 97.5864 167.761 97.5829C167.779 97.5794 167.796 97.5709 167.809 97.5583C167.822 97.5457 167.831 97.5297 167.834 97.5122C167.838 97.4948 167.836 97.4767 167.829 97.4603C167.822 97.4439 167.81 97.4298 167.795 97.4199C167.779 97.4101 167.761 97.4048 167.743 97.4048C167.718 97.4048 167.695 97.4143 167.677 97.4311C167.66 97.448 167.65 97.4709 167.65 97.4947Z" fill="black"/>
<path d="M167.65 98.9499C167.649 98.9678 167.654 98.9855 167.664 99.0007C167.674 99.0159 167.688 99.0279 167.705 99.0353C167.722 99.0426 167.741 99.0449 167.759 99.0418C167.777 99.0387 167.794 99.0304 167.807 99.018C167.821 99.0055 167.83 98.9895 167.834 98.972C167.838 98.9545 167.836 98.9362 167.829 98.9196C167.822 98.903 167.81 98.8887 167.795 98.8787C167.78 98.8687 167.762 98.8633 167.743 98.8633C167.719 98.8633 167.696 98.8723 167.679 98.8884C167.661 98.9046 167.651 98.9266 167.65 98.9499Z" fill="black"/>
<path d="M167.65 100.409C167.65 100.427 167.655 100.444 167.666 100.459C167.676 100.474 167.69 100.486 167.707 100.492C167.724 100.499 167.743 100.501 167.761 100.497C167.779 100.494 167.796 100.485 167.809 100.473C167.822 100.46 167.831 100.444 167.834 100.427C167.838 100.409 167.836 100.391 167.829 100.375C167.822 100.358 167.81 100.344 167.795 100.334C167.779 100.325 167.761 100.319 167.743 100.319C167.718 100.319 167.695 100.329 167.677 100.346C167.66 100.363 167.65 100.385 167.65 100.409Z" fill="black"/>
<path d="M167.65 101.867C167.65 101.885 167.655 101.902 167.666 101.917C167.676 101.932 167.69 101.944 167.707 101.95C167.724 101.957 167.743 101.959 167.761 101.955C167.779 101.952 167.796 101.943 167.809 101.931C167.822 101.918 167.831 101.902 167.834 101.885C167.838 101.867 167.836 101.849 167.829 101.833C167.822 101.816 167.81 101.802 167.795 101.792C167.779 101.783 167.761 101.777 167.743 101.777C167.718 101.777 167.695 101.787 167.677 101.804C167.66 101.821 167.65 101.843 167.65 101.867Z" fill="black"/>
</g>
<path d="M96.1436 96.439H96.8906V102.839H96.1436V96.439Z" fill="#263238"/>
<path d="M82.6046 96.439H83.3516V102.839H82.6046V96.439Z" fill="#263238"/>
<path d="M80.6495 97.0215H98.8496V97.9672H80.6495V97.0215Z" fill="#00AFB8"/>
<path opacity="0.2" d="M80.6495 97.0215H98.8496V97.9672H80.6495V97.0215Z" fill="black"/>
<path d="M80.6495 98.4775H98.8496V99.4233H80.6495V98.4775Z" fill="#00AFB8"/>
<path opacity="0.2" d="M80.6495 98.4775H98.8496V99.4233H80.6495V98.4775Z" fill="black"/>
<path d="M80.6495 99.9355H98.8496V100.881H80.6495V99.9355Z" fill="#00AFB8"/>
<path opacity="0.2" d="M80.6495 99.9355H98.8496V100.881H80.6495V99.9355Z" fill="black"/>
<path d="M80.6495 101.395H98.8496V102.34H80.6495V101.395Z" fill="#00AFB8"/>
<path opacity="0.2" d="M80.6495 101.395H98.8496V102.34H80.6495V101.395Z" fill="black"/>
<path d="M78.7861 102.839H100.449V104.248H78.7861V102.839Z" fill="#00AFB8"/>
<path opacity="0.2" d="M78.7861 102.839H100.449V104.248H78.7861V102.839Z" fill="black"/>
<path d="M98.4874 104.248H99.2344V109.013H98.4874V104.248Z" fill="#263238"/>
<path d="M80.001 104.248H80.748V109.013H80.001V104.248Z" fill="#263238"/>
<g opacity="0.2">
<path d="M96.4274 97.4947C96.4274 97.5125 96.4328 97.5299 96.4431 97.5447C96.4533 97.5594 96.4678 97.571 96.4848 97.5778C96.5018 97.5846 96.5204 97.5864 96.5385 97.5829C96.5565 97.5794 96.5731 97.5709 96.5861 97.5583C96.5991 97.5457 96.6079 97.5297 96.6115 97.5122C96.6151 97.4948 96.6132 97.4767 96.6062 97.4603C96.5992 97.4439 96.5873 97.4298 96.572 97.4199C96.5567 97.4101 96.5387 97.4048 96.5203 97.4048C96.4957 97.4048 96.472 97.4143 96.4546 97.4311C96.4372 97.448 96.4274 97.4709 96.4274 97.4947Z" fill="black"/>
<path d="M96.4275 98.9499C96.4268 98.9678 96.4316 98.9855 96.4414 99.0007C96.4512 99.0159 96.4655 99.0279 96.4824 99.0353C96.4993 99.0426 96.5181 99.0449 96.5363 99.0418C96.5546 99.0387 96.5715 99.0304 96.5848 99.018C96.5981 99.0055 96.6074 98.9895 96.6112 98.972C96.6151 98.9545 96.6135 98.9362 96.6066 98.9196C96.5996 98.903 96.5877 98.8887 96.5724 98.8787C96.557 98.8687 96.5389 98.8633 96.5204 98.8633C96.4963 98.8633 96.4732 98.8723 96.4559 98.8884C96.4385 98.9046 96.4283 98.9266 96.4275 98.9499Z" fill="black"/>
<path d="M96.4274 100.409C96.4274 100.427 96.4328 100.444 96.4431 100.459C96.4533 100.474 96.4678 100.486 96.4848 100.492C96.5018 100.499 96.5204 100.501 96.5385 100.497C96.5565 100.494 96.5731 100.485 96.5861 100.473C96.5991 100.46 96.6079 100.444 96.6115 100.427C96.6151 100.409 96.6132 100.391 96.6062 100.375C96.5992 100.358 96.5873 100.344 96.572 100.334C96.5567 100.325 96.5387 100.319 96.5203 100.319C96.4957 100.319 96.472 100.329 96.4546 100.346C96.4372 100.363 96.4274 100.385 96.4274 100.409Z" fill="black"/>
<path d="M96.4274 101.867C96.4274 101.885 96.4328 101.902 96.4431 101.917C96.4533 101.932 96.4678 101.944 96.4848 101.95C96.5018 101.957 96.5204 101.959 96.5385 101.955C96.5565 101.952 96.5731 101.943 96.5861 101.931C96.5991 101.918 96.6079 101.902 96.6115 101.885C96.6151 101.867 96.6132 101.849 96.6062 101.833C96.5992 101.816 96.5873 101.802 96.572 101.792C96.5567 101.783 96.5387 101.777 96.5203 101.777C96.4957 101.777 96.472 101.787 96.4546 101.804C96.4372 101.821 96.4274 101.843 96.4274 101.867Z" fill="black"/>
<path d="M82.8844 97.4947C82.8844 97.5125 82.8899 97.5299 82.9001 97.5447C82.9103 97.5594 82.9248 97.571 82.9418 97.5778C82.9588 97.5846 82.9775 97.5864 82.9955 97.5829C83.0135 97.5794 83.0301 97.5709 83.0431 97.5583C83.0561 97.5457 83.0649 97.5297 83.0685 97.5122C83.0721 97.4948 83.0703 97.4767 83.0632 97.4603C83.0562 97.4439 83.0443 97.4298 83.029 97.4199C83.0137 97.4101 82.9958 97.4048 82.9774 97.4048C82.9527 97.4048 82.9291 97.4143 82.9116 97.4311C82.8942 97.448 82.8844 97.4709 82.8844 97.4947Z" fill="black"/>
<path d="M82.8845 98.9499C82.8838 98.9678 82.8887 98.9855 82.8984 99.0007C82.9082 99.0159 82.9225 99.0279 82.9394 99.0353C82.9563 99.0426 82.9751 99.0449 82.9934 99.0418C83.0116 99.0387 83.0285 99.0304 83.0418 99.018C83.0552 99.0055 83.0644 98.9895 83.0683 98.972C83.0721 98.9545 83.0705 98.9362 83.0636 98.9196C83.0567 98.903 83.0448 98.8887 83.0294 98.8787C83.0141 98.8687 82.996 98.8633 82.9774 98.8633C82.9534 98.8633 82.9302 98.8723 82.9129 98.8884C82.8956 98.9046 82.8854 98.9266 82.8845 98.9499Z" fill="black"/>
<path d="M82.8844 100.409C82.8844 100.427 82.8899 100.444 82.9001 100.459C82.9103 100.474 82.9248 100.486 82.9418 100.492C82.9588 100.499 82.9775 100.501 82.9955 100.497C83.0135 100.494 83.0301 100.485 83.0431 100.473C83.0561 100.46 83.0649 100.444 83.0685 100.427C83.0721 100.409 83.0703 100.391 83.0632 100.375C83.0562 100.358 83.0443 100.344 83.029 100.334C83.0137 100.325 82.9958 100.319 82.9774 100.319C82.9527 100.319 82.9291 100.329 82.9116 100.346C82.8942 100.363 82.8844 100.385 82.8844 100.409Z" fill="black"/>
<path d="M82.8844 101.867C82.8844 101.885 82.8899 101.902 82.9001 101.917C82.9103 101.932 82.9248 101.944 82.9418 101.95C82.9588 101.957 82.9775 101.959 82.9955 101.955C83.0135 101.952 83.0301 101.943 83.0431 101.931C83.0561 101.918 83.0649 101.902 83.0685 101.885C83.0721 101.867 83.0703 101.849 83.0632 101.833C83.0562 101.816 83.0443 101.802 83.029 101.792C83.0137 101.783 82.9958 101.777 82.9774 101.777C82.9527 101.777 82.9291 101.787 82.9116 101.804C82.8942 101.821 82.8844 101.843 82.8844 101.867Z" fill="black"/>
</g>
<path d="M111.601 134.505C112.341 134.738 134.245 134.472 135.044 133.966C135.35 133.779 133.811 113.845 133.811 113.845L119.656 113.982L121.164 127.319C121.164 127.319 113.112 130.925 112.296 131.568C111.48 132.211 110.857 134.275 111.601 134.505Z" fill="#EB9481"/>
<path d="M111.601 134.505C112.341 134.738 134.245 134.472 135.044 133.966C135.185 133.883 134.934 129.604 134.624 125.015H120.902L121.164 127.319C121.164 127.319 113.112 130.922 112.293 131.568C111.473 132.214 110.857 134.276 111.601 134.505Z" fill="white"/>
<path d="M111.347 134.795C112.128 135.045 134.242 134.842 135.099 134.312C135.444 134.116 134.958 127.059 134.958 127.022H121.275V127.256C121.275 127.256 112.772 131.029 111.908 131.705C111.044 132.381 110.582 134.552 111.347 134.795Z" fill="#00AFB8"/>
<path d="M111.42 133.959C115.179 133.836 130.353 133.679 134.074 133.836C134.105 133.836 134.105 133.856 134.074 133.859C130.353 134.059 115.179 134.092 111.42 134.016C111.344 134.016 111.344 133.959 111.42 133.959Z" fill="#263238"/>
<path d="M119.923 127.436C121.399 127.156 123.214 127.359 124.353 128.368C124.398 128.408 124.353 128.468 124.291 128.455C122.874 128.025 121.412 127.745 119.933 127.619C119.911 127.616 119.89 127.606 119.875 127.59C119.859 127.574 119.85 127.553 119.849 127.532C119.848 127.51 119.854 127.488 119.868 127.471C119.881 127.453 119.901 127.441 119.923 127.436Z" fill="#263238"/>
<path d="M118.862 128.084C120.338 127.805 122.149 128.008 123.289 129.017C123.333 129.057 123.289 129.117 123.227 129.103C121.809 128.674 120.348 128.393 118.868 128.264C118.844 128.265 118.82 128.256 118.802 128.24C118.784 128.224 118.773 128.201 118.772 128.178C118.771 128.154 118.78 128.131 118.797 128.113C118.814 128.096 118.837 128.085 118.862 128.084Z" fill="#263238"/>
<path d="M117.803 128.701C119.28 128.421 121.09 128.624 122.23 129.633C122.275 129.673 122.23 129.733 122.168 129.716C120.75 129.29 119.289 129.01 117.81 128.88C117.785 128.881 117.761 128.873 117.743 128.856C117.725 128.84 117.714 128.818 117.713 128.794C117.713 128.77 117.721 128.747 117.738 128.729C117.755 128.712 117.778 128.701 117.803 128.701Z" fill="#263238"/>
<path d="M114.232 130.562C114.669 130.551 115.105 130.626 115.51 130.785C115.916 130.944 116.284 131.182 116.59 131.485C117.141 132.028 117.457 132.755 117.475 133.516C117.475 133.539 117.43 133.539 117.426 133.516C117.292 132.762 116.907 132.071 116.331 131.548C115.754 131.024 115.018 130.696 114.232 130.612C114.227 130.61 114.222 130.607 114.219 130.602C114.216 130.598 114.214 130.593 114.214 130.587C114.214 130.582 114.216 130.576 114.219 130.572C114.222 130.568 114.227 130.564 114.232 130.562Z" fill="#263238"/>
<path d="M132.625 130.416C134.391 130.416 134.395 133.08 132.625 133.08C130.856 133.08 130.856 130.416 132.625 130.416Z" fill="white"/>
<path d="M119.733 126.753H134.973C134.973 126.753 132.381 90.6346 132.47 90.175C132.625 89.4058 136.636 69.7983 137.727 65.7256C139.365 59.6215 140.643 54.8828 140.643 54.8828H127.73C127.73 54.8828 126.222 59.4983 124.326 65.5025C121.227 75.2629 118.818 88.6932 118.418 91.96C117.923 95.9161 119.733 126.753 119.733 126.753Z" fill="#455A64"/>
<path d="M120.443 124.069C122.767 124.022 122.099 124.002 124.423 123.982C125.559 123.982 133.029 123.909 134.096 124.079C134.116 124.079 134.116 124.119 134.096 124.122C133.032 124.292 125.559 124.232 124.423 124.218C122.099 124.198 122.767 124.179 120.443 124.132C120.438 124.134 120.433 124.134 120.427 124.133C120.422 124.132 120.417 124.13 120.412 124.127C120.408 124.124 120.404 124.12 120.402 124.115C120.399 124.111 120.398 124.106 120.398 124.1C120.398 124.095 120.399 124.09 120.402 124.085C120.404 124.08 120.408 124.076 120.412 124.073C120.417 124.07 120.422 124.068 120.427 124.067C120.433 124.067 120.438 124.067 120.443 124.069Z" fill="#263238"/>
<path d="M138.295 56.5811L136.247 64.843C136.247 64.843 131.61 86.2421 130.928 88.9628C130.763 89.6455 130.584 90.3248 130.457 91.0175C130.419 91.1873 130.395 91.3671 130.364 91.5403C130.364 91.6369 130.346 91.7434 130.346 91.8367L130.367 92.0964L132.484 122.823L132.622 122.953L130.684 92.0731L130.663 91.81C130.663 91.7268 130.663 91.6602 130.663 91.5836C130.694 91.4137 130.718 91.2506 130.756 91.0741C130.911 90.3947 138.295 56.5811 138.295 56.5811Z" fill="#263238"/>
<path d="M128.178 54.8857L133.097 87.1243C134.302 81.28 136.883 68.8721 137.727 65.7285C139.365 59.6245 140.643 54.8857 140.643 54.8857H128.178Z" fill="#263238"/>
<path d="M157.441 134.412C156.694 134.638 138.297 134.718 137.499 134.202C137.192 134.012 137.086 131.009 137.062 127.379V127.266C137.062 126.52 135.278 113.945 135.278 113.945L149.175 114.222L150.783 127.419V127.645C150.783 127.645 155.974 130.792 156.79 131.448C157.606 132.104 158.191 134.176 157.441 134.412Z" fill="#EB9481"/>
<path d="M136.817 125.015C136.972 126.217 137.076 127.076 137.076 127.252V127.369C137.1 130.999 137.206 133.996 137.513 134.189C138.311 134.705 156.708 134.625 157.458 134.402C158.209 134.179 157.599 132.094 156.79 131.442C155.981 130.789 150.787 127.639 150.787 127.639V127.412L150.494 125.015H136.817Z" fill="white"/>
<path d="M158.352 134.795C157.571 135.045 137.787 134.842 136.944 134.312C136.62 134.116 137.088 127.059 137.085 127.022H150.768V127.256C150.768 127.256 156.937 131.029 157.801 131.705C158.665 132.381 159.133 134.552 158.352 134.795Z" fill="#00AFB8"/>
<path d="M158.292 133.959C154.533 133.836 141.693 133.679 137.982 133.836C137.951 133.836 137.951 133.856 137.982 133.859C141.707 134.059 154.547 134.092 158.292 134.016C158.371 134.016 158.371 133.959 158.292 133.959Z" fill="#263238"/>
<path d="M149.655 127.466C147.782 126.966 145.448 126.97 143.927 127.965C143.868 128.002 143.927 128.079 144.002 128.069C145.862 127.761 147.748 127.627 149.634 127.669C149.775 127.672 149.789 127.502 149.655 127.466Z" fill="#263238"/>
<path d="M150.976 128.311C149.104 127.812 146.77 127.815 145.248 128.811C145.19 128.848 145.248 128.924 145.324 128.914C147.183 128.605 149.069 128.471 150.956 128.515C150.981 128.513 151.005 128.503 151.024 128.486C151.042 128.469 151.054 128.446 151.056 128.422C151.059 128.397 151.052 128.372 151.037 128.352C151.023 128.332 151.001 128.318 150.976 128.311Z" fill="#263238"/>
<path d="M152.31 129.157C150.438 128.658 148.104 128.658 146.582 129.657C146.524 129.693 146.582 129.77 146.658 129.76C148.517 129.451 150.403 129.317 152.29 129.36C152.315 129.359 152.339 129.349 152.358 129.332C152.376 129.315 152.388 129.292 152.39 129.267C152.393 129.243 152.386 129.218 152.371 129.198C152.357 129.178 152.335 129.163 152.31 129.157Z" fill="#263238"/>
<path d="M156.609 131.415C155.978 131.094 155.284 130.903 154.573 130.856C153.862 130.809 153.148 130.907 152.478 131.142C151.387 131.555 150.24 132.321 149.696 133.49C149.696 133.523 149.744 133.553 149.765 133.523C151.194 131.525 154.199 130.576 156.554 131.485C156.619 131.508 156.653 131.445 156.609 131.415Z" fill="#263238"/>
<path d="M138.301 129.72C136.924 129.72 136.924 132.384 138.301 132.384C139.678 132.384 139.689 129.72 138.301 129.72Z" fill="white"/>
<path d="M128.039 54.8857C128.039 54.8857 129.732 66.4045 129.867 66.7775C129.867 66.7775 130.858 67.1371 132.17 67.7232L135.805 126.696L151.113 126.756L144.734 54.8857H128.039Z" fill="#455A64"/>
<path d="M136.33 124.059C138.667 124.022 137.996 124.002 140.337 123.989C141.479 123.989 149.005 123.952 150.072 124.126C150.096 124.126 150.096 124.169 150.072 124.172C149.001 124.339 141.466 124.245 140.337 124.229C137.996 124.199 138.667 124.182 136.33 124.126C136.321 124.126 136.312 124.122 136.305 124.116C136.299 124.11 136.295 124.101 136.295 124.092C136.295 124.083 136.299 124.075 136.305 124.069C136.312 124.063 136.321 124.059 136.33 124.059Z" fill="#263238"/>
<path d="M129.61 66.6881C131.052 67.1955 132.446 67.8239 133.775 68.5663C133.785 68.5725 133.792 68.5819 133.795 68.5928C133.798 68.6036 133.797 68.6152 133.792 68.6253C133.787 68.6354 133.778 68.6435 133.768 68.6479C133.757 68.6524 133.745 68.653 133.734 68.6495C132.333 68.0668 130.901 67.5073 129.534 66.8513C129.514 66.8401 129.499 66.8223 129.492 66.8011C129.485 66.7799 129.487 66.757 129.496 66.7367C129.506 66.7164 129.522 66.7002 129.543 66.6912C129.564 66.6823 129.588 66.6812 129.61 66.6881Z" fill="#263238"/>
<path d="M129.165 57.3767C129.165 57.3301 129.251 57.3201 129.251 57.3767C129.252 58.8914 129.331 60.4052 129.488 61.9123C129.554 62.6116 130.132 66.4745 131.385 66.1914C131.595 66.1448 131.702 65.945 131.729 65.6386C131.724 65.2385 131.668 64.8405 131.564 64.4531C131.423 63.6472 131.313 62.8347 131.241 62.0188C131.094 60.4983 131.112 58.9671 131.292 57.45C131.295 57.4417 131.3 57.4345 131.307 57.4293C131.314 57.4242 131.323 57.4214 131.332 57.4214C131.341 57.4214 131.349 57.4242 131.357 57.4293C131.364 57.4345 131.369 57.4417 131.371 57.45C131.335 59.5586 131.463 61.667 131.754 63.7571C131.912 64.7562 132.442 66.2747 131.347 66.4212C130.253 66.5677 129.526 64.0469 129.389 63.3542C129.048 61.3794 128.973 59.3702 129.165 57.3767Z" fill="#263238"/>
<path d="M131.354 66.2887C131.466 66.5497 131.559 66.8179 131.633 67.0913C131.717 67.3038 131.758 67.5299 131.754 67.7573C131.751 67.7662 131.746 67.7743 131.74 67.7807C131.733 67.7872 131.724 67.7917 131.715 67.7937C131.706 67.7958 131.696 67.7954 131.687 67.7925C131.678 67.7896 131.67 67.7843 131.664 67.7773C131.535 67.5781 131.438 67.3615 131.375 67.1346C131.279 66.8882 131.179 66.6417 131.089 66.392C131.082 66.3751 131.079 66.3571 131.079 66.339C131.079 66.3208 131.083 66.3029 131.09 66.2862C131.098 66.2695 131.108 66.2544 131.122 66.2417C131.135 66.229 131.151 66.2189 131.168 66.2122C131.186 66.2054 131.204 66.202 131.223 66.2022C131.242 66.2023 131.261 66.2061 131.278 66.2132C131.295 66.2203 131.311 66.2306 131.324 66.2436C131.337 66.2566 131.347 66.2719 131.354 66.2887Z" fill="#263238"/>
<path d="M132.486 69.2021L133.305 75.9789L134.162 82.7489L137.219 122.717H137.408L134.41 82.719L133.463 75.9589L132.486 69.2021Z" fill="#263238"/>
<path d="M143.772 64.9863C142.591 64.8697 141.362 64.8863 140.275 64.3735C139.187 63.8607 138.45 62.8317 137.865 61.8027C137.515 61.1667 137.251 60.4895 137.08 59.788C137.08 59.7547 137.021 59.7647 137.021 59.788C137.066 60.4442 137.229 61.0877 137.503 61.6895C137.752 62.2834 138.068 62.8486 138.447 63.3745C138.797 63.875 139.258 64.2936 139.796 64.6C140.346 64.8859 140.95 65.0625 141.572 65.1195C142.3 65.1977 143.034 65.1977 143.762 65.1195C143.771 65.1201 143.78 65.119 143.788 65.1163C143.797 65.1136 143.805 65.1092 143.812 65.1035C143.819 65.0978 143.824 65.0908 143.829 65.083C143.833 65.0751 143.835 65.0666 143.836 65.0579C143.836 65.0491 143.835 65.0403 143.832 65.032C143.83 65.0237 143.825 65.0159 143.819 65.0093C143.813 65.0026 143.806 64.9972 143.798 64.9932C143.79 64.9893 143.781 64.9869 143.772 64.9863Z" fill="#263238"/>
<path d="M113.135 56.9741C112.791 58.2096 112.319 59.4184 111.892 60.6372C111.465 61.856 111.035 63.0715 110.639 64.3003C110.232 65.5294 109.904 66.7817 109.658 68.05C109.561 68.6927 109.521 69.3421 109.537 69.9914C109.537 70.6341 109.562 71.2802 109.596 71.9229C109.741 74.5004 110.109 77.0512 110.436 79.602C110.601 80.8775 110.763 82.1529 110.89 83.4283C111.031 84.7001 111.087 85.9792 111.059 87.2579C110.976 89.8087 109.926 92.233 108.594 94.4276C107.262 96.6221 105.61 98.6601 104.092 100.775C103.306 101.82 102.615 102.929 102.026 104.088C101.738 104.676 101.525 105.295 101.393 105.933C101.255 106.566 101.131 107.198 101.048 107.838C100.671 110.386 100.5 112.959 100.536 115.534C100.558 112.967 100.789 110.406 101.224 107.874C101.465 106.616 101.651 105.33 102.257 104.191C102.857 103.051 103.556 101.961 104.346 100.935C105.895 98.8533 107.544 96.8219 108.904 94.6074C109.598 93.4982 110.182 92.3273 110.646 91.1108C111.112 89.8869 111.382 88.6009 111.445 87.2979C111.469 86.0044 111.407 84.7107 111.259 83.425C111.124 82.1429 110.959 80.8675 110.787 79.5921C110.443 77.0412 110.099 74.4937 109.902 71.9329C109.858 71.2935 109.83 70.6508 109.82 70.0114C109.795 69.375 109.827 68.7376 109.916 68.1066C110.143 66.8435 110.452 65.5955 110.842 64.3702C111.21 63.1348 111.61 61.9093 112.016 60.6872C112.422 59.465 112.804 58.2196 113.135 56.9741Z" fill="#263238"/>
<path d="M173.193 127.081L175.543 129.884L174.514 130.692L172.163 127.888L173.193 127.081Z" fill="#00AFB8"/>
<path d="M164.286 145.95C158.719 145.95 154.206 141.585 154.206 136.2C154.206 130.815 158.719 126.449 164.286 126.449C169.853 126.449 174.365 130.815 174.365 136.2C174.365 141.585 169.853 145.95 164.286 145.95Z" fill="#263238"/>
<path d="M164.285 143.336C160.211 143.336 156.908 140.141 156.908 136.2C156.908 132.259 160.211 129.063 164.285 129.063C168.359 129.063 171.662 132.259 171.662 136.2C171.662 140.141 168.359 143.336 164.285 143.336Z" fill="#455A64"/>
<path d="M174.635 136.334H176.012C176.012 129.837 170.938 124.938 164.208 124.938C159.798 124.938 156.362 126.953 153.997 130.932L155.192 131.598C157.292 128.068 160.328 126.27 164.208 126.27C170.249 126.27 174.635 130.503 174.635 136.334Z" fill="#455A64"/>
<path d="M95.7878 145.95C90.2211 145.95 85.7084 141.585 85.7084 136.2C85.7084 130.815 90.2211 126.449 95.7878 126.449C101.354 126.449 105.867 130.815 105.867 136.2C105.867 141.585 101.354 145.95 95.7878 145.95Z" fill="#263238"/>
<path d="M95.787 143.336C91.7127 143.336 88.4099 140.141 88.4099 136.2C88.4099 132.259 91.7127 129.063 95.787 129.063C99.8612 129.063 103.164 132.259 103.164 136.2C103.164 140.141 99.8612 143.336 95.787 143.336Z" fill="#455A64"/>
<path d="M106.139 136.334H107.516C107.516 129.837 102.441 124.938 95.7116 124.938C91.3018 124.938 87.8663 126.953 85.5013 130.932L86.6924 131.598C88.7957 128.068 91.832 126.27 95.7116 126.27C101.753 126.27 106.139 130.503 106.139 136.334Z" fill="#455A64"/>
<path d="M109.871 134.625H167.102V137.779H109.871V134.625Z" fill="#37474F"/>
<path d="M103.615 105.022L115.256 64.6338L116.592 64.9942L104.951 105.383L103.615 105.022Z" fill="#455A64"/>
<path d="M116.635 61.8405L113.664 56.8628L114.865 56.1918L117.836 61.1695L116.635 61.8405Z" fill="#37474F"/>
<path d="M96.8024 125.268L103.102 103.414L106.242 104.261L99.9426 126.115L96.8024 125.268Z" fill="#37474F"/>
<path d="M98.0278 124.134L100.988 113.863L102.464 114.261L99.5034 124.532L98.0278 124.134Z" fill="#00AFB8"/>
<path d="M114.256 66.0682L115.85 60.5381L118.227 61.1794L116.633 66.7095L114.256 66.0682Z" fill="#37474F"/>
<path d="M100.714 121.934L110.115 133.19H114.752L102.208 118.098L100.714 121.934Z" fill="#37474F"/>
<path d="M109.868 133.189H118.615V134.625H109.868V133.189Z" fill="#37474F"/>
<path d="M111.121 55.8221C111.121 56.2074 111.239 56.5841 111.46 56.9044C111.681 57.2248 111.996 57.4745 112.364 57.6219C112.732 57.7694 113.137 57.808 113.527 57.7328C113.918 57.6576 114.277 57.4721 114.559 57.1996C114.84 56.9272 115.032 56.5801 115.11 56.2022C115.187 55.8243 115.148 55.4326 114.995 55.0766C114.843 54.7207 114.585 54.4164 114.253 54.2023C113.922 53.9883 113.533 53.874 113.135 53.874C112.87 53.874 112.608 53.9244 112.364 54.0223C112.12 54.1202 111.898 54.2637 111.711 54.4446C111.524 54.6255 111.375 54.8403 111.274 55.0766C111.173 55.313 111.121 55.5663 111.121 55.8221Z" fill="#37474F"/>
<path d="M111.951 55.8223C111.95 56.0498 112.019 56.2724 112.15 56.4618C112.28 56.6513 112.465 56.7991 112.682 56.8864C112.9 56.9738 113.139 56.9968 113.369 56.9526C113.6 56.9084 113.812 56.7989 113.978 56.638C114.145 56.4771 114.258 56.2721 114.304 56.049C114.349 55.8258 114.325 55.5945 114.235 55.3844C114.145 55.1744 113.992 54.995 113.796 54.869C113.6 54.743 113.37 54.6761 113.135 54.6768C112.821 54.6776 112.521 54.7986 112.299 55.0133C112.077 55.2279 111.952 55.5188 111.951 55.8223Z" fill="#00AFB8"/>
<path d="M154.325 135.544H165.592V136.859H154.325V135.544Z" fill="#00AFB8"/>
<path d="M197.484 130.968C195.928 130.902 194.386 130.868 192.81 130.842C191.233 130.815 189.694 130.818 188.135 130.802C186.575 130.785 185.037 130.802 183.46 130.842L181.123 130.888C180.345 130.915 179.567 130.932 178.785 130.968C179.567 131.008 180.345 131.025 181.123 131.052L183.46 131.098C185.019 131.125 186.579 131.122 188.135 131.135C189.691 131.148 191.254 131.135 192.81 131.098C194.366 131.062 195.928 131.038 197.484 130.968Z" fill="#263238"/>
<path d="M190.02 128.834C188.935 128.764 187.851 128.731 186.766 128.704C185.682 128.677 184.601 128.671 183.517 128.668C182.432 128.664 181.348 128.667 180.264 128.704L178.639 128.751C178.095 128.781 177.555 128.794 177.014 128.834C177.555 128.871 178.095 128.887 178.639 128.914L180.264 128.961C181.348 128.991 182.432 128.997 183.517 129.001C184.601 129.004 185.682 129.001 186.766 128.961C187.851 128.921 188.935 128.901 190.02 128.834Z" fill="#263238"/>
<path d="M188.205 133.136C187.265 133.066 186.322 133.033 185.382 133.006C184.443 132.98 183.499 132.973 182.56 132.97C181.62 132.966 180.677 132.97 179.737 133.006L178.322 133.053C177.854 133.08 177.382 133.096 176.91 133.136C177.382 133.173 177.854 133.19 178.322 133.216L179.737 133.263C180.677 133.293 181.616 133.296 182.56 133.299C183.503 133.303 184.443 133.299 185.382 133.263C186.322 133.226 187.265 133.203 188.205 133.136Z" fill="#263238"/>
<path d="M194.098 133.136C193.485 133.016 192.86 132.961 192.235 132.97C191.61 132.961 190.986 133.017 190.373 133.136C191.604 133.354 192.866 133.354 194.098 133.136Z" fill="#263238"/>
<path d="M134.71 38.2553C132.442 44.3161 126.011 53.0675 123.395 53.334C122.149 53.4605 119.953 53.9467 118.183 52.7079C114.328 50.0005 110.796 44.4826 109.873 41.2258C109.529 40.0669 115.226 36.9932 116.19 37.8724C118.452 39.937 121.247 44.1296 121.609 44.073C122.941 43.8532 128.373 39.0779 131.86 36.1041C136.239 32.3811 135.616 35.841 134.71 38.2553Z" fill="#EB9481"/>
<path d="M106.823 40.3334C107.742 41.8319 110.867 44.1796 111.845 44.466C112.823 44.7524 117.133 39.7473 116.905 38.7549C116.678 37.7626 113.167 32.9539 111.446 32.3312C109.725 31.7085 105.866 38.7816 106.823 40.3334Z" fill="#EB9481"/>
<path d="M116.453 37.8396C116.228 36.447 116.214 35.0302 116.411 33.6337C116.707 31.9686 117.341 29.5543 116.411 29.3678C114.535 28.9816 112.969 35.029 112.969 35.029C112.969 35.029 112.718 37.8063 114.542 38.3591C114.879 38.452 115.236 38.4526 115.573 38.3609C115.911 38.2692 116.215 38.0887 116.453 37.8396Z" fill="#EB9481"/>
<path d="M113.896 33.8064C113.896 34.7288 112.767 34.1927 112.767 34.1927C112.767 34.1927 114.189 35.3416 113.8 36.2906C113.411 37.2397 112.079 36.5104 111.996 36.4638C112.072 36.5238 113.349 37.6127 112.857 38.5285C112.365 39.4442 111.136 38.5584 111.056 38.5018C111.108 38.5784 111.772 39.6407 111.235 40.2534C110.316 41.3091 108.537 38.6417 107.397 38.4519C107.397 38.4519 106.846 40.2834 106.819 40.3334C106.819 40.3334 105.07 37.8291 105.421 36.3573C105.469 36.1427 105.591 35.9503 105.767 35.8117C105.942 35.6731 106.162 35.5966 106.389 35.5947C106.389 35.5947 105.734 34.8487 106.096 34.1161C106.285 33.7398 107.074 33.6965 107.074 33.6965C106.934 33.5199 106.848 33.3096 106.825 33.0887C106.801 32.8678 106.841 32.6449 106.939 32.4444C107.229 31.9382 107.972 31.9715 107.972 31.9715C107.972 31.9715 107.779 31.1623 108.247 30.7394C109.198 29.8836 113.907 31.845 113.896 33.8064Z" fill="#EB9481"/>
<path d="M108.095 31.9624C108.078 31.9624 108.095 31.9325 108.095 31.9358C109.875 32.2148 111.526 33.0103 112.829 34.2169C112.866 34.2569 112.829 34.3368 112.767 34.3002C111.335 33.3064 109.761 32.5189 108.095 31.9624Z" fill="#263238"/>
<path d="M107.054 33.6766C107.037 33.6766 107.054 33.64 107.054 33.6433C109.012 33.9688 110.785 34.961 112.053 36.4406C112.097 36.4938 112.08 36.5837 112.025 36.5271C111.13 35.5614 108.627 34.1761 107.054 33.6766Z" fill="#263238"/>
<path d="M111.105 38.6383C109.852 37.2031 108.248 36.3073 106.465 35.6013C106.441 35.6013 106.465 35.5613 106.465 35.5647C107.432 35.6745 108.53 36.2307 109.333 36.7402C110.093 37.195 110.717 37.8345 111.143 38.595C111.174 38.625 111.133 38.6683 111.105 38.6383Z" fill="#263238"/>
<path d="M112.796 34.1763C112.844 34.2262 112.72 34.2429 112.768 34.2895C112.964 34.496 114.038 35.828 113.68 36.3208C113.395 36.7171 112.648 36.6206 112.376 36.474L111.687 36.1044L112.197 36.6805C112.426 36.9337 112.611 37.2217 112.744 37.533C112.814 37.6735 112.853 37.8269 112.858 37.983C112.863 38.1392 112.833 38.2945 112.772 38.4388C112.717 38.5791 112.612 38.6962 112.477 38.7693C112.341 38.8425 112.184 38.8669 112.031 38.8384C111.703 38.7696 111.398 38.6205 111.147 38.4055L110.431 37.836L110.913 38.5986C111.046 38.807 111.153 39.0307 111.229 39.2646C111.308 39.4879 111.318 39.7288 111.257 39.9573C111.225 40.0584 111.164 40.149 111.082 40.2189C111 40.2889 110.9 40.3355 110.792 40.3536C110.544 40.3582 110.299 40.2947 110.086 40.1704C109.625 39.9049 109.185 39.6054 108.771 39.2746C108.555 39.1148 108.341 38.9416 108.117 38.8051C107.9 38.6454 107.65 38.532 107.384 38.4721C107.639 38.5614 107.873 38.6983 108.073 38.875C108.283 39.0415 108.486 39.208 108.685 39.3912C109.085 39.7563 109.52 40.0841 109.983 40.3702C110.23 40.5319 110.521 40.6188 110.82 40.62C110.982 40.6036 111.135 40.5421 111.262 40.4427C111.388 40.3434 111.482 40.2106 111.532 40.0605C111.62 39.7805 111.62 39.4814 111.532 39.2014C111.451 38.9341 111.336 38.6778 111.188 38.4388L110.954 38.6319C111.245 38.8902 111.601 39.0705 111.987 39.1547C112.203 39.1943 112.427 39.1601 112.62 39.0582C112.806 38.9514 112.956 38.7939 113.05 38.6053C113.129 38.4223 113.166 38.2253 113.16 38.0273C113.154 37.8293 113.105 37.6347 113.016 37.4564C112.864 37.1164 112.656 36.8025 112.4 36.5273L112.228 36.7371C112.572 36.9103 113.401 37.1067 113.925 36.5473C114.503 35.6981 113.064 34.406 112.796 34.1763Z" fill="#263238"/>
<path d="M112.766 34.1927C112.956 34.242 113.152 34.2633 113.348 34.2559C113.427 34.2546 113.505 34.2329 113.572 34.1931C113.64 34.1534 113.696 34.0969 113.734 34.0295C113.792 33.8702 113.803 33.6982 113.765 33.5333C113.73 33.3502 113.689 33.1603 113.634 32.9639C113.785 33.1116 113.903 33.2886 113.978 33.4834C114.023 33.5889 114.047 33.7021 114.047 33.8164C114.047 33.9307 114.023 34.0439 113.978 34.1494C113.918 34.2606 113.825 34.3513 113.71 34.4091C113.602 34.4564 113.483 34.4748 113.365 34.4624C113.14 34.4384 112.93 34.3436 112.766 34.1927Z" fill="#263238"/>
<path d="M126.446 40.1307L131.072 46.3979C131.072 46.3979 135.021 38.8386 135.547 36.2978C136.126 33.4406 134.487 33.7802 132.105 35.2988C129.723 36.8173 126.446 40.1307 126.446 40.1307Z" fill="#00AFB8"/>
<path d="M127.662 39.5273C127.855 39.7205 129.314 41.6652 129.621 42.0915C129.927 42.5177 131.204 44.2627 131.483 44.7289C131.485 44.7329 131.485 44.7372 131.484 44.7412C131.482 44.7453 131.48 44.7488 131.476 44.7514C131.473 44.754 131.469 44.7555 131.464 44.7556C131.46 44.7558 131.456 44.7546 131.452 44.7522C131.087 44.3459 129.796 42.5943 129.473 42.1647C129.149 41.7352 127.752 39.7804 127.628 39.5473C127.617 39.5273 127.648 39.504 127.662 39.5273Z" fill="#263238"/>
<path opacity="0.1" d="M127.092 41.0061L131.072 46.3975C131.072 46.3975 135.02 38.8382 135.547 36.2974C135.891 34.5125 135.402 33.9663 134.39 34.1961C132.714 35.7413 129.471 38.755 127.092 41.0061Z" fill="black"/>
<path d="M125.137 58.6862L146.136 61.3502C146.463 61.0172 145.052 47.8068 143.351 42.6418C141.169 36.0216 139.485 35.5054 138.728 34.8328C137.33 33.5873 134.294 33.897 133.788 34.1667C132.89 34.6596 131.258 37.0706 130.239 39.2951C128.184 43.7707 124.879 58.3598 125.137 58.6862Z" fill="#00AFB8"/>
<path opacity="0.1" d="M125.919 54.37L145.885 56.9641C145.84 56.5678 145.795 56.1516 145.744 55.722L126.198 53.1812L125.919 54.37ZM125.671 55.5089L145.981 58.1496C146.026 58.5992 146.06 59.0155 146.088 59.3851L125.433 56.6977C125.495 56.3414 125.578 55.9418 125.671 55.5089Z" fill="black"/>
<path d="M133.881 38.0597C135.027 38.4127 137.162 36.8409 138.064 35.5089C138.125 35.4156 138.064 34.3933 138.026 33.1478C138.026 32.3919 138.026 31.5494 138.074 30.7835C138.074 30.6236 133.003 31.5894 133.003 31.5894C133.212 32.5749 133.297 33.5813 133.254 34.5864C133.244 34.6924 133.223 34.7972 133.193 34.8995C133.194 34.9172 133.194 34.935 133.193 34.9528C133.031 35.5089 132.773 37.7167 133.881 38.0597Z" fill="#EB9481"/>
<path d="M137.768 30.7627C137.423 32.0448 136.353 35.1218 133.692 34.9852C133.522 34.9778 133.352 34.9566 133.186 34.922C133.183 34.9043 133.183 34.8864 133.186 34.8687C133.215 34.7674 133.234 34.6637 133.244 34.559C133.288 33.5538 133.204 32.5472 132.993 31.5619C132.993 31.5619 136.669 30.8759 137.768 30.7627Z" fill="#263238"/>
<path d="M138.539 24.8985C139.08 26.6101 138.14 31.5586 136.88 32.6609C135.056 34.2593 132.061 34.4125 130.66 32.2879C129.3 30.2299 130.639 23.7995 132.037 22.7972C134.133 21.322 137.754 22.3676 138.539 24.8985Z" fill="#EB9481"/>
<path d="M134.124 28.0723C134.124 28.0723 134.148 28.0922 134.145 28.1056C134.076 28.4386 134.055 28.8282 134.348 28.9914C133.969 28.8948 134.003 28.3753 134.124 28.0723Z" fill="#263238"/>
<path d="M134.489 27.7726C135.05 27.8192 134.909 28.9048 134.389 28.8615C133.87 28.8182 134.018 27.7326 134.489 27.7726Z" fill="#263238"/>
<path d="M132.092 27.8496C132.092 27.8496 132.064 27.8496 132.061 27.8763C132.03 28.2093 131.934 28.5955 131.603 28.6688C131.999 28.6688 132.119 28.1593 132.092 27.8496Z" fill="#263238"/>
<path d="M131.831 27.4463C131.276 27.3364 131.091 28.4154 131.603 28.5186C132.116 28.6218 132.292 27.5396 131.831 27.4463Z" fill="#263238"/>
<path d="M134.997 27.3298C134.849 27.2732 134.721 27.1999 134.58 27.13C134.424 27.0784 134.29 26.979 134.198 26.847C134.178 26.7997 134.174 26.7474 134.188 26.6981C134.202 26.6487 134.232 26.6051 134.274 26.5739C134.364 26.5217 134.468 26.4941 134.573 26.4941C134.679 26.4941 134.782 26.5217 134.873 26.5739C135.073 26.654 135.235 26.8053 135.324 26.9968C135.423 27.2033 135.193 27.4031 134.997 27.3298Z" fill="#263238"/>
<path d="M131.466 26.85C131.624 26.85 131.772 26.8134 131.927 26.7934C132.092 26.7949 132.253 26.7434 132.385 26.6469C132.421 26.6094 132.442 26.5616 132.446 26.511C132.451 26.4604 132.438 26.4098 132.409 26.3672C132.339 26.2906 132.249 26.2335 132.149 26.2019C132.048 26.1703 131.941 26.1653 131.838 26.1873C131.621 26.2009 131.417 26.2923 131.266 26.4438C131.234 26.4799 131.214 26.5243 131.208 26.5714C131.201 26.6186 131.209 26.6665 131.23 26.7095C131.251 26.7524 131.285 26.7886 131.327 26.8135C131.368 26.8384 131.417 26.8511 131.466 26.85Z" fill="#263238"/>
<path d="M133.721 30.1571C133.615 30.2796 133.485 30.3795 133.337 30.4506C133.189 30.5217 133.028 30.5624 132.864 30.5701C132.72 30.5789 132.577 30.5676 132.437 30.5368H132.358L132.282 30.5135C132.263 30.5088 132.247 30.4977 132.237 30.4824C132.226 30.4671 132.221 30.4486 132.223 30.4302C132.222 30.418 132.222 30.4057 132.223 30.3936V30.3636C132.251 30.1039 132.327 29.6976 132.327 29.6976C132.223 29.7309 131.697 29.8874 131.724 29.7542C131.907 28.5907 132.212 27.4482 132.633 26.3442C132.635 26.3375 132.64 26.3317 132.646 26.3276C132.651 26.3235 132.658 26.3213 132.666 26.3213C132.673 26.3213 132.68 26.3235 132.686 26.3276C132.692 26.3317 132.696 26.3375 132.698 26.3442C132.533 27.4198 132.175 28.4621 132.01 29.5377C132.199 29.4813 132.394 29.45 132.592 29.4445C132.63 29.4445 132.426 30.1938 132.426 30.3137C132.643 30.3616 132.868 30.3668 133.086 30.3291C133.305 30.2913 133.514 30.2113 133.7 30.0939C133.721 30.1072 133.748 30.1338 133.721 30.1571Z" fill="#263238"/>
<path d="M132.612 30.4432C132.742 30.6419 132.923 30.8039 133.139 30.9128C133.258 30.9693 133.393 30.9879 133.524 30.966C133.807 30.9194 133.838 30.6697 133.803 30.4565C133.784 30.3424 133.752 30.2307 133.707 30.1235C133.386 30.34 133.003 30.452 132.612 30.4432Z" fill="#263238"/>
<path d="M133.139 30.9132C133.258 30.9697 133.393 30.9884 133.524 30.9665C133.807 30.9199 133.838 30.6701 133.803 30.457C133.655 30.4491 133.509 30.49 133.389 30.5728C133.268 30.6557 133.18 30.7757 133.139 30.9132Z" fill="#FF9BBC"/>
<path opacity="0.2" d="M138.567 28.0791C138.246 27.9026 137.692 26.8203 137.444 26.3774C137.196 25.9345 137.344 23.8499 137.406 23.2305C137.918 23.6228 138.303 24.1486 138.515 24.7457C138.763 25.445 138.756 26.7537 138.567 28.0791Z" fill="#263238"/>
<path d="M135.614 20.6961C136.057 20.7797 136.471 20.9696 136.818 21.2483C137.165 21.527 137.434 21.8856 137.6 22.2912C137.727 22.6924 137.709 23.1234 137.549 23.5133C137.549 23.5133 137.507 23.5133 137.514 23.5133C137.607 23.1575 137.599 22.784 137.49 22.4323C137.382 22.0806 137.177 21.7638 136.898 21.5153C136.598 21.2315 136.233 21.0192 135.834 20.8955C135.434 20.7718 135.01 20.74 134.595 20.8027C134.196 20.8565 133.831 21.0453 133.562 21.3355C133.535 21.3654 133.466 21.3355 133.49 21.2988C133.858 20.7594 134.753 20.5229 135.614 20.6961Z" fill="#263238"/>
<path d="M129.561 21.6848C129.813 21.2498 130.215 20.9147 130.697 20.7391C131.365 20.4927 132.03 20.6725 132.684 20.8623C132.684 20.8623 132.684 20.8923 132.684 20.8889C132.135 20.6835 131.537 20.6384 130.962 20.7591C130.486 20.8911 130.071 21.1781 129.789 21.5716C129.516 21.9776 129.404 22.4645 129.471 22.944C129.537 23.4236 129.78 23.8641 130.153 24.1857C130.376 24.3657 130.633 24.4999 130.911 24.58C131.189 24.6602 131.48 24.6847 131.768 24.6519C131.789 24.6519 131.799 24.6819 131.768 24.6852C131.376 24.7449 130.974 24.6976 130.608 24.5485C130.242 24.3995 129.926 24.1546 129.696 23.8415C129.466 23.5284 129.331 23.1594 129.306 22.776C129.281 22.3927 129.367 22.0102 129.554 21.6715L129.561 21.6848Z" fill="#263238"/>
<path d="M138.701 26.0307C138.701 26.0307 139.951 24.5155 139.365 23.3999C139.021 22.7672 137.569 22.5774 137.569 22.5774C137.432 22.2635 137.233 21.9791 136.981 21.7407C136.73 21.5023 136.432 21.3146 136.105 21.1887C134.942 20.6992 133.352 21.1221 133.352 21.1221C133.352 21.1221 132.319 20.2729 131.124 20.6759C129.455 21.2353 129.21 23.4931 130.591 24.4822C131.562 25.1781 133.186 24.5288 133.186 24.5288C133.321 24.5721 134.584 25.661 135.902 24.6254C135.902 24.6254 136.632 25.5378 137.52 25.1515C137.599 25.3981 137.755 25.6151 137.966 25.7725C138.178 25.9299 138.434 26.0201 138.701 26.0307Z" fill="#263238"/>
<path d="M132.185 28.1021C132.298 27.2696 131.93 26.5303 131.358 26.4571C130.787 26.3838 130.233 26.9999 130.119 27.8324C130.005 28.6649 130.37 29.4042 130.942 29.4775C131.513 29.5507 132.067 28.9347 132.185 28.1021ZM131.975 28.0755C131.875 28.7948 131.424 29.3343 130.969 29.2743C130.515 29.2144 130.226 28.5817 130.326 27.859C130.425 27.1364 130.876 26.6003 131.331 26.6602C131.785 26.7202 132.074 27.3529 131.975 28.0755Z" fill="#455A64"/>
<path d="M135.898 28.6118C135.914 28.3352 135.847 28.0599 135.704 27.8199C135.56 27.5798 135.348 27.3852 135.093 27.26C134.837 27.1349 134.549 27.0844 134.265 27.115C133.98 27.1455 133.711 27.2557 133.49 27.432C133.269 27.6083 133.106 27.8432 133.02 28.1077C132.935 28.3723 132.932 28.6552 133.01 28.9217C133.088 29.1882 133.245 29.4268 133.462 29.6084C133.678 29.7899 133.945 29.9065 134.228 29.9439C134.632 29.9801 135.034 29.8603 135.347 29.6108C135.66 29.3612 135.858 29.0021 135.898 28.6118ZM135.688 28.5852C135.636 28.8172 135.515 29.0294 135.34 29.1959C135.165 29.3624 134.943 29.476 134.703 29.5228C134.462 29.5696 134.213 29.5476 133.985 29.4595C133.757 29.3713 133.56 29.2208 133.419 29.0264C133.278 28.832 133.199 28.6021 133.191 28.3648C133.183 28.1275 133.247 27.893 133.374 27.6901C133.501 27.4872 133.687 27.3246 133.909 27.2221C134.13 27.1197 134.378 27.0819 134.621 27.1133C134.963 27.1734 135.267 27.3617 135.467 27.6372C135.667 27.9127 135.746 28.2534 135.688 28.5852Z" fill="#455A64"/>
<path d="M133.081 28.1053C132.465 27.7723 132.138 27.9654 132.135 27.9688L132.052 27.7956C132.052 27.7956 132.458 27.5192 133.164 27.9221L133.081 28.1053Z" fill="#455A64"/>
<path d="M135.81 28.4656V28.2624C135.952 28.2624 138.289 28.1192 138.64 28.1459C138.991 28.1725 139.793 28.7453 139.883 28.8119L139.755 28.9751C139.42 28.7095 139.042 28.4991 138.637 28.3523C138.344 28.329 136.984 28.409 135.81 28.4656Z" fill="#455A64"/>
<path d="M137.454 28.9317C137.454 28.9317 138.645 27.3532 139.385 27.7661C140.125 28.1791 139.21 30.4835 138.321 30.7832C138.21 30.8294 138.091 30.8534 137.97 30.8537C137.849 30.854 137.729 30.8305 137.618 30.7848C137.506 30.739 137.406 30.6719 137.322 30.5875C137.238 30.5031 137.173 30.4031 137.13 30.2937L137.454 28.9317Z" fill="#EB9481"/>
<path d="M139.107 28.4219C139.107 28.4219 139.107 28.4219 139.107 28.4419C138.484 28.6716 138.147 29.2211 137.906 29.7739C137.944 29.7152 137.994 29.665 138.053 29.6267C138.113 29.5884 138.18 29.5628 138.25 29.5518C138.321 29.5407 138.393 29.5444 138.462 29.5626C138.531 29.5809 138.595 29.6131 138.65 29.6573C138.65 29.6573 138.65 29.694 138.632 29.6906C138.525 29.6541 138.408 29.6512 138.299 29.6823C138.19 29.7133 138.093 29.7768 138.023 29.8638C137.906 30.0099 137.804 30.1672 137.72 30.3333C137.693 30.3866 137.593 30.3533 137.613 30.2934C137.624 29.5341 138.261 28.4818 139.107 28.4219Z" fill="#263238"/>
<path d="M140.697 38.9517C141.331 43.6138 141.117 53.2278 139.214 56.1749C138.26 57.6502 128.845 58.2929 126.284 58.3162C125.22 58.3162 122.645 50.4039 123.747 50.3073C125.265 50.1708 133.121 49.9743 133.75 49.4248C134.38 48.8754 135.84 42.8446 136.718 38.9517C137.823 34.0432 140.16 35.0156 140.697 38.9517Z" fill="#EB9481"/>
<path d="M126.714 50.241C126.714 50.241 122.669 49.9912 120.342 49.8846C119.044 49.828 116.81 49.9179 115.836 50.2976C114.376 50.8637 108.658 54.1372 109.45 55.4925C110.162 56.7246 114.71 53.3113 114.71 53.3113C114.71 53.3113 109.808 56.3617 110.951 57.6904C112.094 59.0191 116.696 54.4901 116.696 54.4901C116.696 54.4901 111.736 57.737 113.137 58.9258C114.197 59.8216 118.603 55.9587 118.603 55.9587C118.603 55.9587 114.359 58.776 115.409 59.745C116.565 60.8173 120.868 57.4972 120.868 57.4972C123.967 59.5252 127.082 58.3963 128.631 57.7436C129.003 57.5938 126.714 50.241 126.714 50.241Z" fill="#EB9481"/>
<path d="M116.044 52.3253C113.834 53.5674 111.913 55.3224 111.273 56.1416C111.194 56.2415 111.128 56.3347 111.135 56.3281C112.168 55.4556 115.507 52.7349 116.061 52.332C116.075 52.3353 116.058 52.3187 116.044 52.3253Z" fill="#263238"/>
<path d="M117.82 54.0669C116.006 54.7695 114.295 56.4778 113.62 57.0173C113.568 57.0573 113.62 57.0706 113.665 57.0173C114.353 56.5078 117.107 54.5464 117.83 54.0669C117.844 54.0735 117.83 54.0602 117.82 54.0669Z" fill="#263238"/>
<path d="M119.215 55.6118C118.063 56.1504 117.041 56.9187 116.217 57.8663C116.172 57.9162 116.217 57.9196 116.276 57.8663C117.308 57.0571 117.945 56.5342 119.24 55.6351C119.26 55.6351 119.24 55.5985 119.215 55.6118Z" fill="#263238"/>
<path d="M128.766 50.0771C127.69 50.1837 126.606 50.1837 125.53 50.0771L122.29 49.8307C121.206 49.7774 120.118 49.7175 119.03 49.7508C117.943 49.7841 116.827 49.8474 115.836 50.3003C116.345 50.1254 116.877 50.0222 117.416 49.9939C117.954 49.9478 118.494 49.93 119.034 49.9406C120.111 49.9406 121.192 50.0039 122.273 50.0805C123.354 50.1571 124.432 50.2237 125.519 50.2736C126.06 50.2936 126.607 50.3136 127.151 50.2736C127.694 50.2483 128.233 50.1827 128.766 50.0771Z" fill="#263238"/>
<path d="M134.573 44.7229L141.895 47.75C141.895 47.75 141.206 39.3049 140.273 36.8772C139.24 34.1432 138.015 35.2588 136.796 37.763C135.578 40.2673 134.573 44.7229 134.573 44.7229Z" fill="#00AFB8"/>
<path d="M135.287 43.597C135.555 43.6669 137.845 44.596 138.34 44.8025C138.836 45.009 140.857 45.8581 141.349 46.1345C141.353 46.1361 141.356 46.1386 141.358 46.1419C141.36 46.1451 141.361 46.1489 141.361 46.1528C141.361 46.1567 141.36 46.1605 141.358 46.1638C141.356 46.167 141.353 46.1696 141.349 46.1712C140.822 46.0047 138.777 45.1721 138.251 44.9523C137.724 44.7326 135.497 43.7835 135.27 43.6436C135.249 43.617 135.266 43.5937 135.287 43.597Z" fill="#263238"/>
<path d="M135.52 45.1158C135.217 44.956 134.911 44.8028 134.601 44.6596L134.642 44.7395L135.038 43.3475L135.424 41.9489C135.675 41.0198 135.923 40.0907 136.205 39.1616C135.986 39.5936 135.795 40.0385 135.634 40.4937C135.465 40.9499 135.317 41.4128 135.179 41.8756C134.907 42.8047 134.677 43.7471 134.491 44.6996V44.7595L134.542 44.7795C134.866 44.906 135.19 45.0126 135.52 45.1158Z" fill="#263238"/>
<path d="M135.54 41.0957C135.605 40.8842 135.645 40.6664 135.66 40.4463C135.683 40.2248 135.683 40.0017 135.66 39.7803C135.569 39.985 135.515 40.2037 135.502 40.4263C135.476 40.6499 135.489 40.8762 135.54 41.0957Z" fill="#263238"/>
<path d="M141.018 47.3866C141.3 47.5332 141.586 47.663 141.868 47.8029L141.961 47.8495V47.743C141.94 47.2068 141.927 46.6707 141.882 46.1345C141.837 45.5984 141.796 45.0656 141.737 44.5294C141.679 43.9933 141.603 43.4638 141.513 42.9343C141.424 42.4048 141.328 41.8754 141.193 41.3525C141.235 41.8887 141.283 42.4215 141.334 42.9543C141.386 43.4871 141.431 44.0233 141.486 44.5561L141.637 46.1645L141.823 47.7629L141.913 47.703C141.62 47.5898 141.321 47.4965 141.018 47.3866Z" fill="#263238"/>
<path d="M141.62 41.876C141.556 42.1407 141.514 42.4103 141.496 42.6819C141.496 42.8151 141.479 42.9483 141.479 43.0848C141.479 43.2213 141.479 43.3545 141.479 43.4944C141.581 43.2385 141.641 42.9689 141.658 42.6952C141.685 42.4217 141.672 42.146 141.62 41.876Z" fill="#263238"/>
<path d="M109.905 18.5617C110.057 19.9688 110.61 21.3074 111.502 22.4281C112.395 23.5488 113.592 24.4076 114.959 24.9087C116.327 25.4098 117.812 25.5335 119.248 25.266C120.684 24.9985 122.015 24.3503 123.093 23.3937L127.041 23.9531L125.065 20.6497C125.556 19.4908 125.742 18.2321 125.606 16.9866C125.505 15.9838 125.2 15.0102 124.709 14.1219C124.217 13.2336 123.549 12.4482 122.742 11.8108C121.936 11.1735 121.007 10.6969 120.009 10.4085C119.011 10.12 117.964 10.0255 116.928 10.1303C115.892 10.2351 114.888 10.5371 113.973 11.0191C113.059 11.501 112.252 12.1532 111.599 12.9382C110.946 13.7232 110.46 14.6254 110.169 15.5928C109.879 16.5603 109.789 17.5738 109.905 18.575V18.5617Z" fill="white"/>
<path d="M109.905 18.562C110.058 19.9702 110.61 21.3103 111.499 22.4349C111.72 22.7139 111.958 22.9797 112.212 23.2308C112.476 23.4734 112.754 23.7014 113.045 23.9134C114.219 24.7668 115.614 25.291 117.076 25.4286C117.44 25.4603 117.806 25.4669 118.17 25.4486C118.538 25.4404 118.904 25.4036 119.265 25.3387C120.72 25.0803 122.072 24.4345 123.169 23.4739L123.076 23.5005L127.021 24.0866L127.307 24.1299L127.162 23.8868L125.196 20.5767V20.7066C125.659 19.6123 125.856 18.4298 125.772 17.2503C125.688 16.0707 125.325 14.9256 124.711 13.9032C124.097 12.8844 123.252 12.0135 122.239 11.3557C120.981 10.5466 119.511 10.1001 118 10.0682C116.49 10.0364 115.001 10.4204 113.707 11.1756C112.413 11.9308 111.368 13.0261 110.693 14.3338C110.018 15.6415 109.741 17.1079 109.895 18.562H109.905ZM109.905 18.562C109.78 17.4124 109.929 16.2502 110.341 15.165C110.752 14.0798 111.416 13.1005 112.281 12.3024C113.145 11.5043 114.188 10.9088 115.327 10.5617C116.467 10.2145 117.674 10.125 118.856 10.3001C120.025 10.4648 121.14 10.8862 122.115 11.5322C123.079 12.1891 123.885 13.0399 124.477 14.0264C125.06 15.0157 125.403 16.1203 125.479 17.2566C125.553 18.393 125.362 19.531 124.921 20.5867L124.894 20.6566L124.931 20.7199L126.918 24.0133L127.059 23.8135L123.107 23.2774H123.055L123.014 23.3107C121.958 24.2682 120.646 24.921 119.227 25.1955C118.875 25.2661 118.517 25.3085 118.157 25.3221C117.798 25.347 117.438 25.347 117.079 25.3221C116.357 25.2693 115.647 25.1179 114.969 24.8725C114.286 24.6339 113.644 24.2971 113.065 23.8735C112.474 23.4667 111.951 22.9735 111.516 22.4116C110.623 21.2964 110.065 19.9642 109.905 18.562Z" fill="#263238"/>
<path d="M114.1 16.5277C114.375 18.8421 115.911 19.2717 116.165 19.8911C116.304 20.2838 116.419 20.6841 116.51 21.0899H119.012C119.096 20.6892 119.203 20.2934 119.332 19.9044C119.591 19.2883 121.133 18.8654 121.419 16.551C121.604 15.0292 120.427 12.6248 117.78 12.6182C115.133 12.6115 113.938 15.0158 114.1 16.5277Z" fill="#00AFB8"/>
<path d="M116.268 21.2358H119.355V21.8186H116.268V21.2358Z" fill="#263238"/>
<path d="M116.199 21.6543L119.287 21.6621L119.286 22.2449L116.198 22.2371L116.199 21.6543Z" fill="#263238"/>
<path d="M116.268 22.5913H119.355V23.1741H116.268V22.5913Z" fill="#263238"/>
<path d="M115.248 16.7673C115.248 16.7673 115.462 17.5599 115.592 17.9961C115.73 18.4289 116.002 18.8101 116.372 19.0878C116.741 19.3655 117.19 19.5262 117.658 19.548C117.658 19.548 117.355 18.8986 117.241 18.6855C117.128 18.4723 116.687 17.7863 116.687 17.7863C117.223 18.2181 117.608 18.7997 117.789 19.4514C118.009 17.8896 116.99 16.4277 115.238 16.7607L115.248 16.7673Z" fill="white"/>
<path d="M119.974 16.5804C119.161 16.8601 118.253 17.1698 117.795 17.9124C117.833 18.0215 117.864 18.1327 117.888 18.2454C117.933 18.4485 117.96 18.6883 117.981 18.8548C118.318 18.6023 118.641 18.3322 118.948 18.0456C118.725 18.4518 118.398 18.7957 117.998 19.0446C118.004 19.2024 117.998 19.3605 117.981 19.5175C119.475 19.5175 120.342 17.8524 119.981 16.5537L119.974 16.5804Z" fill="white"/>
</svg>
