<svg width="363" height="349" viewBox="0 0 363 349" fill="none" xmlns="http://www.w3.org/2000/svg">
<path d="M97.241 87.7159L58.5399 76.3201C57.0379 75.8778 55.4525 76.7061 54.9988 78.1702L48.1153 100.382C47.6616 101.846 48.5113 103.391 50.0133 103.833L88.7144 115.229C90.2164 115.671 91.8018 114.843 92.2555 113.379L99.139 91.1676C99.5928 89.7035 98.743 88.1582 97.241 87.7159Z" stroke="#263238" stroke-width="1.00285" stroke-miterlimit="10"/>
<path d="M53.6348 81.6006L97.6288 94.597" stroke="#263238" stroke-miterlimit="10"/>
<path d="M52.2949 85.9038L96.297 98.9002" stroke="#263238" stroke-miterlimit="10"/>
<path d="M82.9071 106.948C82.7951 107.31 82.7596 107.691 82.8026 108.067C82.8456 108.443 82.9662 108.806 83.1572 109.135C82.4977 109.453 81.7391 109.515 81.0346 109.308C80.586 109.176 80.1775 108.939 79.8448 108.617C79.5122 108.295 79.2656 107.899 79.1267 107.462C78.9879 107.026 78.9609 106.563 79.0482 106.115C79.1355 105.666 79.3345 105.245 79.6276 104.888C79.9207 104.532 80.299 104.251 80.7294 104.07C81.1599 103.889 81.6292 103.814 82.0963 103.851C82.5634 103.888 83.014 104.037 83.4086 104.283C83.8033 104.53 84.1299 104.867 84.3598 105.265C84.0147 105.437 83.7084 105.674 83.4589 105.963C83.2094 106.252 83.0218 106.587 82.9071 106.948Z" stroke="#263238" stroke-miterlimit="10"/>
<path d="M88.3872 108.569C88.222 109.097 87.8998 109.566 87.4613 109.916C87.0228 110.266 86.4876 110.481 85.9236 110.535C85.3595 110.588 84.7918 110.477 84.2924 110.216C83.793 109.955 83.3842 109.556 83.1177 109.068C82.8512 108.581 82.7391 108.027 82.7955 107.477C82.8518 106.928 83.0741 106.407 83.4343 105.98C83.7945 105.554 84.2763 105.241 84.8189 105.081C85.3615 104.922 85.9404 104.923 86.4825 105.084C87.2091 105.3 87.8179 105.788 88.1751 106.442C88.5323 107.095 88.6086 107.86 88.3872 108.569Z" stroke="#263238" stroke-miterlimit="10"/>
<path d="M360.289 141.332L328.289 131.879C326.792 131.437 325.21 132.261 324.757 133.721L319.148 151.76C318.694 153.22 319.54 154.761 321.037 155.204L353.037 164.657C354.535 165.099 356.116 164.274 356.57 162.815L362.179 144.776C362.633 143.316 361.787 141.774 360.289 141.332Z" stroke="#263238" stroke-miterlimit="10"/>
<path d="M323.893 136.497L361.317 147.55" stroke="#263238" stroke-miterlimit="10"/>
<path d="M322.756 140.163L360.172 151.216" stroke="#263238" stroke-miterlimit="10"/>
<path d="M348.792 158.037C348.696 158.344 348.664 158.667 348.7 158.986C348.737 159.306 348.839 159.614 349.002 159.894C348.649 160.061 348.259 160.142 347.866 160.13C347.473 160.118 347.09 160.013 346.748 159.824C346.406 159.635 346.117 159.368 345.905 159.045C345.692 158.723 345.564 158.355 345.53 157.974C345.497 157.592 345.559 157.208 345.711 156.855C345.864 156.502 346.102 156.191 346.406 155.948C346.709 155.705 347.069 155.537 347.454 155.46C347.839 155.382 348.237 155.398 348.614 155.504C349.214 155.679 349.72 156.074 350.027 156.605C349.732 156.749 349.47 156.951 349.258 157.197C349.045 157.443 348.887 157.729 348.792 158.037Z" stroke="#263238" stroke-miterlimit="10"/>
<path d="M353.449 159.437C353.306 159.881 353.031 160.275 352.66 160.567C352.288 160.86 351.836 161.039 351.361 161.082C350.885 161.125 350.407 161.029 349.987 160.808C349.567 160.587 349.223 160.249 348.999 159.838C348.775 159.426 348.681 158.96 348.729 158.497C348.776 158.033 348.964 157.594 349.267 157.234C349.57 156.874 349.975 156.61 350.432 156.474C350.889 156.338 351.377 156.337 351.834 156.471C352.141 156.561 352.427 156.709 352.674 156.908C352.922 157.106 353.127 157.35 353.277 157.626C353.427 157.902 353.52 158.204 353.549 158.515C353.578 158.826 353.544 159.139 353.449 159.437Z" stroke="#263238" stroke-miterlimit="10"/>
<path d="M309.075 55.1471L262.359 75.9951L273.487 99.6859L320.202 78.8379L309.075 55.1471Z" stroke="#263238" stroke-miterlimit="10"/>
<path d="M316.186 75.4328L309.116 60.3831C308.456 60.6771 307.702 60.7039 307.022 60.4576C306.341 60.2114 305.788 59.7121 305.484 59.0693L267.721 75.9206C268.022 76.5644 268.05 77.2985 267.797 77.9621C267.545 78.6256 267.033 79.1646 266.373 79.4608L273.443 94.5104C273.77 94.3641 274.124 94.2822 274.484 94.2694C274.844 94.2567 275.203 94.3133 275.541 94.4361C275.878 94.5589 276.187 94.7454 276.451 94.985C276.714 95.2245 276.926 95.5124 277.075 95.8321L314.83 78.973C314.68 78.6539 314.596 78.309 314.583 77.9581C314.57 77.6073 314.628 77.2574 314.754 76.9284C314.88 76.5995 315.071 76.2981 315.317 76.0414C315.563 75.7848 315.858 75.578 316.186 75.4328Z" stroke="#263238" stroke-miterlimit="10"/>
<path d="M295.559 82.8505C298.634 80.5478 299.212 76.251 296.85 73.2533C294.487 70.2556 290.079 69.6922 287.004 71.9949C283.929 74.2976 283.351 78.5944 285.713 81.5921C288.075 84.5898 292.483 85.1532 295.559 82.8505Z" stroke="#263238" stroke-miterlimit="10"/>
<path d="M293.193 80.7353L293.718 81.8524L293.217 82.0727L292.701 80.9713C291.817 81.3463 290.826 81.4075 289.9 81.1444V80.4599C290.718 80.7012 291.596 80.6595 292.386 80.3419L291.2 77.793C289.973 78.0211 288.706 78.1942 288.1 76.904C287.665 75.9757 287.971 74.8586 289.44 74.064L288.916 72.939L289.416 72.7188L289.965 73.8595C290.691 73.5525 291.49 73.4489 292.273 73.5605V74.245C291.584 74.1479 290.88 74.2265 290.231 74.4731L291.442 77.0535C292.693 76.8096 294.024 76.5893 294.67 77.8953C295.074 78.8 294.726 79.9407 293.193 80.7353ZM290.885 77.1086L289.739 74.6462C288.746 75.189 288.528 75.9128 288.819 76.5264C289.158 77.2974 289.965 77.2659 290.877 77.1086H290.885ZM293.927 78.2178C293.572 77.4311 292.717 77.5098 291.765 77.6907L292.902 80.1217C294 79.5552 294.21 78.8393 293.919 78.2178H293.927Z" fill="#263238"/>
<path d="M51.265 163.065L15.3418 166.217L17.0233 184.429L52.9465 181.278L51.265 163.065Z" stroke="#263238" stroke-width="1.00404" stroke-miterlimit="10"/>
<path d="M50.059 177.594L49.0421 166.069C48.5362 166.111 48.034 165.955 47.6453 165.637C47.2566 165.318 47.0131 164.863 46.9679 164.37L18.0421 166.809C18.0825 167.301 17.9222 167.79 17.596 168.168C17.2697 168.547 16.8037 168.784 16.2988 168.83L17.3158 180.356C17.5665 180.334 17.8191 180.361 18.0592 180.435C18.2993 180.509 18.522 180.628 18.7147 180.786C18.9074 180.944 19.0663 181.137 19.1821 181.355C19.298 181.573 19.3686 181.811 19.39 182.055L48.3157 179.616C48.2754 179.124 48.4356 178.635 48.7619 178.257C49.0882 177.878 49.5542 177.64 50.059 177.594Z" stroke="#263238" stroke-miterlimit="10"/>
<path d="M38.0735 172.803C38.1577 173.748 37.9528 174.695 37.4846 175.526C37.0164 176.356 36.306 177.033 35.4432 177.47C34.5805 177.907 33.6041 178.085 32.6377 177.981C31.6713 177.877 30.7582 177.496 30.014 176.886C29.2698 176.276 28.7278 175.465 28.4567 174.554C28.1856 173.644 28.1975 172.676 28.4908 171.773C28.7842 170.869 29.346 170.071 30.105 169.478C30.864 168.886 31.7861 168.526 32.7548 168.445C33.3978 168.39 34.0456 168.459 34.6611 168.649C35.2766 168.838 35.8478 169.144 36.3418 169.549C36.8359 169.953 37.2432 170.449 37.5403 171.008C37.8375 171.566 38.0186 172.177 38.0735 172.803Z" stroke="#263238" stroke-miterlimit="10"/>
<path d="M33.6341 175.84L33.7067 176.698H33.3274L33.2467 175.848C32.576 175.891 31.9108 175.705 31.3662 175.321L31.5438 174.88C32.0254 175.222 32.6115 175.393 33.2064 175.368L33.0369 173.409C32.1733 173.283 31.2936 173.102 31.2129 172.119C31.1483 171.403 31.6164 170.734 32.7786 170.545L32.706 169.688H33.0853L33.1579 170.53C33.7177 170.495 34.2765 170.612 34.7721 170.868L34.6187 171.316C34.1881 171.098 33.7077 170.99 33.2225 171.002L33.392 172.976C34.2717 173.102 35.2079 173.268 35.2967 174.267C35.3451 174.998 34.8367 175.667 33.6341 175.84ZM32.9884 172.921L32.819 171.057C32.0119 171.191 31.7213 171.615 31.7617 172.087C31.802 172.559 32.3428 172.819 32.9884 172.921ZM34.7237 174.353C34.6672 173.763 34.0941 173.566 33.4243 173.504L33.5857 175.368C34.425 175.234 34.764 174.825 34.7237 174.353Z" fill="#263238"/>
<path d="M341.883 65.7641C345.761 65.7641 348.905 62.6998 348.905 58.9198C348.905 55.1398 345.761 52.0754 341.883 52.0754C338.005 52.0754 334.861 55.1398 334.861 58.9198C334.861 62.6998 338.005 65.7641 341.883 65.7641Z" stroke="#263238" stroke-miterlimit="10"/>
<path d="M342.198 62.7197V63.9469H341.617V62.7275C340.655 62.709 339.728 62.3672 338.994 61.7599L339.309 61.1462C339.951 61.6956 340.764 62.0172 341.617 62.0588V59.2503C340.407 58.9592 339.196 58.5973 339.196 57.1813C339.196 56.1585 339.955 55.2696 341.617 55.1437V53.8928H342.166V55.1122C342.958 55.1286 343.729 55.3602 344.394 55.7809L344.119 56.4103C343.534 56.0423 342.861 55.8282 342.166 55.7888V58.6209C343.401 58.912 344.708 59.2503 344.708 60.69C344.741 61.7205 343.942 62.6253 342.198 62.7197ZM341.649 58.4793V55.8124C340.52 55.9068 340.035 56.4732 340.035 57.1498C340.003 57.9601 340.746 58.259 341.617 58.4793H341.649ZM343.942 60.7293C343.942 59.8875 343.134 59.5964 342.198 59.3683V62.0588C343.401 61.9566 343.942 61.4137 343.942 60.7293Z" fill="#263238"/>
<path d="M295.636 150.486C299.41 149.619 301.749 145.933 300.859 142.254C299.97 138.575 296.189 136.295 292.414 137.162C288.64 138.029 286.301 141.714 287.191 145.394C288.08 149.073 291.861 151.353 295.636 150.486Z" stroke="#263238" stroke-miterlimit="10"/>
<path d="M292.255 147.212L291.602 148.258L291.133 147.975L291.787 146.936C290.974 146.433 290.369 145.667 290.076 144.773L290.673 144.411C290.926 145.203 291.447 145.888 292.15 146.354L293.668 143.955C292.788 143.097 291.941 142.161 292.699 140.958C293.248 140.084 294.37 139.715 295.871 140.462L296.533 139.408L297.001 139.691L296.347 140.729C297.009 141.15 297.542 141.737 297.889 142.429L297.316 142.83C297.011 142.22 296.553 141.694 295.984 141.304L294.459 143.719C295.363 144.6 296.291 145.552 295.516 146.779C294.959 147.66 293.797 148.014 292.255 147.212ZM294.071 143.278L295.5 141.005C294.491 140.509 293.756 140.729 293.393 141.304C292.957 142.035 293.417 142.673 294.071 143.318V143.278ZM294.814 146.362C295.266 145.646 294.741 144.993 294.055 144.317L292.618 146.598C293.692 147.18 294.442 147.023 294.806 146.402L294.814 146.362Z" fill="#263238"/>
<path d="M193.259 11.7096C193.835 12.9409 194.025 14.3113 193.802 15.6474C193.58 16.9835 192.956 18.2254 192.01 19.2161C191.064 20.2067 189.837 20.9016 188.486 21.2129C187.135 21.5242 185.719 21.4379 184.418 20.9649C183.117 20.4919 181.989 19.6535 181.176 18.5556C180.364 17.4578 179.904 16.1498 179.854 14.7971C179.804 13.4444 180.167 12.1077 180.897 10.956C181.626 9.80425 182.69 8.88928 183.953 8.32673C184.792 7.95204 185.698 7.74233 186.62 7.70961C187.542 7.67688 188.462 7.82179 189.326 8.13603C190.19 8.45028 190.983 8.92767 191.658 9.54088C192.332 10.1541 192.876 10.8911 193.259 11.7096Z" stroke="#263238" stroke-miterlimit="10"/>
<path d="M188.78 17.8694L189.304 18.9865L188.804 19.2146L188.271 18.1054C187.387 18.4804 186.396 18.5416 185.471 18.2785V17.594C186.285 17.834 187.16 17.7951 187.949 17.4839L186.754 14.9192C185.527 15.1474 184.26 15.3126 183.655 14.0302C183.219 13.0941 183.526 11.9848 185.003 11.1902L184.478 10.0652L184.97 9.84497L185.495 10.9542C186.221 10.6472 187.02 10.5437 187.803 10.6553V11.3397C187.114 11.2445 186.411 11.323 185.761 11.5679L186.972 14.1483C188.223 13.9044 189.555 13.692 190.2 14.99C190.693 15.9341 190.321 17.0748 188.78 17.8694ZM186.472 14.2427L185.334 11.8117C184.341 12.3546 184.123 13.0783 184.414 13.6841C184.761 14.4236 185.56 14.4 186.472 14.2427ZM189.514 15.3519C189.151 14.5652 188.304 14.6517 187.351 14.8248L188.489 17.2557C189.547 16.6893 189.805 15.9813 189.514 15.3519Z" fill="#263238"/>
<path d="M169.611 288.89C170.478 290.74 170.762 292.798 170.428 294.806C170.094 296.813 169.157 298.679 167.735 300.167C166.314 301.655 164.471 302.699 162.441 303.167C160.411 303.635 158.284 303.505 156.329 302.794C154.374 302.083 152.68 300.824 151.459 299.174C150.239 297.525 149.548 295.56 149.474 293.528C149.399 291.495 149.944 289.487 151.041 287.757C152.137 286.027 153.735 284.652 155.632 283.808C156.893 283.246 158.254 282.933 159.638 282.884C161.023 282.836 162.404 283.054 163.702 283.526C165 283.998 166.19 284.715 167.204 285.635C168.218 286.555 169.036 287.661 169.611 288.89Z" stroke="#263238" stroke-miterlimit="10"/>
<path d="M162.873 298.157L163.68 299.841L162.929 300.171L162.122 298.503C160.796 299.07 159.308 299.164 157.917 298.771L157.966 297.748C159.191 298.104 160.504 298.04 161.686 297.567L159.887 293.728C158.055 294.066 156.142 294.318 155.238 292.391C154.576 290.99 155.044 289.314 157.256 288.119L156.448 286.443L157.191 286.105L157.998 287.773C159.09 287.314 160.291 287.159 161.468 287.324V288.347C160.435 288.205 159.382 288.324 158.41 288.693L160.218 292.564C162.098 292.202 164.1 291.879 165.02 293.83C165.714 295.254 165.197 296.969 162.873 298.157ZM159.419 292.705L157.699 289.055C156.222 289.842 155.892 290.951 156.327 291.879C156.844 292.988 158.038 292.949 159.419 292.705ZM163.987 294.381C163.446 293.224 162.163 293.319 160.758 293.594L162.469 297.244C164.059 296.387 164.422 295.317 163.987 294.381Z" fill="#263238"/>
<path d="M18.51 129.11C16.9427 130.451 15.0024 131.31 12.9344 131.577C10.8664 131.845 8.76353 131.508 6.89173 130.61C5.01993 129.713 3.46322 128.294 2.41841 126.534C1.3736 124.774 0.887607 122.752 1.02188 120.722C1.15615 118.693 1.90465 116.748 3.17276 115.134C4.44086 113.519 6.17162 112.307 8.14621 111.652C10.1208 110.996 12.2506 110.925 14.2662 111.449C16.2819 111.973 18.0929 113.068 19.4704 114.595C20.3854 115.609 21.0864 116.789 21.5333 118.068C21.9803 119.346 22.1644 120.698 22.0752 122.046C21.986 123.394 21.6253 124.712 21.0135 125.924C20.4018 127.136 19.5511 128.218 18.51 129.11Z" stroke="#263238" stroke-miterlimit="10"/>
<path d="M7.48502 125.491L6.06455 126.71L5.51574 126.105L6.92813 124.901C5.9924 123.822 5.47033 122.459 5.45117 121.046L6.47617 120.794C6.47667 122.034 6.90605 123.237 7.69486 124.209L10.9232 121.424C10.0596 119.811 9.26059 118.096 10.9232 116.703C12.1177 115.689 13.8932 115.641 15.7011 117.356L17.17 116.145L17.7107 116.743L16.2983 117.954C17.0497 118.845 17.5355 119.92 17.7027 121.062L16.7019 121.384C16.5411 120.378 16.1219 119.428 15.4832 118.623L12.1984 121.431C13.0942 123.076 13.9901 124.854 12.3356 126.278C11.133 127.3 9.30095 127.355 7.48502 125.491ZM11.8433 120.692L14.9344 118.041C13.7076 116.892 12.5131 116.9 11.7706 117.569C10.8021 118.371 11.1895 119.488 11.819 120.692H11.8433ZM11.5124 125.412C12.497 124.578 12.037 123.406 11.359 122.147L8.26789 124.799C9.535 126.065 10.7133 126.112 11.5204 125.436L11.5124 125.412Z" fill="#263238"/>
<path d="M66.7993 216.811C66.9118 214.07 64.7229 211.758 61.9103 211.649C59.0977 211.539 56.7264 213.672 56.6139 216.414C56.5014 219.156 58.6903 221.467 61.5029 221.577C64.3155 221.686 66.6867 219.553 66.7993 216.811Z" stroke="#263238" stroke-width="1.0008" stroke-miterlimit="10"/>
<path d="M63.1742 217.575L63.7553 218.259L63.4566 218.503L62.8755 217.827C62.3295 218.254 61.6471 218.483 60.9466 218.472L60.8336 217.984C61.4497 218 62.0529 217.811 62.5446 217.449L61.2049 215.876C60.3978 216.261 59.5423 216.615 58.8643 215.828C58.3801 215.262 58.3801 214.42 59.2517 213.586L58.6626 212.902L58.9693 212.658L59.5504 213.335C59.9997 212.987 60.5386 212.766 61.108 212.697L61.2533 213.169C60.7544 213.237 60.2804 213.423 59.8732 213.712L61.221 215.286C62.0281 214.884 62.9401 214.499 63.6423 215.286C64.1346 215.868 64.1184 216.733 63.1742 217.575ZM60.8659 215.467L59.5907 213.98C59.0096 214.546 59.0015 215.089 59.3163 215.467C59.6311 215.844 60.2606 215.742 60.8659 215.467ZM63.2145 215.679C62.811 215.215 62.2299 215.411 61.6004 215.718L62.8755 217.205C63.497 216.607 63.5373 216.057 63.2145 215.671V215.679Z" fill="#263238"/>
<path d="M223.452 314.725C224.096 315.48 224.497 316.403 224.603 317.38C224.708 318.356 224.515 319.341 224.046 320.21C223.578 321.079 222.856 321.793 221.971 322.262C221.086 322.731 220.079 322.934 219.076 322.845C218.073 322.756 217.12 322.379 216.336 321.762C215.553 321.144 214.975 320.315 214.676 319.378C214.376 318.44 214.369 317.438 214.654 316.496C214.939 315.555 215.504 314.717 216.277 314.088C217.316 313.247 218.655 312.841 220 312.961C221.345 313.08 222.586 313.715 223.452 314.725Z" stroke="#263238" stroke-miterlimit="10"/>
<path d="M221.514 319.878L222.104 320.563L221.797 320.807L221.216 320.13C220.673 320.558 219.993 320.786 219.295 320.775L219.182 320.287C219.799 320.307 220.403 320.118 220.893 319.752L219.553 318.179C218.746 318.565 217.883 318.919 217.213 318.132C216.72 317.565 216.72 316.724 217.592 315.89L217.011 315.205L217.318 314.961L217.899 315.638C218.346 315.287 218.886 315.066 219.456 315.001L219.602 315.473C219.1 315.54 218.624 315.727 218.214 316.016L219.569 317.589C220.376 317.188 221.288 316.802 221.991 317.589C222.459 318.171 222.443 319.037 221.514 319.878ZM219.198 317.738L217.923 316.252C217.334 316.818 217.326 317.361 217.649 317.738C217.971 318.116 218.585 318.045 219.198 317.738ZM221.539 317.959C221.135 317.487 220.554 317.683 219.925 317.959L221.2 319.446C221.829 318.911 221.87 318.36 221.539 317.982V317.959Z" fill="#263238"/>
<path d="M84.0669 31.915C84.3238 29.1849 82.2614 26.7687 79.4606 26.5183C76.6597 26.2679 74.181 28.2781 73.9241 31.0083C73.6672 33.7384 75.7295 36.1546 78.5304 36.405C81.3312 36.6554 83.81 34.6452 84.0669 31.915Z" stroke="#263238" stroke-miterlimit="10"/>
<path d="M80.9853 33.4382L81.5664 34.1226L81.2597 34.3665L80.6786 33.6899C80.1364 34.1189 79.456 34.3474 78.7577 34.335L78.6448 33.8472C79.2608 33.863 79.8641 33.6744 80.3558 33.3123L79.016 31.7389C78.2089 32.1244 77.3454 32.4784 76.6755 31.6917C76.1912 31.1252 76.1832 30.2835 77.0629 29.4496L76.4737 28.7651L76.7804 28.5212L77.3615 29.1978C77.8099 28.8485 78.3493 28.6279 78.9192 28.5606L79.0644 29.0326C78.5656 29.1 78.0915 29.2865 77.6843 29.5754L79.0322 31.1488C79.8392 30.7476 80.7512 30.3621 81.4534 31.1488C81.9296 31.731 81.9054 32.5964 80.9853 33.4382ZM78.6609 31.3219L77.3857 29.8036C76.8046 30.37 76.7885 30.9128 77.1113 31.2904C77.4341 31.6681 78.0475 31.6051 78.6609 31.3219ZM81.0095 31.5343C80.606 31.0702 80.0168 31.2668 79.3953 31.5343L80.6705 33.0212C81.292 32.4705 81.3323 31.9198 81.0095 31.5343Z" fill="#263238"/>
<path opacity="0.2" d="M193.767 234.984C193.767 234.984 187.545 265.768 149.378 272.746C149.378 272.746 139.41 280.495 136.093 285.082C132.776 289.668 115.109 297.465 97.1114 321.79C79.1135 346.115 52.3184 268.868 52.3184 268.868L111.542 193.895L193.767 234.984Z" fill="black" fill-opacity="0.7"/>
<path d="M227.689 90.4428C227.689 90.4428 248.27 80.6325 252.798 82.324C257.325 84.0154 261.676 94.1639 244.364 103.88C227.052 113.596 232.217 131.698 232.217 131.698H244.565C244.565 131.698 251.974 134.64 254.856 138.424C257.737 142.208 259.795 155.11 261.442 159.484C263.088 163.858 262.249 168.24 257.737 169.664C257.737 169.664 254.856 181.905 255.679 187.333C256.502 192.762 256.091 196.255 250.74 196.916C249.393 197.052 248.032 196.902 246.751 196.475C245.47 196.049 244.3 195.356 243.321 194.444C242.342 193.533 241.579 192.425 241.083 191.197C240.587 189.969 240.371 188.651 240.449 187.333L236.333 201.872L239.214 207.457C243.285 208.993 247.046 211.214 250.328 214.019C256.091 218.833 261.853 220.147 260.207 225.512C258.56 230.878 255.267 236.66 237.98 229.957C220.692 223.254 206.286 196.916 206.286 196.916L195.898 105.075L227.689 90.4428Z" fill="white"/>
<path opacity="0.4" d="M249.351 143.199C240.022 155.598 250.344 169.877 250.344 169.877C250.344 169.877 243.887 173.385 243.702 182.338C243.629 186.059 244.59 191.259 245.736 196.074C244.058 195.301 242.657 194.055 241.716 192.496C240.775 190.937 240.336 189.139 240.457 187.334L236.333 201.872L239.214 207.45C242.246 208.581 245.103 210.113 247.705 212.005C245.147 217.732 244.364 224.812 244.59 232.113C242.342 231.531 240.134 230.811 237.98 229.957C220.692 223.247 206.286 196.916 206.286 196.916L195.898 105.068L227.689 90.4429C227.689 90.4429 238.932 85.0855 246.632 82.9692C246.034 89.9867 247.439 97.2479 248.456 101.292C247.142 102.228 245.776 103.093 244.364 103.88C227.076 113.596 232.217 131.698 232.217 131.698H244.574C244.574 131.698 251.611 134.498 254.63 138.141C252.565 139.495 250.776 141.21 249.351 143.199Z" fill="#52DEE5"/>
<path d="M195.535 220.187C195.535 220.187 173.147 262.976 132.792 272.683C132.792 272.683 131.251 281.148 124.423 284.783C120.775 286.718 106.054 308.219 93.1325 327.847L21.5605 285.051C25.9672 280.802 30.9873 275.909 36.088 270.803C51.019 255.966 66.9508 239.335 71.8256 231.106C76.1838 223.79 81.6962 211.092 86.4983 199.158C92.6483 183.896 97.6522 169.877 97.6522 169.877L121.509 144.026L159.015 103.376L160.629 108.577L195.535 220.187Z" fill="white"/>
<path opacity="0.4" d="M159.047 103.376L195.536 220.187C195.536 220.187 173.147 262.976 132.793 272.683C132.793 272.683 131.252 281.148 124.424 284.783C121.147 286.522 108.952 304.026 97.1523 321.758C101.527 307.125 114.19 283.8 114.19 283.8C106.063 274.414 108.435 264.525 111.688 267.342C114.94 270.158 123.116 278.072 123.633 278.568C120.041 274.446 119.21 267.987 119.21 267.987C119.21 267.987 129.282 274.517 130.097 264.053C130.913 253.59 124.06 228.022 124.06 228.022L106.071 160.79L159.047 103.376Z" fill="#52DEE5"/>
<path d="M195.898 105.075L227.689 90.4428C227.689 90.4428 248.27 80.6325 252.798 82.324C257.325 84.0154 261.676 94.1639 244.364 103.88C227.052 113.596 232.217 131.698 232.217 131.698H244.565C244.565 131.698 251.974 134.64 254.856 138.424C257.737 142.208 259.795 155.11 261.442 159.484C263.088 163.858 262.249 168.24 257.737 169.664C257.737 169.664 254.856 181.905 255.679 187.333C256.502 192.762 256.091 196.255 250.74 196.916C249.393 197.052 248.032 196.902 246.751 196.475C245.47 196.049 244.3 195.356 243.321 194.444C242.342 193.533 241.579 192.425 241.083 191.197C240.587 189.969 240.371 188.651 240.449 187.333L236.333 201.872L239.214 207.457C243.285 208.993 247.046 211.214 250.328 214.019C256.091 218.833 261.853 220.147 260.207 225.512C258.56 230.878 255.267 236.66 237.98 229.957C220.692 223.254 206.286 196.916 206.286 196.916" stroke="#263238" stroke-linecap="round" stroke-linejoin="round"/>
<path d="M257.737 169.664C251.562 171.293 244.363 170.089 241.684 159.437C239.004 148.785 244.363 137.409 247.858 136.363" stroke="#263238" stroke-linecap="round" stroke-linejoin="round"/>
<path d="M240.449 187.334C240.449 187.334 240.038 173.637 245.187 170.254" stroke="#263238" stroke-linecap="round" stroke-linejoin="round"/>
<path opacity="0.4" d="M90.3085 255.36C90.3085 255.36 75.2242 253.527 71.8587 246.95C69.0742 241.506 53.9818 261.898 36.1211 270.803C51.0521 255.966 66.9839 239.335 71.8587 231.106C76.2169 223.789 81.7293 211.092 86.5314 199.158C86.2893 209.054 80.8818 224.206 82.4233 232.097C80.7716 232.523 79.3584 233.566 78.4898 235C77.6212 236.434 77.3671 238.144 77.7826 239.76C78.9368 246.03 90.3085 255.36 90.3085 255.36Z" fill="#52DEE5"/>
<path d="M195.536 220.187C195.536 220.187 173.147 262.975 132.785 272.683C132.785 272.683 131.252 281.148 124.424 284.783C120.776 286.718 106.063 308.219 93.125 327.847" stroke="#263238" stroke-linecap="round" stroke-linejoin="round"/>
<path d="M21.5605 285.051C38.7998 268.443 65.2963 242.112 71.8579 231.106C81.785 214.451 97.6844 169.869 97.6844 169.869L159.023 103.376" stroke="#263238" stroke-linecap="round" stroke-linejoin="round"/>
<path d="M124.02 154.158C124.02 154.158 133.446 162.387 136.126 169.893" stroke="#263238" stroke-linecap="round" stroke-linejoin="round"/>
<path d="M235.291 34.3037H133.865C130.865 34.3037 128.434 36.6742 128.434 39.5982V250.066C128.434 252.99 130.865 255.36 133.865 255.36H235.291C238.291 255.36 240.723 252.99 240.723 250.066V39.5982C240.723 36.6742 238.291 34.3037 235.291 34.3037Z" fill="#263238"/>
<path d="M206.835 40.3219L204.688 44.1531C204.461 44.5689 204.123 44.9171 203.71 45.1608C203.296 45.4046 202.823 45.5348 202.34 45.5377H166.828C166.346 45.5352 165.873 45.407 165.458 45.1663C165.044 44.9256 164.703 44.5812 164.471 44.1689L162.333 40.3376C162.103 39.9236 161.762 39.5779 161.348 39.3369C160.933 39.0959 160.459 38.9687 159.976 38.9688H135.158C134.804 38.9698 134.455 39.0388 134.128 39.1719C133.802 39.305 133.506 39.4996 133.257 39.7444C133.008 39.9892 132.811 40.2795 132.678 40.5987C132.544 40.9178 132.476 41.2595 132.479 41.6042V248.508C132.479 249.201 132.761 249.867 133.263 250.358C133.765 250.849 134.447 251.126 135.158 251.128H233.993C234.348 251.13 234.699 251.063 235.027 250.933C235.355 250.802 235.653 250.609 235.904 250.366C236.155 250.122 236.355 249.833 236.491 249.514C236.627 249.195 236.697 248.853 236.697 248.508V41.6042C236.697 40.9094 236.414 40.2431 235.91 39.7518C235.406 39.2605 234.722 38.9845 234.009 38.9845H209.2C208.719 38.98 208.245 39.1018 207.829 39.3371C207.413 39.5724 207.07 39.9126 206.835 40.3219Z" fill="#52DEE5" stroke="#263238" stroke-linecap="round" stroke-linejoin="round"/>
<path d="M176.874 42.1787C177.672 42.1787 178.319 41.5482 178.319 40.7705C178.319 39.9928 177.672 39.3623 176.874 39.3623C176.076 39.3623 175.43 39.9928 175.43 40.7705C175.43 41.5482 176.076 42.1787 176.874 42.1787Z" stroke="white" stroke-miterlimit="10"/>
<path d="M193.719 40.7703C193.718 40.9426 193.664 41.1107 193.565 41.2533C193.465 41.3958 193.325 41.5065 193.161 41.5714C192.997 41.6363 192.817 41.6525 192.644 41.6179C192.471 41.5833 192.312 41.4995 192.187 41.3771C192.063 41.2547 191.978 41.0991 191.944 40.9299C191.91 40.7607 191.929 40.5855 191.997 40.4264C192.065 40.2673 192.18 40.1314 192.327 40.0358C192.474 39.9402 192.647 39.8892 192.824 39.8892C192.942 39.8892 193.059 39.912 193.168 39.9564C193.277 40.0008 193.377 40.0658 193.46 40.1477C193.543 40.2296 193.609 40.3268 193.654 40.4337C193.698 40.5405 193.72 40.6549 193.719 40.7703Z" stroke="white" stroke-miterlimit="10"/>
<path d="M189.699 40.2197H180.918C180.844 40.2197 180.771 40.234 180.703 40.2618C180.635 40.2896 180.573 40.3302 180.522 40.3815C180.47 40.4327 180.429 40.4935 180.401 40.5603C180.374 40.627 180.36 40.6985 180.361 40.7704C180.361 40.9144 180.42 41.0525 180.524 41.1543C180.629 41.2561 180.771 41.3132 180.918 41.3132H189.699C189.847 41.3132 189.989 41.2561 190.093 41.1543C190.198 41.0525 190.256 40.9144 190.256 40.7704C190.257 40.6985 190.244 40.627 190.216 40.5603C190.189 40.4935 190.148 40.4327 190.096 40.3815C190.044 40.3302 189.982 40.2896 189.914 40.2618C189.846 40.234 189.773 40.2197 189.699 40.2197Z" fill="white"/>
<path d="M150.856 44.2161H141.389V48.1339H150.856V44.2161Z" stroke="#263238" stroke-linecap="round" stroke-linejoin="round"/>
<path d="M152.317 44.877H150.848V47.4809H152.317V44.877Z" stroke="#263238" stroke-linecap="round" stroke-linejoin="round"/>
<path d="M217.939 46.7178H216.26V48.1417H217.939V46.7178Z" stroke="#263238" stroke-linecap="round" stroke-linejoin="round"/>
<path d="M221.216 45.2861H219.537V48.1419H221.216V45.2861Z" stroke="#263238" stroke-linecap="round" stroke-linejoin="round"/>
<path d="M224.493 43.8542H222.814V48.1339H224.493V43.8542Z" stroke="#263238" stroke-linecap="round" stroke-linejoin="round"/>
<path d="M227.763 42.4224H226.084V48.1339H227.763V42.4224Z" stroke="#263238" stroke-linecap="round" stroke-linejoin="round"/>
<path opacity="0.5" d="M236.003 84.6843H133.148V180.308H236.003V84.6843Z" fill="white"/>
<path d="M161.557 69.4143V71.0743C161.557 73.1276 160.548 74.2211 158.482 74.2211H157.506V79.0279H155.439V66.2439H158.482C160.548 66.2439 161.557 67.361 161.557 69.4143ZM157.522 68.0769V72.4117H158.498C159.152 72.4117 159.507 72.1206 159.507 71.208V69.2806C159.507 68.368 159.152 68.0769 158.498 68.0769H157.522Z" fill="#263238"/>
<path d="M168.958 79.0515H166.876L166.513 76.7307H163.986L163.623 79.0515H161.727L163.833 66.2439H166.852L168.958 79.0515ZM164.245 74.9921H166.238L165.262 68.5175H165.221L164.245 74.9921Z" fill="#263238"/>
<path d="M170.927 74.8111L168.32 66.2439H170.516L172.073 72.0813H172.114L173.671 66.2439H175.641L173.034 74.8111V79.0515H170.968L170.927 74.8111Z" fill="#263238"/>
<path d="M180.781 75.3382H180.821L182.209 66.2439H185.082V79.0515H183.129V69.8706L181.741 79.0515H179.788L178.287 69.9965V79.0515H176.406V66.2439H179.279L180.781 75.3382Z" fill="#263238"/>
<path d="M188.65 71.6407H191.499V73.4737H188.666V77.2263H192.234V79.0515H186.584V66.2439H192.234V68.0769H188.666L188.65 71.6407Z" fill="#263238"/>
<path d="M195.373 69.7762H195.333V79.0515H193.477V66.2439H196.067L198.15 73.9143V66.2439H199.99V79.0515H197.875L195.373 69.7762Z" fill="#263238"/>
<path d="M200.91 66.2439H207.294V68.0769H205.131V79.0515H203.065V68.0769H200.91V66.2439Z" fill="#263238"/>
<path d="M210.974 66.1023C212.976 66.1023 214.009 67.2745 214.009 69.3199V69.7211H212.056V69.1941C212.056 68.2736 211.684 67.9275 211.023 67.9275C210.361 67.9275 209.998 68.2736 209.998 69.1941C209.998 70.1145 210.409 70.8225 211.757 71.9711C213.484 73.458 214.033 74.5122 214.033 75.9755C214.033 78.0288 212.976 79.2009 210.95 79.2009C208.924 79.2009 207.875 78.0288 207.875 75.9755V75.1888H209.828V76.1092C209.828 77.0218 210.24 77.3522 210.893 77.3522C211.547 77.3522 211.967 77.0218 211.967 76.1092C211.967 75.1966 211.555 74.4807 210.199 73.3243C208.472 71.8452 207.931 70.7832 207.931 69.3199C207.931 67.2745 208.965 66.1023 210.974 66.1023Z" fill="#263238"/>
<path d="M227.763 96.2725H141.389V108.852H227.763V96.2725Z" fill="white" stroke="#263238" stroke-linecap="round" stroke-linejoin="round"/>
<path d="M227.763 119.866H141.389V132.445H227.763V119.866Z" fill="white" stroke="#263238" stroke-linecap="round" stroke-linejoin="round"/>
<path d="M227.763 141.319H141.389V153.899H227.763V141.319Z" fill="white" stroke="#263238" stroke-linecap="round" stroke-linejoin="round"/>
<path d="M182.283 158.485H141.389V173.212H182.283V158.485Z" fill="white" stroke="#263238" stroke-linecap="round" stroke-linejoin="round"/>
<path d="M227.77 158.485H186.875V173.212H227.77V158.485Z" fill="white" stroke="#263238" stroke-linecap="round" stroke-linejoin="round"/>
<path d="M146.77 94.0777V94.416H144.066V90.6948H146.689V91.0331H144.478V92.3626H146.447V92.6931H144.478V94.0777H146.77Z" fill="#263238"/>
<path d="M152.372 92.7954V94.416H151.952V92.8426C151.952 92.2526 151.646 91.9457 151.145 91.9457C151.011 91.9402 150.876 91.9633 150.752 92.0134C150.627 92.0636 150.515 92.1396 150.424 92.2362C150.332 92.3328 150.264 92.4476 150.222 92.5727C150.181 92.6978 150.168 92.8302 150.185 92.9606V94.4239H149.797V92.8504C149.797 92.2604 149.491 91.9536 148.99 91.9536C148.856 91.948 148.721 91.9711 148.597 92.0213C148.472 92.0715 148.36 92.1475 148.269 92.2441C148.178 92.3407 148.109 92.4555 148.068 92.5806C148.026 92.7057 148.013 92.838 148.03 92.9684V94.4317H147.643V91.6389H148.014V92.1503C148.124 91.9764 148.281 91.8349 148.467 91.7407C148.653 91.6465 148.862 91.6032 149.071 91.6153C149.283 91.5979 149.494 91.6455 149.677 91.7513C149.859 91.8571 150.003 92.0159 150.088 92.2054C150.206 92.0162 150.373 91.8615 150.574 91.7576C150.774 91.6538 150.999 91.6046 151.226 91.6153C151.385 91.6049 151.544 91.6288 151.693 91.6854C151.841 91.7419 151.975 91.8297 152.084 91.9424C152.193 92.0551 152.276 92.19 152.326 92.3375C152.376 92.4849 152.391 92.6413 152.372 92.7954Z" fill="#263238"/>
<path d="M155.593 92.6851V94.4159H155.221V93.9832C155.112 94.1389 154.963 94.2639 154.789 94.3454C154.615 94.4269 154.421 94.4621 154.229 94.4474C153.583 94.4474 153.188 94.117 153.188 93.6607C153.188 93.2044 153.47 92.874 154.293 92.874H155.181V92.7009C155.181 92.221 154.899 91.9614 154.374 91.9614C154.026 91.9561 153.688 92.0735 153.422 92.2918L153.244 92.0086C153.579 91.7564 153.991 91.6232 154.414 91.631C154.566 91.6067 154.722 91.6164 154.87 91.6593C155.017 91.7023 155.153 91.7774 155.266 91.8789C155.38 91.9804 155.468 92.1057 155.525 92.2454C155.581 92.3851 155.604 92.5354 155.593 92.6851ZM155.205 93.582V93.1178H154.301C153.744 93.1178 153.567 93.3302 153.567 93.6213C153.567 93.9124 153.833 94.1484 154.293 94.1484C154.483 94.1538 154.67 94.1023 154.828 94.0011C154.987 93.8998 155.11 93.7535 155.181 93.582H155.205Z" fill="#263238"/>
<path d="M156.553 90.7421C156.555 90.6704 156.586 90.6024 156.638 90.5525C156.691 90.5025 156.762 90.4746 156.835 90.4746C156.908 90.4746 156.978 90.5028 157.029 90.553C157.081 90.6031 157.11 90.6712 157.11 90.7421C157.11 90.813 157.081 90.8811 157.029 90.9312C156.978 90.9814 156.908 91.0096 156.835 91.0096C156.762 91.0096 156.691 90.9817 156.638 90.9317C156.586 90.8818 156.555 90.8138 156.553 90.7421ZM156.642 91.6232H157.029V94.416H156.642V91.6232Z" fill="#263238"/>
<path d="M158.111 90.4746H158.499V94.4081H158.111V90.4746Z" fill="#263238"/>
<path d="M149.442 103.754V104.092H146.738V100.371H149.361V100.71H147.11V102.031H149.087V102.37H147.11V103.754H149.442Z" fill="#263238"/>
<path d="M155.043 102.456V104.077H154.656V102.503C154.656 101.913 154.349 101.606 153.849 101.606C153.714 101.6 153.58 101.622 153.456 101.671C153.331 101.72 153.219 101.795 153.127 101.891C153.036 101.987 152.967 102.102 152.926 102.226C152.884 102.351 152.872 102.483 152.888 102.613V104.084H152.501V102.511C152.501 101.921 152.194 101.614 151.694 101.614C151.559 101.607 151.425 101.629 151.301 101.679C151.176 101.728 151.064 101.803 150.972 101.899C150.881 101.995 150.812 102.11 150.771 102.234C150.729 102.359 150.717 102.491 150.733 102.621V104.092H150.338V101.292H150.709V101.803C150.821 101.631 150.978 101.492 151.164 101.399C151.35 101.306 151.558 101.264 151.766 101.276C151.978 101.261 152.188 101.309 152.37 101.415C152.552 101.52 152.696 101.678 152.783 101.866C152.9 101.676 153.068 101.521 153.268 101.417C153.469 101.313 153.695 101.264 153.921 101.276C154.078 101.269 154.235 101.296 154.38 101.354C154.525 101.412 154.656 101.5 154.763 101.612C154.87 101.725 154.95 101.858 154.998 102.004C155.047 102.15 155.062 102.304 155.043 102.456Z" fill="#263238"/>
<path d="M158.257 102.346V104.077H157.885V103.644C157.778 103.799 157.63 103.923 157.457 104.003C157.284 104.083 157.092 104.117 156.901 104.1C156.255 104.1 155.852 103.77 155.852 103.313C155.852 102.857 156.142 102.527 156.965 102.527H157.877V102.361C157.877 101.882 157.595 101.622 157.07 101.622C156.72 101.618 156.38 101.735 156.11 101.952L155.94 101.669C156.272 101.412 156.687 101.279 157.111 101.292C157.26 101.273 157.412 101.286 157.556 101.331C157.699 101.377 157.831 101.453 157.94 101.554C158.05 101.654 158.135 101.778 158.19 101.915C158.245 102.052 158.268 102.199 158.257 102.346ZM157.877 103.235V102.778H156.973C156.417 102.778 156.239 102.991 156.239 103.282C156.239 103.573 156.505 103.809 156.965 103.809C157.16 103.82 157.354 103.77 157.518 103.667C157.681 103.564 157.807 103.412 157.877 103.235Z" fill="#263238"/>
<path d="M159.217 100.395C159.219 100.323 159.25 100.255 159.302 100.205C159.355 100.155 159.426 100.127 159.499 100.127C159.536 100.126 159.573 100.132 159.607 100.145C159.641 100.158 159.672 100.178 159.699 100.203C159.725 100.228 159.746 100.258 159.76 100.291C159.774 100.324 159.782 100.359 159.782 100.395C159.782 100.468 159.752 100.538 159.699 100.589C159.646 100.641 159.574 100.67 159.499 100.67C159.424 100.67 159.353 100.641 159.3 100.589C159.247 100.538 159.217 100.468 159.217 100.395ZM159.306 101.276H159.693V104.077H159.306V101.276Z" fill="#263238"/>
<path d="M160.781 100.127H161.161V104.061H160.781V100.127Z" fill="#263238"/>
<path d="M164.866 102.456V104.077H164.478V102.503C164.495 102.387 164.486 102.268 164.45 102.156C164.414 102.044 164.353 101.941 164.271 101.855C164.188 101.769 164.088 101.702 163.976 101.659C163.864 101.616 163.743 101.598 163.623 101.606C163.485 101.595 163.347 101.614 163.218 101.661C163.088 101.708 162.971 101.782 162.875 101.878C162.779 101.974 162.705 102.09 162.66 102.217C162.615 102.344 162.599 102.48 162.614 102.613V104.084H162.227V101.284H162.598V101.803C162.715 101.628 162.877 101.486 163.068 101.392C163.26 101.298 163.473 101.255 163.687 101.268C163.849 101.255 164.011 101.278 164.163 101.334C164.315 101.389 164.452 101.477 164.564 101.591C164.677 101.704 164.762 101.841 164.815 101.99C164.867 102.14 164.884 102.299 164.866 102.456Z" fill="#263238"/>
<path d="M168.095 102.346V104.077H167.723V103.644C167.616 103.799 167.468 103.923 167.295 104.003C167.122 104.083 166.93 104.117 166.739 104.1C166.085 104.1 165.689 103.77 165.689 103.313C165.689 102.857 165.972 102.527 166.795 102.527H167.707V102.362C167.707 101.882 167.433 101.622 166.9 101.622C166.552 101.617 166.214 101.734 165.948 101.952L165.77 101.669C166.103 101.414 166.517 101.28 166.94 101.292C167.091 101.271 167.244 101.284 167.388 101.329C167.533 101.373 167.665 101.449 167.776 101.55C167.886 101.651 167.972 101.775 168.028 101.913C168.083 102.05 168.106 102.198 168.095 102.346ZM167.707 103.235V102.779H166.811C166.254 102.779 166.069 102.991 166.069 103.282C166.069 103.573 166.335 103.809 166.795 103.809C166.991 103.822 167.187 103.773 167.352 103.67C167.518 103.566 167.645 103.414 167.715 103.235H167.707Z" fill="#263238"/>
<path d="M173.889 102.456V104.077H173.502V102.503C173.502 101.913 173.195 101.606 172.695 101.606C172.561 101.6 172.426 101.622 172.302 101.671C172.177 101.72 172.065 101.795 171.974 101.891C171.882 101.987 171.813 102.102 171.772 102.227C171.731 102.351 171.718 102.483 171.734 102.613V104.085H171.323V102.511C171.323 101.921 171.016 101.614 170.516 101.614C170.381 101.607 170.247 101.629 170.123 101.679C169.998 101.728 169.886 101.803 169.794 101.899C169.703 101.995 169.634 102.11 169.593 102.234C169.551 102.359 169.539 102.491 169.555 102.621V104.092H169.168V101.292H169.539V101.803C169.651 101.631 169.808 101.492 169.994 101.399C170.18 101.306 170.388 101.264 170.597 101.276C170.808 101.259 171.02 101.306 171.202 101.412C171.384 101.518 171.528 101.677 171.613 101.866C171.731 101.677 171.899 101.522 172.099 101.418C172.299 101.314 172.525 101.265 172.751 101.276C172.91 101.267 173.068 101.292 173.215 101.349C173.363 101.406 173.495 101.494 173.604 101.606C173.712 101.719 173.794 101.853 173.844 102C173.893 102.147 173.909 102.303 173.889 102.456Z" fill="#263238"/>
<path d="M177.449 102.794H175.028C175.048 103.068 175.18 103.324 175.393 103.503C175.606 103.683 175.884 103.773 176.166 103.754C176.331 103.758 176.496 103.728 176.647 103.664C176.799 103.6 176.935 103.505 177.045 103.384L177.263 103.628C177.057 103.839 176.792 103.986 176.501 104.05C176.21 104.115 175.905 104.094 175.626 103.991C175.347 103.887 175.105 103.706 174.931 103.469C174.757 103.233 174.659 102.951 174.648 102.66C174.638 102.476 174.667 102.291 174.734 102.118C174.8 101.945 174.903 101.787 175.034 101.654C175.166 101.522 175.325 101.417 175.5 101.346C175.675 101.276 175.863 101.241 176.053 101.244C176.242 101.241 176.429 101.275 176.604 101.346C176.778 101.417 176.935 101.522 177.066 101.655C177.197 101.788 177.297 101.946 177.362 102.119C177.426 102.292 177.453 102.477 177.441 102.66C177.441 102.66 177.449 102.755 177.449 102.794ZM175.028 102.511H177.062C177.062 102.248 176.954 101.996 176.764 101.81C176.573 101.624 176.314 101.52 176.045 101.52C175.775 101.52 175.516 101.624 175.326 101.81C175.135 101.996 175.028 102.248 175.028 102.511Z" fill="#263238"/>
<path d="M183.066 102.668C183.066 103.573 182.719 104.1 182.154 104.1C182.074 104.104 181.995 104.093 181.92 104.066C181.845 104.039 181.777 103.997 181.719 103.943C181.662 103.889 181.616 103.824 181.585 103.753C181.555 103.681 181.54 103.604 181.541 103.526C181.428 103.708 181.268 103.857 181.076 103.958C180.885 104.059 180.669 104.108 180.451 104.1C180.079 104.1 179.722 103.956 179.458 103.699C179.195 103.443 179.047 103.094 179.047 102.731C179.047 102.368 179.195 102.02 179.458 101.763C179.722 101.507 180.079 101.362 180.451 101.362C180.666 101.353 180.88 101.401 181.07 101.499C181.26 101.597 181.42 101.743 181.533 101.921V101.394H181.888V103.408C181.888 103.707 182.041 103.817 182.227 103.817C182.558 103.817 182.776 103.408 182.776 102.692C182.784 102.408 182.732 102.125 182.621 101.862C182.511 101.599 182.344 101.361 182.134 101.165C181.923 100.968 181.672 100.817 181.398 100.721C181.123 100.625 180.831 100.586 180.54 100.607C180.252 100.607 179.966 100.663 179.7 100.77C179.434 100.878 179.192 101.035 178.988 101.234C178.784 101.433 178.622 101.669 178.512 101.928C178.401 102.188 178.345 102.466 178.345 102.747C178.345 103.028 178.401 103.306 178.512 103.566C178.622 103.826 178.784 104.061 178.988 104.26C179.192 104.459 179.434 104.616 179.7 104.724C179.966 104.832 180.252 104.887 180.54 104.887C180.903 104.886 181.262 104.805 181.589 104.651L181.678 104.91C181.322 105.074 180.933 105.157 180.54 105.154C179.885 105.154 179.257 104.901 178.794 104.449C178.331 103.998 178.07 103.385 178.07 102.747C178.07 102.109 178.331 101.496 178.794 101.045C179.257 100.593 179.885 100.34 180.54 100.34C180.866 100.317 181.194 100.36 181.502 100.467C181.81 100.574 182.091 100.743 182.329 100.962C182.567 101.181 182.755 101.446 182.882 101.74C183.009 102.033 183.071 102.35 183.066 102.668ZM181.533 102.723C181.545 102.583 181.528 102.442 181.482 102.309C181.435 102.175 181.361 102.053 181.263 101.949C181.166 101.845 181.047 101.762 180.915 101.705C180.783 101.649 180.64 101.619 180.496 101.619C180.351 101.619 180.208 101.649 180.076 101.705C179.944 101.762 179.825 101.845 179.728 101.949C179.63 102.053 179.556 102.175 179.51 102.309C179.463 102.442 179.446 102.583 179.458 102.723C179.446 102.864 179.463 103.005 179.51 103.138C179.556 103.272 179.63 103.394 179.728 103.498C179.825 103.602 179.944 103.685 180.076 103.742C180.208 103.798 180.351 103.828 180.496 103.828C180.64 103.828 180.783 103.798 180.915 103.742C181.047 103.685 181.166 103.602 181.263 103.498C181.361 103.394 181.435 103.272 181.482 103.138C181.528 103.005 181.545 102.864 181.533 102.723Z" fill="#263238"/>
<path d="M186.375 102.794H183.954C183.962 102.931 183.998 103.064 184.059 103.187C184.12 103.31 184.206 103.42 184.311 103.511C184.416 103.601 184.538 103.671 184.671 103.715C184.803 103.76 184.944 103.778 185.084 103.77C185.249 103.774 185.413 103.743 185.565 103.68C185.717 103.616 185.853 103.52 185.963 103.4L186.181 103.644C185.975 103.855 185.71 104.002 185.419 104.066C185.128 104.131 184.823 104.11 184.544 104.007C184.265 103.903 184.023 103.722 183.849 103.485C183.675 103.249 183.577 102.967 183.566 102.676C183.556 102.492 183.585 102.307 183.652 102.134C183.718 101.961 183.821 101.803 183.952 101.67C184.084 101.537 184.242 101.432 184.418 101.362C184.593 101.291 184.781 101.257 184.971 101.26C185.16 101.257 185.347 101.291 185.522 101.362C185.696 101.433 185.853 101.538 185.984 101.671C186.114 101.804 186.215 101.962 186.28 102.135C186.344 102.308 186.371 102.493 186.359 102.676C186.359 102.676 186.375 102.755 186.375 102.794ZM183.954 102.511H185.988C185.988 102.248 185.88 101.996 185.69 101.81C185.499 101.624 185.24 101.52 184.971 101.52C184.701 101.52 184.442 101.624 184.252 101.81C184.061 101.996 183.954 102.248 183.954 102.511Z" fill="#263238"/>
<path d="M191.911 102.456V104.076H191.499V102.503C191.499 101.913 191.193 101.606 190.692 101.606C190.558 101.599 190.424 101.621 190.299 101.671C190.174 101.72 190.062 101.795 189.971 101.891C189.879 101.987 189.81 102.102 189.769 102.226C189.728 102.351 189.715 102.483 189.732 102.613V104.084H189.344V102.511C189.344 101.921 189.038 101.614 188.537 101.614C188.403 101.607 188.269 101.629 188.144 101.679C188.02 101.728 187.908 101.803 187.816 101.899C187.724 101.995 187.656 102.109 187.614 102.234C187.573 102.359 187.56 102.491 187.577 102.621V104.092H187.189V101.292H187.561V101.803C187.671 101.632 187.827 101.493 188.012 101.4C188.196 101.307 188.403 101.264 188.61 101.276C188.822 101.26 189.034 101.308 189.217 101.414C189.401 101.519 189.546 101.677 189.635 101.866C189.75 101.676 189.916 101.521 190.115 101.417C190.314 101.313 190.539 101.264 190.765 101.276C190.924 101.265 191.083 101.289 191.231 101.346C191.38 101.402 191.513 101.49 191.623 101.603C191.732 101.716 191.815 101.851 191.865 101.998C191.914 102.145 191.93 102.302 191.911 102.456Z" fill="#263238"/>
<path d="M195.123 102.346V104.077H194.727V103.644C194.619 103.798 194.471 103.922 194.298 104.002C194.125 104.082 193.933 104.116 193.743 104.1C193.089 104.1 192.693 103.77 192.693 103.314C192.693 102.857 192.976 102.527 193.799 102.527H194.727V102.362C194.727 101.882 194.453 101.622 193.92 101.622C193.572 101.617 193.234 101.734 192.968 101.953L192.79 101.669C193.123 101.414 193.537 101.28 193.96 101.292C194.111 101.27 194.265 101.282 194.411 101.326C194.556 101.37 194.69 101.446 194.801 101.547C194.913 101.648 195 101.772 195.055 101.911C195.111 102.049 195.134 102.198 195.123 102.346ZM194.735 103.235V102.779H193.839C193.283 102.779 193.097 102.991 193.097 103.282C193.097 103.573 193.363 103.809 193.823 103.809C194.017 103.819 194.208 103.768 194.371 103.665C194.533 103.562 194.658 103.411 194.727 103.235H194.735Z" fill="#263238"/>
<path d="M196.092 100.395C196.092 100.34 196.108 100.287 196.139 100.242C196.17 100.196 196.215 100.161 196.266 100.14C196.318 100.12 196.375 100.114 196.429 100.125C196.484 100.135 196.535 100.162 196.574 100.2C196.614 100.239 196.64 100.288 196.651 100.341C196.662 100.394 196.657 100.45 196.635 100.5C196.614 100.55 196.578 100.593 196.531 100.624C196.485 100.654 196.43 100.67 196.374 100.67C196.299 100.67 196.228 100.641 196.175 100.589C196.122 100.538 196.092 100.468 196.092 100.395ZM196.173 101.276H196.56V104.077H196.173V101.276Z" fill="#263238"/>
<path d="M197.641 100.127H198.028V104.061H197.641V100.127Z" fill="#263238"/>
<path d="M198.859 103.809C198.858 103.772 198.865 103.734 198.879 103.7C198.894 103.665 198.915 103.633 198.942 103.607C198.969 103.58 199.002 103.559 199.038 103.545C199.073 103.531 199.112 103.525 199.15 103.526C199.227 103.526 199.301 103.556 199.355 103.609C199.41 103.662 199.441 103.734 199.441 103.809C199.441 103.885 199.41 103.958 199.356 104.012C199.302 104.067 199.228 104.098 199.15 104.1C199.111 104.1 199.073 104.093 199.037 104.078C199.001 104.063 198.969 104.042 198.942 104.015C198.915 103.987 198.893 103.955 198.879 103.92C198.865 103.885 198.858 103.847 198.859 103.809Z" fill="#263238"/>
<path d="M199.893 102.676C199.888 102.487 199.922 102.298 199.995 102.122C200.067 101.946 200.176 101.787 200.315 101.654C200.453 101.521 200.619 101.417 200.8 101.35C200.982 101.282 201.176 101.251 201.37 101.26C201.592 101.246 201.813 101.29 202.012 101.386C202.21 101.483 202.379 101.63 202.5 101.811L202.21 102C202.119 101.873 201.998 101.77 201.858 101.699C201.717 101.628 201.561 101.591 201.403 101.591C201.123 101.614 200.862 101.739 200.672 101.94C200.481 102.142 200.376 102.406 200.376 102.68C200.376 102.954 200.481 103.218 200.672 103.42C200.862 103.622 201.123 103.747 201.403 103.77C201.561 103.771 201.718 103.735 201.859 103.663C201.999 103.592 202.12 103.488 202.21 103.361L202.5 103.55C202.378 103.73 202.209 103.875 202.011 103.972C201.813 104.069 201.592 104.113 201.37 104.1C201.175 104.109 200.981 104.078 200.798 104.01C200.616 103.942 200.451 103.838 200.312 103.704C200.173 103.57 200.064 103.41 199.992 103.233C199.92 103.056 199.887 102.866 199.893 102.676Z" fill="#263238"/>
<path d="M202.919 102.676C202.919 102.395 203.005 102.119 203.165 101.885C203.326 101.651 203.554 101.468 203.821 101.361C204.088 101.253 204.381 101.225 204.665 101.28C204.948 101.335 205.208 101.47 205.413 101.669C205.617 101.868 205.756 102.122 205.812 102.398C205.869 102.675 205.84 102.961 205.729 103.221C205.619 103.481 205.431 103.704 205.191 103.86C204.951 104.017 204.669 104.1 204.38 104.1C204.186 104.107 203.993 104.074 203.813 104.005C203.632 103.936 203.469 103.831 203.332 103.698C203.195 103.564 203.087 103.404 203.016 103.229C202.945 103.053 202.912 102.865 202.919 102.676ZM205.445 102.676C205.438 102.469 205.369 102.268 205.245 102.1C205.122 101.931 204.95 101.802 204.751 101.729C204.552 101.656 204.335 101.642 204.128 101.689C203.921 101.737 203.733 101.843 203.588 101.994C203.443 102.145 203.347 102.335 203.313 102.54C203.278 102.744 203.307 102.954 203.396 103.143C203.484 103.331 203.628 103.49 203.809 103.599C203.989 103.708 204.199 103.762 204.412 103.754C204.553 103.752 204.693 103.722 204.822 103.667C204.951 103.611 205.067 103.53 205.164 103.43C205.26 103.329 205.335 103.21 205.383 103.081C205.432 102.951 205.453 102.814 205.445 102.676Z" fill="#263238"/>
<path d="M211.361 102.456V104.076H210.974V102.503C210.974 101.913 210.667 101.606 210.167 101.606C210.032 101.599 209.898 101.621 209.774 101.671C209.649 101.72 209.537 101.795 209.445 101.891C209.354 101.987 209.285 102.102 209.244 102.226C209.202 102.351 209.19 102.483 209.206 102.613V104.084H208.819V102.511C208.819 101.921 208.512 101.614 208.012 101.614C207.878 101.607 207.743 101.629 207.619 101.679C207.494 101.728 207.382 101.803 207.291 101.899C207.199 101.995 207.13 102.109 207.089 102.234C207.048 102.359 207.035 102.491 207.051 102.621V104.092H206.664V101.292H207.035V101.803C207.146 101.632 207.302 101.493 207.486 101.4C207.671 101.307 207.877 101.264 208.085 101.276C208.297 101.26 208.509 101.308 208.692 101.414C208.875 101.519 209.021 101.677 209.11 101.866C209.225 101.677 209.391 101.522 209.59 101.418C209.789 101.314 210.014 101.265 210.239 101.276C210.396 101.269 210.553 101.296 210.698 101.354C210.844 101.412 210.974 101.5 211.081 101.612C211.188 101.725 211.268 101.858 211.316 102.004C211.365 102.15 211.38 102.304 211.361 102.456Z" fill="#263238"/>
<path d="M147.425 126.222L148.103 126.6L147.982 126.82L147.296 126.435V127.222H147.046V126.435L146.36 126.82L146.23 126.6L146.916 126.222L146.23 125.853L146.36 125.625L147.046 126.018V125.231H147.296V126.018L147.982 125.625L148.103 125.853L147.425 126.222Z" fill="#263238"/>
<path d="M149.644 126.222L150.322 126.6L150.193 126.82L149.515 126.435V127.222H149.257V126.435L148.579 126.82L148.441 126.6L149.127 126.222L148.441 125.853L148.579 125.625L149.257 126.018V125.231H149.531V126.018L150.209 125.625L150.338 125.853L149.644 126.222Z" fill="#263238"/>
<path d="M151.856 126.222L152.534 126.6L152.405 126.82L151.727 126.435V127.222H151.477V126.435L150.799 126.82L150.67 126.6L151.348 126.222L150.67 125.853L150.799 125.625L151.477 126.018V125.231H151.727V126.018L152.405 125.625L152.534 125.853L151.856 126.222Z" fill="#263238"/>
<path d="M154.068 126.222L154.745 126.6L154.624 126.82L153.938 126.435V127.222H153.688V126.435L153.002 126.82L152.873 126.6L153.559 126.222L152.873 125.853L153.002 125.625L153.688 126.018V125.231H153.938V126.018L154.624 125.625L154.745 125.853L154.068 126.222Z" fill="#263238"/>
<path d="M156.287 126.222L156.964 126.6L156.835 126.82L156.157 126.435V127.222H155.899V126.435L155.221 126.82L155.084 126.6L155.77 126.222L155.084 125.853L155.221 125.625L155.899 126.018V125.231H156.157V126.018L156.835 125.625L156.964 125.853L156.287 126.222Z" fill="#263238"/>
<path d="M158.499 126.222L159.177 126.6L159.048 126.82L158.37 126.435V127.222H158.12V126.435L157.442 126.82L157.312 126.6L157.99 126.222L157.312 125.853L157.442 125.625L158.12 126.018V125.231H158.41V126.018L159.088 125.625L159.217 125.853L158.499 126.222Z" fill="#263238"/>
<path d="M160.71 126.222L161.388 126.6L161.267 126.82L160.581 126.435V127.222H160.331V126.435L159.645 126.82L159.516 126.6L160.202 126.222L159.516 125.853L159.645 125.625L160.331 126.018V125.231H160.581V126.018L161.267 125.625L161.388 125.853L160.71 126.222Z" fill="#263238"/>
<path d="M162.929 126.222L163.607 126.6L163.478 126.82L162.792 126.435V127.222H162.542V126.435L161.864 126.82L161.727 126.6L162.413 126.222L161.727 125.853L161.864 125.625L162.542 126.018V125.231H162.792V126.018L163.478 125.625L163.607 125.853L162.929 126.222Z" fill="#263238"/>
<path d="M165.14 126.222L165.817 126.6L165.688 126.82L165.01 126.435V127.222H164.76V126.435L164.082 126.82L163.953 126.6L164.631 126.222L163.953 125.853L164.082 125.625L164.76 126.018V125.231H165.01V126.018L165.688 125.625L165.817 125.853L165.14 126.222Z" fill="#263238"/>
<path d="M167.351 126.222L168.029 126.6L167.908 126.82L167.222 126.435V127.222H166.971V126.435L166.285 126.82L166.156 126.6L166.834 126.222L166.156 125.853L166.285 125.625L166.971 126.018V125.231H167.222V126.018L167.908 125.625L168.029 125.853L167.351 126.222Z" fill="#263238"/>
<path d="M169.572 126.222L170.242 126.6L170.121 126.82L169.434 126.435V127.222H169.184V126.435L168.506 126.82L168.369 126.6L169.055 126.222L168.369 125.853L168.506 125.625L169.184 126.018V125.231H169.434V126.018L170.121 125.625L170.242 125.853L169.572 126.222Z" fill="#263238"/>
<path d="M147.061 115.555C147.061 116.342 146.472 116.829 145.503 116.829H144.478V118.002H144.066V114.296H145.495C146.472 114.296 147.061 114.768 147.061 115.555ZM146.657 115.555C146.657 114.957 146.254 114.619 145.487 114.619H144.478V116.483H145.495C146.254 116.499 146.657 116.161 146.657 115.555Z" fill="#263238"/>
<path d="M149.991 116.287V118.017H149.62V117.585C149.511 117.739 149.361 117.863 149.187 117.943C149.012 118.024 148.819 118.057 148.627 118.041C147.981 118.041 147.586 117.718 147.586 117.254C147.586 116.79 147.868 116.467 148.692 116.467H149.604V116.302C149.604 115.822 149.321 115.563 148.797 115.563C148.449 115.557 148.11 115.675 147.844 115.893L147.667 115.61C147.999 115.354 148.413 115.221 148.837 115.232C148.987 115.212 149.14 115.225 149.285 115.269C149.429 115.314 149.562 115.39 149.672 115.491C149.783 115.592 149.869 115.716 149.924 115.853C149.979 115.991 150.002 116.139 149.991 116.287ZM149.604 117.175V116.719H148.724C148.167 116.719 147.989 116.932 147.989 117.223C147.989 117.514 148.256 117.75 148.716 117.75C148.907 117.756 149.095 117.704 149.254 117.601C149.413 117.498 149.535 117.349 149.604 117.175Z" fill="#263238"/>
<path d="M150.645 117.703L150.814 117.404C151.114 117.609 151.472 117.719 151.839 117.718C152.38 117.718 152.606 117.537 152.606 117.254C152.606 116.53 150.749 117.105 150.749 115.995C150.749 115.539 151.153 115.209 151.879 115.209C152.236 115.204 152.588 115.294 152.896 115.468L152.727 115.767C152.475 115.608 152.18 115.525 151.879 115.531C151.363 115.531 151.137 115.728 151.137 115.995C151.137 116.782 152.993 116.184 152.993 117.254C152.993 117.742 152.557 118.041 151.807 118.041C151.392 118.054 150.984 117.935 150.645 117.703Z" fill="#263238"/>
<path d="M153.309 117.702L153.486 117.403C153.783 117.61 154.139 117.72 154.503 117.718C155.052 117.718 155.31 117.537 155.31 117.254C155.31 116.53 153.454 117.104 153.454 115.995C153.454 115.539 153.857 115.208 154.592 115.208C154.946 115.203 155.295 115.293 155.601 115.468L155.431 115.767C155.191 115.614 154.911 115.533 154.624 115.531C154.1 115.531 153.874 115.728 153.874 115.995C153.874 116.782 155.73 116.184 155.73 117.254C155.73 117.742 155.294 118.041 154.552 118.041C154.11 118.071 153.67 117.951 153.309 117.702Z" fill="#263238"/>
<path d="M160.531 115.224L159.442 118.017H159.079L158.175 115.728L157.271 118.017H156.9L155.826 115.224H156.197L157.093 117.584L158.013 115.224H158.352L159.264 117.584L160.176 115.224H160.531Z" fill="#263238"/>
<path d="M160.741 116.617C160.741 116.335 160.827 116.06 160.987 115.826C161.148 115.592 161.376 115.409 161.643 115.301C161.91 115.193 162.204 115.165 162.487 115.22C162.77 115.275 163.031 115.411 163.235 115.61C163.439 115.809 163.578 116.063 163.635 116.339C163.691 116.615 163.662 116.902 163.552 117.162C163.441 117.422 163.254 117.644 163.013 117.801C162.773 117.957 162.491 118.041 162.202 118.041C162.008 118.047 161.815 118.015 161.635 117.946C161.455 117.877 161.291 117.772 161.154 117.638C161.017 117.505 160.91 117.345 160.839 117.169C160.767 116.994 160.734 116.806 160.741 116.617ZM163.267 116.617C163.267 116.341 163.155 116.077 162.955 115.883C162.755 115.688 162.484 115.578 162.202 115.578C161.919 115.578 161.648 115.688 161.449 115.883C161.249 116.077 161.137 116.341 161.137 116.617C161.137 116.892 161.249 117.156 161.449 117.351C161.648 117.546 161.919 117.655 162.202 117.655C162.484 117.655 162.755 117.546 162.955 117.351C163.155 117.156 163.267 116.892 163.267 116.617Z" fill="#263238"/>
<path d="M165.9 115.201V115.555H165.803C165.667 115.549 165.531 115.572 165.405 115.623C165.279 115.674 165.166 115.752 165.074 115.85C164.983 115.948 164.914 116.065 164.874 116.192C164.834 116.319 164.823 116.454 164.842 116.585V118.009H164.455V115.216H164.867V115.759C164.964 115.578 165.114 115.428 165.297 115.329C165.481 115.23 165.69 115.185 165.9 115.201Z" fill="#263238"/>
<path d="M169.183 114.075V118.009H168.812V117.458C168.697 117.641 168.533 117.791 168.339 117.892C168.145 117.993 167.926 118.042 167.706 118.033C167.338 118.006 166.995 117.845 166.744 117.581C166.493 117.318 166.354 116.972 166.354 116.613C166.354 116.253 166.493 115.907 166.744 115.644C166.995 115.38 167.338 115.219 167.706 115.193C167.921 115.185 168.134 115.231 168.325 115.328C168.516 115.424 168.678 115.567 168.795 115.743V114.068L169.183 114.075ZM168.803 116.617C168.792 116.414 168.721 116.219 168.597 116.055C168.474 115.892 168.304 115.768 168.108 115.697C167.913 115.627 167.701 115.614 167.498 115.66C167.295 115.706 167.11 115.809 166.967 115.957C166.824 116.104 166.728 116.289 166.691 116.488C166.654 116.688 166.678 116.894 166.76 117.081C166.842 117.267 166.979 117.426 167.153 117.538C167.326 117.65 167.53 117.71 167.738 117.71C167.884 117.713 168.028 117.686 168.162 117.631C168.296 117.576 168.417 117.495 168.518 117.392C168.618 117.289 168.695 117.167 168.744 117.033C168.793 116.9 168.814 116.758 168.803 116.617Z" fill="#263238"/>
<path d="M174.922 146.236V149.965H174.55V146.582H173.646V146.236H174.922Z" fill="#263238"/>
<path d="M178.442 149.603V149.949H175.763V149.674L177.377 148.156C177.805 147.747 177.893 147.495 177.893 147.243C177.893 146.81 177.579 146.543 176.997 146.543C176.803 146.531 176.608 146.562 176.427 146.634C176.247 146.706 176.086 146.818 175.956 146.96L175.674 146.724C175.846 146.543 176.057 146.402 176.291 146.31C176.525 146.217 176.777 146.176 177.03 146.189C177.837 146.189 178.297 146.574 178.297 147.196C178.284 147.423 178.222 147.644 178.113 147.845C178.004 148.046 177.852 148.222 177.667 148.36L176.368 149.603H178.442Z" fill="#263238"/>
<path d="M181.459 148.88C181.459 149.501 180.991 149.981 180.071 149.981C179.568 149.996 179.078 149.825 178.699 149.501L178.885 149.194C179.208 149.483 179.633 149.639 180.071 149.627C180.709 149.627 181.056 149.344 181.056 148.88C181.056 148.416 180.733 148.14 180.023 148.14H179.748V147.857L180.806 146.567H178.853V146.236H181.274V146.512L180.2 147.81C181.048 147.865 181.459 148.282 181.459 148.88Z" fill="#263238"/>
<path d="M185.252 148.966H184.486V149.95H184.098V148.966H181.943V148.691L183.969 146.221H184.405L182.452 148.597H184.106V147.731H184.486V148.597H185.252V148.966Z" fill="#263238"/>
<path d="M189.635 148.848C189.635 149.485 189.183 149.981 188.247 149.981C187.744 149.996 187.254 149.824 186.875 149.501L187.069 149.194C187.224 149.339 187.408 149.451 187.609 149.526C187.81 149.6 188.024 149.634 188.239 149.627C188.893 149.627 189.232 149.32 189.232 148.84C189.232 148.36 188.925 148.054 187.956 148.054H187.149L187.351 146.181H189.442V146.527H187.69L187.561 147.707H188.053C189.199 147.747 189.635 148.195 189.635 148.848Z" fill="#263238"/>
<path d="M193 148.832C192.999 148.994 192.963 149.153 192.895 149.3C192.827 149.447 192.728 149.579 192.605 149.687C192.482 149.795 192.338 149.877 192.181 149.927C192.024 149.978 191.857 149.996 191.693 149.981C190.676 149.981 190.127 149.289 190.127 148.116C190.127 146.944 190.837 146.189 191.87 146.189C192.187 146.177 192.502 146.248 192.782 146.394L192.621 146.7C192.395 146.575 192.138 146.514 191.878 146.527C191.071 146.527 190.522 147.039 190.522 148.053C190.522 148.14 190.522 148.242 190.522 148.352C190.634 148.148 190.804 147.979 191.011 147.866C191.219 147.753 191.455 147.7 191.693 147.715C191.856 147.695 192.021 147.709 192.178 147.756C192.335 147.803 192.481 147.882 192.604 147.987C192.728 148.093 192.827 148.223 192.895 148.368C192.963 148.514 192.999 148.672 193 148.832ZM192.613 148.832C192.613 148.337 192.242 148.046 191.652 148.046C191.534 148.031 191.414 148.041 191.3 148.073C191.186 148.105 191.079 148.16 190.987 148.234C190.895 148.307 190.819 148.398 190.765 148.501C190.71 148.604 190.677 148.717 190.668 148.832C190.668 149.241 191.015 149.619 191.677 149.619C191.791 149.637 191.909 149.631 192.021 149.601C192.133 149.57 192.238 149.517 192.327 149.443C192.416 149.37 192.487 149.279 192.537 149.176C192.586 149.074 192.612 148.962 192.613 148.848V148.832Z" fill="#263238"/>
<path d="M196.1 146.236V146.512L194.486 149.965H194.058L195.632 146.582H193.671V147.275H193.283V146.236H196.1Z" fill="#263238"/>
<path d="M199.45 148.911C199.45 149.572 198.877 149.981 197.965 149.981C197.053 149.981 196.496 149.572 196.496 148.911C196.494 148.699 196.565 148.493 196.698 148.326C196.832 148.159 197.019 148.041 197.231 147.991C197.055 147.945 196.9 147.842 196.791 147.699C196.683 147.556 196.627 147.382 196.633 147.204C196.633 146.598 197.158 146.221 197.965 146.221C198.772 146.221 199.313 146.598 199.313 147.204C199.31 147.382 199.249 147.554 199.139 147.696C199.028 147.837 198.874 147.941 198.699 147.991C198.913 148.039 199.103 148.156 199.24 148.323C199.376 148.49 199.45 148.698 199.45 148.911ZM199.047 148.911C199.047 148.455 198.643 148.164 197.965 148.164C197.287 148.164 196.892 148.455 196.892 148.911C196.892 149.368 197.287 149.698 197.965 149.698C198.643 149.698 199.047 149.383 199.047 148.903V148.911ZM197.957 147.857C198.554 147.857 198.909 147.597 198.909 147.188C198.909 146.779 198.53 146.52 197.957 146.52C197.384 146.52 197.013 146.771 197.013 147.188C197.013 147.605 197.368 147.857 197.957 147.857Z" fill="#263238"/>
<path d="M204.179 148.053C204.179 149.32 203.469 149.981 202.428 149.981C202.113 149.991 201.802 149.921 201.524 149.776L201.685 149.469C201.911 149.595 202.169 149.655 202.428 149.642C203.235 149.642 203.776 149.123 203.776 148.116C203.783 148.017 203.783 147.917 203.776 147.817C203.667 148.023 203.499 148.193 203.293 148.306C203.086 148.419 202.85 148.471 202.614 148.455C202.452 148.472 202.288 148.456 202.133 148.409C201.978 148.361 201.835 148.281 201.713 148.176C201.591 148.071 201.494 147.942 201.426 147.797C201.359 147.653 201.324 147.496 201.322 147.337C201.324 147.176 201.36 147.017 201.428 146.87C201.496 146.723 201.594 146.591 201.717 146.483C201.84 146.375 201.985 146.293 202.142 146.242C202.299 146.192 202.465 146.174 202.63 146.189C203.606 146.189 204.179 146.881 204.179 148.053ZM203.639 147.314C203.639 146.905 203.292 146.527 202.63 146.527C202.513 146.509 202.394 146.515 202.281 146.547C202.168 146.578 202.063 146.633 201.974 146.708C201.884 146.783 201.813 146.876 201.765 146.981C201.716 147.085 201.692 147.199 201.694 147.314C201.694 147.809 202.065 148.101 202.654 148.101C202.887 148.118 203.118 148.045 203.296 147.898C203.474 147.751 203.586 147.541 203.606 147.314H203.639Z" fill="#263238"/>
<path d="M205.794 146.236V149.965H205.398V146.582H204.494V146.236H205.794Z" fill="#263238"/>
<path d="M206.697 148.085C206.697 146.897 207.343 146.189 208.223 146.189C209.102 146.189 209.748 146.897 209.748 148.085C209.748 149.273 209.11 149.981 208.223 149.981C207.335 149.981 206.697 149.273 206.697 148.085ZM209.344 148.085C209.344 147.094 208.893 146.512 208.223 146.512C207.553 146.512 207.101 147.062 207.101 148.085C207.101 149.108 207.561 149.658 208.223 149.658C208.884 149.658 209.344 149.076 209.344 148.085Z" fill="#263238"/>
<path d="M211.362 146.236V149.965H210.966V146.582H210.062V146.236H211.362Z" fill="#263238"/>
<path d="M214.76 146.236V149.965H214.365V146.582H213.461V146.236H214.76Z" fill="#263238"/>
<path d="M216.721 146.236V149.965H216.334V146.582H215.43V146.236H216.721Z" fill="#263238"/>
<path d="M220.239 149.603V149.949H217.559V149.674L219.174 148.156C219.601 147.747 219.69 147.495 219.69 147.243C219.69 146.81 219.375 146.543 218.794 146.543C218.6 146.531 218.405 146.562 218.224 146.634C218.044 146.707 217.883 146.818 217.753 146.96L217.471 146.724C217.643 146.544 217.854 146.404 218.088 146.311C218.322 146.219 218.574 146.177 218.827 146.189C219.634 146.189 220.094 146.574 220.094 147.196C220.081 147.423 220.019 147.644 219.91 147.845C219.801 148.046 219.649 148.222 219.464 148.36L218.133 149.603H220.239Z" fill="#263238"/>
<path d="M221.788 146.236V149.965H221.361V146.582H220.465V146.236H221.788Z" fill="#263238"/>
<path d="M157.432 145.371V144.804C157.432 144.542 157.325 144.289 157.134 144.104C156.944 143.918 156.685 143.813 156.415 143.813H146.109C145.839 143.813 145.58 143.918 145.39 144.104C145.199 144.289 145.092 144.542 145.092 144.804V145.371H157.432Z" fill="#263238"/>
<path d="M145.092 146.15V150.319C145.092 150.582 145.199 150.834 145.39 151.02C145.58 151.206 145.839 151.31 146.109 151.31H156.415C156.685 151.31 156.944 151.206 157.134 151.02C157.325 150.834 157.432 150.582 157.432 150.319V146.15H145.092Z" fill="#263238"/>
<path d="M145.246 168.107C145.246 166.919 145.884 166.219 146.771 166.219C147.659 166.219 148.297 166.919 148.297 168.107C148.297 169.295 147.651 170.003 146.771 170.003C145.892 170.003 145.246 169.295 145.246 168.107ZM147.893 168.107C147.893 167.115 147.433 166.533 146.771 166.533C146.11 166.533 145.65 167.084 145.65 168.107C145.65 169.129 146.102 169.68 146.771 169.68C147.441 169.68 147.918 169.106 147.918 168.107H147.893Z" fill="#263238"/>
<path d="M151.792 168.933C151.792 169.594 151.219 170.003 150.307 170.003C149.395 170.003 148.838 169.594 148.838 168.933C148.834 168.722 148.905 168.516 149.039 168.349C149.173 168.183 149.361 168.067 149.572 168.02C149.401 167.966 149.252 167.861 149.145 167.72C149.037 167.579 148.978 167.409 148.975 167.233C148.975 166.628 149.5 166.25 150.307 166.25C151.114 166.25 151.655 166.628 151.655 167.233C151.65 167.41 151.589 167.58 151.481 167.721C151.372 167.862 151.222 167.966 151.049 168.02C151.261 168.067 151.451 168.183 151.586 168.349C151.721 168.515 151.794 168.721 151.792 168.933ZM151.388 168.933C151.388 168.476 150.985 168.193 150.307 168.193C149.629 168.193 149.233 168.476 149.233 168.933C149.233 169.389 149.637 169.719 150.307 169.719C150.977 169.719 151.388 169.389 151.388 168.925V168.933ZM150.339 167.878C150.936 167.878 151.292 167.619 151.292 167.218C151.292 166.816 150.912 166.541 150.339 166.541C149.766 166.541 149.395 166.793 149.395 167.21C149.395 167.627 149.718 167.878 150.339 167.878Z" fill="#263238"/>
<path d="M153.721 165.495H154.076L152.268 170.498H151.953L153.721 165.495Z" fill="#263238"/>
<path d="M156.796 169.625V169.971H154.116V169.696L155.73 168.185C156.158 167.768 156.239 167.517 156.239 167.265C156.239 166.832 155.932 166.565 155.351 166.565C155.155 166.552 154.959 166.584 154.777 166.656C154.596 166.728 154.433 166.839 154.302 166.982L154.027 166.746C154.199 166.566 154.41 166.425 154.645 166.334C154.879 166.243 155.131 166.203 155.383 166.218C156.19 166.218 156.642 166.596 156.642 167.218C156.634 167.444 156.574 167.667 156.467 167.868C156.359 168.07 156.207 168.245 156.021 168.382L154.721 169.625H156.796Z" fill="#263238"/>
<path d="M159.854 168.87C159.854 169.507 159.402 170.003 158.466 170.003C157.963 170.017 157.473 169.846 157.094 169.523L157.287 169.216C157.443 169.36 157.627 169.473 157.828 169.547C158.029 169.622 158.243 169.656 158.458 169.649C159.111 169.649 159.45 169.342 159.45 168.862C159.45 168.382 159.152 168.075 158.175 168.075H157.368L157.562 166.211H159.652V166.549H157.901L157.772 167.737H158.264C159.418 167.776 159.854 168.217 159.854 168.87Z" fill="#263238"/>
<path d="M147.03 163.851V164.063H145.352V161.75H146.966V161.97H145.594V162.757H146.82V162.969H145.594V163.827L147.03 163.851Z" fill="#263238"/>
<path d="M149.071 164.063L148.312 163.04L147.505 164.063H147.215L148.119 162.875L147.312 161.75H147.594L148.312 162.694L149.023 161.75H149.289L148.482 162.867L149.386 164.063H149.071Z" fill="#263238"/>
<path d="M151.589 162.545C151.589 163.032 151.217 163.331 150.62 163.331H149.983V164.063H149.732V161.75H150.62C151.217 161.75 151.589 162.049 151.589 162.545ZM151.339 162.545C151.339 162.175 151.088 161.962 150.612 161.962H149.983V163.119H150.612C151.088 163.119 151.339 162.906 151.339 162.545Z" fill="#263238"/>
<path d="M153.059 161.75H154.019C154.334 161.75 154.635 161.872 154.858 162.089C155.08 162.306 155.205 162.6 155.205 162.906C155.205 163.213 155.08 163.507 154.858 163.724C154.635 163.941 154.334 164.063 154.019 164.063H153.059V161.75ZM154.003 163.851C154.26 163.851 154.506 163.751 154.688 163.574C154.869 163.397 154.971 163.157 154.971 162.906C154.971 162.656 154.869 162.416 154.688 162.239C154.506 162.062 154.26 161.962 154.003 161.962H153.309V163.851H154.003Z" fill="#263238"/>
<path d="M157.149 162.985V164.063H156.915V163.787C156.85 163.886 156.758 163.965 156.65 164.016C156.542 164.067 156.422 164.089 156.302 164.079C155.906 164.079 155.656 163.874 155.656 163.575C155.656 163.276 155.834 163.079 156.342 163.079H156.907V162.977C156.914 162.912 156.906 162.847 156.883 162.786C156.86 162.725 156.823 162.67 156.774 162.625C156.726 162.58 156.668 162.547 156.604 162.527C156.54 162.508 156.473 162.503 156.407 162.513C156.189 162.51 155.977 162.582 155.81 162.718L155.705 162.544C155.911 162.385 156.168 162.302 156.431 162.308C156.527 162.295 156.624 162.302 156.716 162.331C156.808 162.36 156.892 162.409 156.961 162.474C157.031 162.54 157.084 162.62 157.116 162.708C157.149 162.797 157.16 162.892 157.149 162.985ZM156.907 163.536V163.253H156.35C156.003 163.253 155.89 163.386 155.89 163.567C155.89 163.748 156.06 163.89 156.342 163.89C156.462 163.898 156.581 163.869 156.683 163.807C156.784 163.744 156.863 163.652 156.907 163.544V163.536Z" fill="#263238"/>
<path d="M158.74 163.953C158.637 164.04 158.504 164.085 158.369 164.079C158.299 164.086 158.228 164.078 158.161 164.056C158.095 164.033 158.034 163.996 157.984 163.948C157.934 163.9 157.895 163.841 157.871 163.777C157.847 163.713 157.838 163.644 157.844 163.575V162.521H157.529V162.324H157.844V161.97H158.086V162.348H158.627V162.545H158.086V163.544C158.08 163.585 158.083 163.628 158.096 163.667C158.109 163.707 158.131 163.744 158.161 163.774C158.19 163.804 158.227 163.828 158.267 163.842C158.307 163.857 158.35 163.863 158.393 163.859C158.489 163.86 158.583 163.83 158.659 163.772L158.74 163.953Z" fill="#263238"/>
<path d="M160.669 163.268H159.216C159.228 163.438 159.309 163.596 159.441 163.708C159.572 163.82 159.744 163.877 159.918 163.866C160.021 163.87 160.124 163.852 160.219 163.813C160.314 163.773 160.399 163.713 160.467 163.638L160.604 163.795C160.516 163.888 160.408 163.962 160.289 164.011C160.169 164.06 160.04 164.083 159.91 164.079C159.788 164.085 159.665 164.067 159.551 164.025C159.436 163.983 159.332 163.918 159.244 163.834C159.157 163.75 159.088 163.65 159.043 163.539C158.998 163.428 158.977 163.309 158.982 163.19C158.975 163.076 158.993 162.961 159.033 162.854C159.074 162.747 159.136 162.649 159.217 162.566C159.298 162.484 159.396 162.418 159.504 162.374C159.612 162.33 159.728 162.307 159.845 162.309C159.965 162.299 160.085 162.316 160.196 162.358C160.308 162.4 160.409 162.465 160.492 162.549C160.574 162.634 160.637 162.735 160.674 162.846C160.712 162.956 160.724 163.074 160.709 163.19L160.669 163.268ZM159.176 163.087H160.443C160.425 162.936 160.351 162.795 160.234 162.694C160.117 162.592 159.966 162.536 159.809 162.536C159.652 162.536 159.501 162.592 159.384 162.694C159.267 162.795 159.193 162.936 159.176 163.087Z" fill="#263238"/>
<path d="M190.321 166.25V169.971H189.933V166.588H189.029V166.25H190.321Z" fill="#263238"/>
<path d="M193.841 169.625V169.971H191.161V169.696L192.775 168.185C193.203 167.768 193.292 167.516 193.292 167.265C193.292 166.832 192.977 166.564 192.396 166.564C192.201 166.552 192.006 166.583 191.826 166.656C191.645 166.728 191.484 166.839 191.355 166.981L191.072 166.745C191.245 166.566 191.456 166.426 191.69 166.335C191.925 166.244 192.176 166.204 192.428 166.218C193.235 166.218 193.695 166.596 193.695 167.217C193.683 167.444 193.62 167.666 193.511 167.867C193.403 168.068 193.251 168.243 193.066 168.382L191.766 169.625H193.841Z" fill="#263238"/>
<path d="M196.858 168.901C196.858 169.523 196.39 170.003 195.47 170.003C194.966 170.018 194.476 169.846 194.098 169.523L194.291 169.216C194.448 169.361 194.633 169.475 194.835 169.549C195.038 169.623 195.254 169.657 195.47 169.649C196.107 169.649 196.454 169.365 196.454 168.901C196.454 168.437 196.131 168.162 195.421 168.162H195.147V167.878L196.204 166.588H194.251V166.25H196.672V166.517L195.591 167.839C196.446 167.886 196.858 168.303 196.858 168.901Z" fill="#263238"/>
<path d="M189.158 162.907C189.156 162.748 189.187 162.591 189.249 162.445C189.311 162.299 189.403 162.166 189.519 162.056C189.636 161.945 189.774 161.859 189.925 161.803C190.077 161.746 190.239 161.72 190.401 161.727C190.561 161.721 190.721 161.749 190.87 161.807C191.018 161.865 191.153 161.953 191.265 162.065L191.111 162.222C191.02 162.132 190.91 162.062 190.789 162.014C190.669 161.967 190.539 161.944 190.409 161.947C190.273 161.935 190.136 161.951 190.006 161.993C189.876 162.036 189.757 162.104 189.656 162.194C189.555 162.284 189.475 162.393 189.419 162.515C189.364 162.637 189.336 162.769 189.336 162.903C189.336 163.036 189.364 163.168 189.419 163.29C189.475 163.412 189.555 163.521 189.656 163.611C189.757 163.701 189.876 163.77 190.006 163.812C190.136 163.855 190.273 163.871 190.409 163.859C190.54 163.863 190.669 163.841 190.79 163.794C190.911 163.746 191.021 163.675 191.111 163.583L191.265 163.741C191.153 163.854 191.017 163.944 190.867 164.002C190.716 164.06 190.555 164.087 190.393 164.079C190.232 164.085 190.071 164.06 189.92 164.003C189.77 163.947 189.632 163.862 189.517 163.752C189.401 163.642 189.31 163.511 189.248 163.365C189.187 163.22 189.156 163.064 189.158 162.907Z" fill="#263238"/>
<path d="M195.035 161.75L194.228 164.063H193.962L193.268 162.088L192.573 164.063H192.307L191.5 161.75H191.758L192.444 163.74L193.155 161.75H193.389L194.083 163.748L194.777 161.75H195.035Z" fill="#263238"/>
<path d="M169.151 189.961H167.02L166.56 190.961H166.141L167.884 187.24H168.287L170.031 190.961H169.603L169.151 189.961ZM168.998 189.647L168.094 187.649L167.174 189.647H168.998Z" fill="#263238"/>
<path d="M170.265 189.56C170.258 189.37 170.291 189.18 170.363 189.004C170.435 188.827 170.544 188.666 170.683 188.533C170.822 188.399 170.987 188.294 171.17 188.226C171.352 188.158 171.547 188.127 171.742 188.136C171.963 188.123 172.183 188.168 172.38 188.267C172.578 188.365 172.744 188.513 172.863 188.695L172.581 188.884C172.49 188.756 172.37 188.652 172.229 188.579C172.089 188.507 171.933 188.468 171.774 188.467C171.476 188.467 171.191 188.582 170.981 188.787C170.77 188.992 170.652 189.27 170.652 189.56C170.652 189.85 170.77 190.128 170.981 190.333C171.191 190.538 171.476 190.654 171.774 190.654C171.932 190.652 172.087 190.615 172.228 190.544C172.368 190.473 172.489 190.37 172.581 190.245L172.863 190.433C172.742 190.613 172.575 190.758 172.378 190.855C172.181 190.951 171.962 190.996 171.742 190.984C171.547 190.993 171.352 190.962 171.17 190.894C170.987 190.826 170.822 190.721 170.683 190.588C170.544 190.454 170.435 190.293 170.363 190.117C170.291 189.94 170.258 189.75 170.265 189.56Z" fill="#263238"/>
<path d="M175.165 190.787C174.995 190.923 174.779 190.993 174.56 190.984C174.452 190.991 174.344 190.975 174.243 190.938C174.141 190.901 174.05 190.844 173.973 190.769C173.897 190.695 173.838 190.605 173.799 190.506C173.761 190.408 173.745 190.302 173.753 190.197V188.482H173.244V188.16H173.745V187.546H174.132V188.16H175.012V188.482H174.132V190.15C174.122 190.218 174.128 190.286 174.149 190.351C174.17 190.416 174.206 190.475 174.254 190.525C174.302 190.574 174.362 190.612 174.427 190.636C174.493 190.659 174.563 190.668 174.632 190.661C174.787 190.664 174.939 190.614 175.06 190.52L175.165 190.787Z" fill="#263238"/>
<path d="M175.785 187.279C175.785 187.205 175.815 187.135 175.868 187.084C175.921 187.032 175.993 187.003 176.068 187.003C176.143 187.003 176.214 187.032 176.267 187.084C176.32 187.135 176.35 187.205 176.35 187.279C176.35 187.352 176.32 187.422 176.267 187.473C176.214 187.525 176.143 187.554 176.068 187.554C175.993 187.554 175.921 187.525 175.868 187.473C175.815 187.422 175.785 187.352 175.785 187.279ZM175.874 188.16H176.261V190.96H175.874V188.16Z" fill="#263238"/>
<path d="M177.046 189.56C177.046 189.279 177.131 189.004 177.291 188.77C177.451 188.536 177.679 188.353 177.945 188.245C178.212 188.137 178.505 188.109 178.788 188.163C179.072 188.217 179.332 188.352 179.536 188.551C179.741 188.749 179.881 189.002 179.938 189.278C179.995 189.553 179.968 189.839 179.858 190.1C179.749 190.36 179.563 190.583 179.324 190.74C179.085 190.898 178.803 190.983 178.514 190.984C178.32 190.991 178.127 190.958 177.946 190.889C177.766 190.82 177.601 190.716 177.464 190.582C177.326 190.449 177.218 190.289 177.146 190.113C177.074 189.938 177.04 189.749 177.046 189.56ZM179.572 189.56C179.561 189.357 179.489 189.162 179.365 188.998C179.241 188.835 179.07 188.71 178.874 188.64C178.679 188.57 178.466 188.558 178.263 188.605C178.06 188.651 177.876 188.755 177.733 188.903C177.589 189.051 177.494 189.237 177.458 189.437C177.423 189.637 177.448 189.843 177.531 190.03C177.614 190.216 177.752 190.375 177.927 190.486C178.101 190.596 178.306 190.655 178.514 190.654C178.659 190.655 178.803 190.627 178.936 190.572C179.069 190.517 179.189 190.435 179.289 190.332C179.388 190.23 179.464 190.108 179.513 189.975C179.562 189.842 179.582 189.701 179.572 189.56Z" fill="#263238"/>
<path d="M183.428 189.34V190.96H183.041V189.387C183.057 189.271 183.046 189.152 183.009 189.041C182.972 188.929 182.91 188.827 182.827 188.741C182.744 188.656 182.643 188.59 182.53 188.548C182.418 188.506 182.297 188.489 182.177 188.498C182.04 188.488 181.903 188.507 181.775 188.555C181.646 188.603 181.53 188.677 181.435 188.773C181.339 188.869 181.267 188.984 181.222 189.111C181.177 189.237 181.162 189.372 181.176 189.505V190.976H180.789V188.175H181.16V188.718C181.277 188.542 181.439 188.399 181.63 188.304C181.821 188.209 182.035 188.164 182.25 188.175C182.409 188.165 182.568 188.188 182.717 188.243C182.866 188.297 183.002 188.383 183.113 188.494C183.225 188.604 183.311 188.737 183.366 188.883C183.42 189.029 183.441 189.185 183.428 189.34Z" fill="#263238"/>
<path d="M186.366 187.577V189.041H188.336V189.379H186.366V190.952H185.963V187.231H188.578V187.57L186.366 187.577Z" fill="#263238"/>
<path d="M189.191 187.279C189.191 187.205 189.221 187.135 189.274 187.084C189.327 187.032 189.399 187.003 189.474 187.003C189.549 187.003 189.621 187.032 189.674 187.084C189.727 187.135 189.756 187.205 189.756 187.279C189.756 187.352 189.727 187.422 189.674 187.473C189.621 187.525 189.549 187.554 189.474 187.554C189.399 187.554 189.327 187.525 189.274 187.473C189.221 187.422 189.191 187.352 189.191 187.279ZM189.272 188.16H189.66V190.96H189.272V188.16Z" fill="#263238"/>
<path d="M193.396 188.16V190.622C193.426 190.812 193.41 191.006 193.349 191.188C193.288 191.37 193.184 191.536 193.045 191.672C192.905 191.808 192.735 191.909 192.548 191.969C192.361 192.028 192.162 192.044 191.968 192.015C191.483 192.035 191.007 191.884 190.628 191.59L190.821 191.299C191.139 191.554 191.54 191.691 191.951 191.684C192.678 191.684 193.009 191.354 193.009 190.669V190.292C192.887 190.468 192.72 190.611 192.525 190.706C192.33 190.801 192.113 190.845 191.895 190.835C191.703 190.849 191.51 190.824 191.329 190.763C191.147 190.701 190.981 190.603 190.84 190.476C190.699 190.348 190.586 190.194 190.509 190.022C190.432 189.85 190.393 189.665 190.393 189.477C190.393 189.29 190.432 189.105 190.509 188.933C190.586 188.761 190.699 188.607 190.84 188.479C190.981 188.352 191.147 188.254 191.329 188.192C191.51 188.131 191.703 188.106 191.895 188.12C192.116 188.112 192.337 188.159 192.534 188.256C192.732 188.354 192.901 188.5 193.025 188.679V188.144L193.396 188.16ZM193.025 189.489C193.031 189.278 192.973 189.07 192.857 188.891C192.741 188.712 192.573 188.571 192.375 188.486C192.177 188.401 191.957 188.375 191.743 188.412C191.53 188.45 191.333 188.548 191.177 188.696C191.021 188.843 190.914 189.032 190.87 189.239C190.825 189.446 190.844 189.661 190.926 189.857C191.007 190.053 191.147 190.22 191.327 190.338C191.507 190.457 191.718 190.52 191.935 190.52C192.077 190.529 192.218 190.509 192.351 190.461C192.484 190.414 192.606 190.34 192.708 190.245C192.81 190.15 192.891 190.035 192.946 189.907C193 189.78 193.027 189.643 193.025 189.505V189.489Z" fill="#263238"/>
<path d="M197.069 188.16V190.96H196.698V190.449C196.591 190.62 196.439 190.761 196.257 190.855C196.075 190.949 195.871 190.994 195.665 190.984C195.5 190.999 195.334 190.978 195.178 190.923C195.023 190.867 194.882 190.779 194.766 190.663C194.65 190.548 194.562 190.409 194.508 190.256C194.454 190.103 194.436 189.941 194.454 189.78V188.16H194.842V189.733C194.824 189.85 194.834 189.969 194.871 190.082C194.907 190.195 194.969 190.298 195.052 190.384C195.135 190.47 195.237 190.537 195.35 190.58C195.463 190.622 195.585 190.64 195.705 190.63C195.841 190.637 195.976 190.614 196.102 190.565C196.228 190.515 196.342 190.439 196.435 190.343C196.528 190.246 196.598 190.131 196.64 190.006C196.683 189.88 196.697 189.747 196.682 189.615V188.144L197.069 188.16Z" fill="#263238"/>
<path d="M199.57 188.136V188.506H199.473C199.336 188.5 199.199 188.524 199.072 188.575C198.945 188.627 198.831 188.705 198.739 188.804C198.647 188.903 198.578 189.021 198.537 189.149C198.497 189.277 198.485 189.412 198.505 189.544V190.968H198.117V188.168H198.488V188.718C198.589 188.527 198.745 188.37 198.938 188.266C199.131 188.163 199.351 188.117 199.57 188.136Z" fill="#263238"/>
<path d="M202.799 189.678H200.378C200.386 189.815 200.422 189.948 200.483 190.071C200.544 190.194 200.63 190.304 200.735 190.395C200.84 190.485 200.962 190.555 201.095 190.599C201.227 190.644 201.368 190.662 201.508 190.654C201.673 190.658 201.837 190.627 201.989 190.563C202.141 190.5 202.277 190.404 202.387 190.284L202.605 190.528C202.399 190.739 202.134 190.885 201.843 190.95C201.552 191.014 201.247 190.994 200.968 190.89C200.689 190.787 200.447 190.606 200.273 190.369C200.099 190.133 200.001 189.851 199.99 189.56C199.98 189.375 200.009 189.19 200.076 189.017C200.142 188.843 200.244 188.685 200.376 188.552C200.507 188.418 200.666 188.312 200.841 188.241C201.016 188.169 201.205 188.134 201.395 188.136C201.584 188.133 201.772 188.167 201.947 188.239C202.122 188.31 202.28 188.416 202.411 188.55C202.542 188.684 202.642 188.843 202.706 189.017C202.77 189.191 202.796 189.376 202.783 189.56C202.783 189.56 202.799 189.631 202.799 189.678ZM200.378 189.395H202.411C202.411 189.132 202.304 188.88 202.114 188.694C201.923 188.508 201.664 188.404 201.395 188.404C201.125 188.404 200.866 188.508 200.675 188.694C200.485 188.88 200.378 189.132 200.378 189.395Z" fill="#263238"/>
<path d="M166.275 206.012V207.648H164.782V206.075C163.448 206.034 162.153 205.628 161.045 204.903L161.852 203.125C162.714 203.712 163.718 204.069 164.766 204.163V201.724C163.095 201.323 161.239 200.788 161.239 198.695C161.239 197.122 162.393 195.816 164.766 195.549V193.928H166.259V195.501C167.332 195.561 168.375 195.868 169.301 196.398L168.551 198.192C167.847 197.785 167.068 197.517 166.259 197.405V199.891C167.921 200.269 169.753 200.812 169.753 202.873C169.769 204.423 168.631 205.736 166.275 206.012ZM164.782 199.561V197.5C163.975 197.673 163.668 198.098 163.668 198.577C163.668 199.057 164.12 199.356 164.782 199.561ZM167.356 203.077C167.356 202.566 166.92 202.291 166.275 202.07V204.084C167.025 203.927 167.356 203.549 167.356 203.077Z" fill="#263238"/>
<path d="M178.607 203.966V205.902H170.682V204.368L174.717 200.639C175.653 199.773 175.815 199.254 175.815 198.751C175.815 197.964 175.242 197.484 174.136 197.484C173.716 197.468 173.298 197.553 172.919 197.731C172.541 197.91 172.213 198.176 171.965 198.507L170.197 197.397C170.675 196.768 171.306 196.265 172.033 195.933C172.76 195.6 173.56 195.449 174.362 195.494C176.702 195.494 178.26 196.666 178.26 198.522C178.26 199.514 177.969 200.418 176.501 201.748L174.079 203.966H178.607Z" fill="#263238"/>
<path d="M179.584 200.788C179.584 197.413 181.505 195.494 184.079 195.494C186.654 195.494 188.575 197.413 188.575 200.788C188.575 204.163 186.67 206.075 184.079 206.075C181.489 206.075 179.584 204.163 179.584 200.788ZM186.137 200.788C186.137 198.428 185.33 197.5 184.079 197.5C182.828 197.5 182.046 198.46 182.046 200.788C182.046 203.117 182.853 204.069 184.079 204.069C185.306 204.069 186.105 203.109 186.105 200.788H186.137Z" fill="#263238"/>
<path d="M189.76 200.788C189.76 197.413 191.681 195.494 194.255 195.494C196.83 195.494 198.751 197.413 198.751 200.788C198.751 204.163 196.846 206.075 194.255 206.075C191.664 206.075 189.76 204.163 189.76 200.788ZM196.305 200.788C196.305 198.428 195.498 197.5 194.255 197.5C193.012 197.5 192.213 198.46 192.213 200.788C192.213 203.117 193.02 204.069 194.255 204.069C195.49 204.069 196.305 203.109 196.305 200.788Z" fill="#263238"/>
<path d="M199.951 200.946C199.951 197.571 201.872 195.652 204.447 195.652C207.021 195.652 208.942 197.571 208.942 200.946C208.942 204.321 207.037 206.233 204.447 206.233C201.856 206.233 199.951 204.321 199.951 200.946ZM206.497 200.946C206.497 198.586 205.69 197.658 204.447 197.658C203.204 197.658 202.405 198.618 202.405 200.946C202.405 203.275 203.212 204.227 204.447 204.227C205.681 204.227 206.497 203.267 206.497 200.946Z" fill="#263238"/>
<path d="M133.946 207.788C135.157 225.922 126.537 246.116 126.537 246.116L79.9767 233.34L71.8574 231.106C79.9282 220.179 83.7699 198.654 81.6635 181.237C81.502 179.923 81.4052 178.688 81.3326 177.508C80.5255 163.142 86.6512 158.941 91.8246 152.593C97.4742 145.717 110.049 119.756 110.049 113.611C110.049 107.467 125.827 92.4255 122.316 75.3539C122.316 75.3539 127.086 72.4667 131.88 74.8347C134.059 75.9046 136.23 78.0523 137.982 82.0331C142.09 91.387 136.319 117.828 131.412 124.311L121.961 162.45C121.961 162.45 125.149 167.808 128.28 177.531C131.393 187.362 133.295 197.519 133.946 207.788Z" fill="white"/>
<path opacity="0.4" d="M81.3337 177.508C83.9729 184.549 86.7735 189.308 86.5313 199.174C86.2892 209.039 80.8818 224.222 82.4233 232.113C81.5426 232.366 80.7205 232.783 80.002 233.34L71.8828 231.106C79.9536 220.179 83.7953 198.654 81.6889 181.237C81.5032 179.923 81.4064 178.688 81.3337 177.508Z" fill="#52DEE5"/>
<path opacity="0.4" d="M131.413 124.311L121.962 162.45C121.962 162.45 125.15 167.808 128.281 177.531C121.881 167.477 116.441 164.472 116.441 164.472C120.703 159.492 123.988 123.068 123.988 123.068C123.988 123.068 137.345 107.766 136.094 91.7568C135.692 85.9228 134.267 80.1991 131.881 74.8347C134.06 75.9046 136.231 78.0523 137.982 82.0331C142.09 91.387 136.32 117.828 131.413 124.311Z" fill="#52DEE5"/>
<path d="M71.8574 231.106C79.9282 220.179 83.7699 198.654 81.6715 181.237C79.5731 163.819 86.2235 159.461 91.8327 152.585C97.4419 145.709 110.049 119.756 110.049 113.604C110.049 107.452 125.819 92.4334 122.316 75.354C122.316 75.354 132.38 69.2728 137.982 82.0331C142.09 91.3949 136.319 117.828 131.412 124.319L121.969 162.45C121.969 162.45 132.05 179.404 133.946 207.788C135.157 225.922 126.537 246.124 126.537 246.124" stroke="#263238" stroke-linecap="round" stroke-linejoin="round"/>
<path d="M102.979 260.631C102.979 260.631 113.575 266.988 119.758 277.042" stroke="#263238" stroke-linecap="round" stroke-linejoin="round"/>
<path d="M132.744 272.66C132.744 272.66 123.616 273.927 115.367 264.305C110.081 258.145 94.0279 255.36 90.3477 239.249" stroke="#263238" stroke-linecap="round" stroke-linejoin="round"/>
<path opacity="0.2" d="M265.412 320.303C242.047 309.407 256.196 300.675 224.05 287.151C191.904 273.628 191.581 262.071 195.455 235.496C199.329 208.921 196.262 180.655 205.608 178.255C214.954 175.856 198.296 139.203 209.191 126.246L262.814 227.92L265.412 320.303Z" fill="black" fill-opacity="0.7"/>
<path d="M352.473 319.241C351.375 316.18 350.261 312.837 349.398 309.8C348.284 305.867 347.412 302.72 345.362 299.062C345.039 298.48 344.692 297.866 344.305 297.205C342.118 293.405 339.123 288.205 337.372 281.817C336.194 277.514 337.372 266.917 338.47 256.643C339.277 249.263 340.011 242.301 339.793 238.352L339.729 236.951C339.18 226.622 338.034 205.129 335.693 199.189C333.393 193.462 331.246 192.605 327.332 191.078C326.928 190.905 326.525 190.748 326.057 190.559C324.588 189.961 322.086 188.703 319.205 187.247C312.708 183.967 304.621 179.884 300.513 179.38C296.67 178.959 292.782 179.134 288.996 179.899C283.935 176.115 275.324 171.246 272.757 171.143C270.659 171.041 266.075 172.323 263.879 172.992L262.774 173.338C261.384 172.287 259.91 171.345 258.367 170.522C258.262 170.467 258.157 170.427 258.068 170.388C255.219 169.247 250.918 169.208 248.569 169.271C247.859 169.271 247.302 169.342 247.052 169.365C242.621 162.718 238.263 156.102 236.366 153.199C232.411 147.094 220.168 121.974 220.047 121.73C220.033 121.698 220.01 121.67 219.982 121.648C219.954 121.626 219.921 121.611 219.885 121.604C219.848 121.599 219.81 121.599 219.772 121.604C218.82 121.337 211.806 119.598 208.99 126.222C205.907 133.436 210.305 149.273 214.599 155.024C216.665 157.793 222.307 169.09 228.029 180.78C226.56 182.11 214.809 192.691 209.103 194.666C204.43 196.279 205.527 219.628 206.407 238.375C206.738 245.298 207.012 251.254 206.932 254.833C206.77 261.756 219.692 271.291 232.218 280.511C243.517 288.866 255.235 297.496 256.608 303.766C256.987 305.528 258.068 306.96 259.36 308.573C261.515 311.248 264.291 314.402 265.469 320.374C265.816 322.167 268.77 324.512 271.119 328.343H355.895C355.184 326.478 353.845 323.08 352.473 319.241ZM234.905 194.863C239.013 203.249 241.555 208.237 242.169 208.795C242.782 209.354 242.742 212.013 242.726 214.601C242.637 216.867 242.718 219.136 242.968 221.39C241.967 222.248 235.648 227.857 234.372 232.404L229.005 226.244L227.649 206.915C228.457 206.081 233.977 200.393 234.905 194.863Z" fill="white"/>
<path opacity="0.4" d="M328.148 248.752C330.141 266.885 330.165 276.719 332.401 281.967C336.178 290.825 341.739 292.619 341.739 292.619C339.89 289.185 338.421 285.569 337.357 281.833C336.186 277.53 337.357 266.933 338.454 256.658C339.261 249.279 340.004 242.309 339.794 238.359L339.721 236.959C339.173 226.638 338.026 205.145 335.686 199.197C333.394 193.47 331.239 192.612 327.325 191.078C326.921 190.913 326.517 190.756 326.049 190.567C324.58 189.969 322.087 188.71 319.197 187.255C312.7 183.974 304.613 179.891 300.505 179.388C296.662 178.962 292.774 179.137 288.988 179.907C283.928 176.123 275.316 171.253 272.75 171.151C270.651 171.049 264.961 172.662 262.75 173.346C272.435 181.048 286.381 190.654 286.381 190.654C297.414 192.793 296.002 197.459 300.465 200.094C304.5 202.454 308.358 195.547 311.764 194.941C316.219 194.154 321.28 198.733 321.054 204.287C320.359 219.589 326.437 233.183 328.148 248.752Z" fill="#52DEE5"/>
<path opacity="0.4" d="M272.379 192.558C272.379 192.558 263.638 185.477 259.465 183.117C255.293 180.757 254.623 172.622 257.916 170.648C258.041 170.575 258.182 170.532 258.327 170.522L258.029 170.388C255.18 169.247 250.878 169.2 248.529 169.271C253.372 178.059 257.238 184.801 258.279 186.28C261.79 191.22 272.379 192.558 272.379 192.558Z" fill="#52DEE5"/>
<path opacity="0.4" d="M259.118 302.665C259.49 300.785 256.31 295.278 254.913 293.043C251.742 287.946 214.914 256.226 220.249 247.761C225.584 239.296 230.459 245.558 233.832 246.109C236.254 246.502 242.904 242.639 242.872 242.317C242.113 235.795 248.287 231.555 248.287 231.555C248.287 231.555 247.722 205.593 246.302 206.034C244.881 206.474 227.884 167.053 227.884 167.053C227.884 167.053 209.919 143.766 210.936 132.902C211.952 122.037 219.749 121.848 219.749 121.848V121.557C218.797 121.29 211.783 119.551 208.966 126.175C205.883 133.389 210.282 149.226 214.575 154.977C216.642 157.746 222.283 169.043 228.005 180.733C226.536 182.063 214.785 192.644 209.079 194.619C204.406 196.231 205.504 219.581 206.384 238.328C206.715 245.251 206.989 251.206 206.908 254.786C206.747 261.709 219.668 271.244 232.194 280.464C243.493 288.819 255.212 297.449 256.584 303.719C256.963 305.481 258.045 306.913 259.336 308.526C259.079 306.583 259.006 304.621 259.118 302.665ZM234.906 194.886C239.014 203.272 241.556 208.26 242.17 208.819C242.783 209.377 242.743 212.036 242.726 214.625C242.638 216.89 242.719 219.16 242.969 221.414C241.968 222.271 235.648 227.881 234.373 232.428L229.006 226.268L227.65 206.939C228.457 206.081 233.978 200.393 234.906 194.863V194.886Z" fill="#52DEE5"/>
<path d="M267.366 192.455C263.759 191.349 260.591 189.184 258.294 186.256C254.606 181.442 240.119 159.508 236.107 153.325C232.096 147.141 219.748 121.849 219.748 121.849C219.748 121.849 212.161 119.37 209.207 126.278C206.254 133.185 210.297 148.793 214.792 154.804C219.288 160.814 240.651 207.096 242.346 208.591C244.041 210.085 241.499 222.437 244.897 225.426" stroke="#263238" stroke-linecap="round" stroke-linejoin="round"/>
<path d="M243.266 221.5C243.266 221.5 235.437 228.148 234.517 233.002L228.706 226.339L227.334 206.813C227.334 206.813 234.348 199.968 234.735 193.879" stroke="#263238" stroke-linecap="round" stroke-linejoin="round"/>
<path d="M228.328 180.757C228.328 180.757 215.326 192.715 209.144 194.847C202.961 196.979 207.473 241.782 207.166 254.754C206.86 267.727 253.937 290.329 256.826 303.609C257.972 308.896 262.718 309.973 265.615 320.13" stroke="#263238" stroke-linecap="round" stroke-linejoin="round"/>
<path d="M246.834 169.625C246.834 169.625 253.912 169.004 257.899 170.624C261.886 172.245 278.076 185.8 281.982 188.388C285.889 190.976 291.764 191.96 292.878 194.753" stroke="#263238" stroke-linecap="round" stroke-linejoin="round"/>
<path d="M262.66 173.622C262.66 173.622 269.924 171.261 272.7 171.395C275.477 171.529 285.92 177.531 290.601 181.544C294.188 184.646 298.319 187.092 302.796 188.766" stroke="#263238" stroke-linecap="round" stroke-linejoin="round"/>
<path d="M288.898 180.183C292.689 179.387 296.588 179.204 300.44 179.64C306.348 180.427 321.182 188.923 325.911 190.843C330.641 192.762 332.901 193.116 335.386 199.315C337.872 205.515 339.01 229.084 339.511 238.399C340.011 247.714 335.031 274.391 337.089 281.896C339.147 289.401 342.86 295.191 345.112 299.204" stroke="#263238" stroke-linecap="round" stroke-linejoin="round"/>
<path d="M227.334 206.813C227.334 206.813 226.204 202.211 224.59 201.621" stroke="#263238" stroke-linecap="round" stroke-linejoin="round"/>
<path d="M228.707 226.339C229.251 229.021 229.988 231.663 230.91 234.245C232.073 237.038 230.265 241.081 230.265 241.081" stroke="#263238" stroke-linecap="round" stroke-linejoin="round"/>
<path d="M234.517 233.002C234.332 237.47 238.892 242.694 239.997 241.955" stroke="#263238" stroke-linecap="round" stroke-linejoin="round"/>
<path d="M257.738 206.813C257.738 206.813 262.637 199.087 267.334 198.71C272.032 198.332 277.455 204.83 280.353 204.217C283.25 203.603 286.898 199.449 291.773 198.71C296.648 197.97 298.932 200.236 302.798 200.425C306.664 200.614 307.059 195.579 311.676 194.918C316.292 194.257 317.866 196.491 320.965 197.073C324.064 197.656 324.839 195.272 327.349 193.927" stroke="#263238" stroke-linecap="round" stroke-linejoin="round"/>
</svg>
