<svg width="20" height="20" viewBox="0 0 20 20" fill="none" xmlns="http://www.w3.org/2000/svg">
<path d="M14.5827 5.41675H14.591M5.83268 1.66675H14.166C16.4672 1.66675 18.3327 3.53223 18.3327 5.83341V14.1667C18.3327 16.4679 16.4672 18.3334 14.166 18.3334H5.83268C3.5315 18.3334 1.66602 16.4679 1.66602 14.1667V5.83341C1.66602 3.53223 3.5315 1.66675 5.83268 1.66675ZM13.3327 9.47508C13.4355 10.1686 13.3171 10.8769 12.9941 11.4993C12.6712 12.1216 12.1603 12.6263 11.534 12.9415C10.9078 13.2567 10.1981 13.3664 9.50584 13.255C8.81362 13.1436 8.17415 12.8168 7.67838 12.321C7.18261 11.8253 6.85579 11.1858 6.74441 10.4936C6.63302 9.80138 6.74274 9.09166 7.05795 8.46539C7.37317 7.83913 7.87784 7.3282 8.50017 7.00528C9.1225 6.68237 9.83081 6.56391 10.5243 6.66675C11.2318 6.77165 11.8867 7.1013 12.3924 7.607C12.8981 8.11271 13.2278 8.76765 13.3327 9.47508Z" stroke="white" stroke-width="2" stroke-linecap="round" stroke-linejoin="round"/>
</svg>
