<svg width="40" height="28" viewBox="0 0 40 28" fill="none" xmlns="http://www.w3.org/2000/svg">
<path d="M25.6254 6.5C25.6254 6.00272 25.8229 5.52581 26.1745 5.17417C26.5262 4.82254 27.0031 4.625 27.5004 4.625H37.5004C37.9977 4.625 38.4746 4.82254 38.8262 5.17417C39.1778 5.52581 39.3754 6.00272 39.3754 6.5C39.3754 6.99728 39.1778 7.47419 38.8262 7.82583C38.4746 8.17746 37.9977 8.375 37.5004 8.375H27.5004C27.0031 8.375 26.5262 8.17746 26.1745 7.82583C25.8229 7.47419 25.6254 6.99728 25.6254 6.5ZM37.5004 19.625H27.5004C27.0031 19.625 26.5262 19.8225 26.1745 20.1742C25.8229 20.5258 25.6254 21.0027 25.6254 21.5C25.6254 21.9973 25.8229 22.4742 26.1745 22.8258C26.5262 23.1775 27.0031 23.375 27.5004 23.375H37.5004C37.9977 23.375 38.4746 23.1775 38.8262 22.8258C39.1778 22.4742 39.3754 21.9973 39.3754 21.5C39.3754 21.0027 39.1778 20.5258 38.8262 20.1742C38.4746 19.8225 37.9977 19.625 37.5004 19.625ZM37.5004 12.125H27.5004C27.0031 12.125 26.5262 12.3225 26.1745 12.6742C25.8229 13.0258 25.6254 13.5027 25.6254 14C25.6254 14.4973 25.8229 14.9742 26.1745 15.3258C26.5262 15.6775 27.0031 15.875 27.5004 15.875H37.5004C37.9977 15.875 38.4746 15.6775 38.8262 15.3258C39.1778 14.9742 39.3754 14.4973 39.3754 14C39.3754 13.5027 39.1778 13.0258 38.8262 12.6742C38.4746 12.3225 37.9977 12.125 37.5004 12.125ZM23.1254 4V24C23.1254 24.8288 22.7961 25.6237 22.2101 26.2097C21.624 26.7958 20.8292 27.125 20.0004 27.125H13.7504C12.0185 27.125 10.3037 26.7823 8.70481 26.1166C7.10596 25.4508 5.65468 24.4753 4.43462 23.246C3.21455 22.0168 2.24983 20.5583 1.59605 18.9545C0.94228 17.3507 0.61238 15.6334 0.625369 13.9016C0.678494 6.71875 6.63006 0.875 13.891 0.875H20.0004C20.8292 0.875 21.624 1.20424 22.2101 1.79029C22.7961 2.37634 23.1254 3.1712 23.1254 4ZM19.3754 4.625H13.891C8.68318 4.625 4.41443 8.79844 4.37537 13.9281C4.36588 15.1653 4.60137 16.3921 5.06826 17.5379C5.53515 18.6836 6.22421 19.7256 7.0957 20.6038C7.9672 21.4819 9.00389 22.1789 10.146 22.6546C11.2882 23.1302 12.5132 23.375 13.7504 23.375H19.3754V4.625Z" fill="black"/>
</svg>
