<svg width="20" height="19" viewBox="0 0 20 19" fill="none" xmlns="http://www.w3.org/2000/svg">
<path d="M13.3327 6.66675C14.6588 6.66675 15.9305 7.19353 16.8682 8.13121C17.8059 9.0689 18.3327 10.3407 18.3327 11.6667V17.5001H14.9993V11.6667C14.9993 11.2247 14.8238 10.8008 14.5112 10.4882C14.1986 10.1757 13.7747 10.0001 13.3327 10.0001C12.8907 10.0001 12.4667 10.1757 12.1542 10.4882C11.8416 10.8008 11.666 11.2247 11.666 11.6667V17.5001H8.33268V11.6667C8.33268 10.3407 8.85947 9.0689 9.79715 8.13121C10.7348 7.19353 12.0066 6.66675 13.3327 6.66675Z" stroke="white" stroke-width="2" stroke-linecap="round" stroke-linejoin="round"/>
<path d="M4.99935 7.50008H1.66602V17.5001H4.99935V7.50008Z" stroke="white" stroke-width="2" stroke-linecap="round" stroke-linejoin="round"/>
<path d="M3.33268 5.00008C4.25316 5.00008 4.99935 4.25389 4.99935 3.33341C4.99935 2.41294 4.25316 1.66675 3.33268 1.66675C2.41221 1.66675 1.66602 2.41294 1.66602 3.33341C1.66602 4.25389 2.41221 5.00008 3.33268 5.00008Z" stroke="white" stroke-width="2" stroke-linecap="round" stroke-linejoin="round"/>
</svg>
