<svg width="18" height="13" viewBox="0 0 18 13" fill="none" xmlns="http://www.w3.org/2000/svg">
<path fill-rule="evenodd" clip-rule="evenodd" d="M9 2.12744C7.14348 2.12744 5.36301 2.86494 4.05025 4.17769C2.7375 5.49045 2 7.27093 2 9.12744H0C0 6.74049 0.948212 4.45131 2.63604 2.76348C4.32387 1.07565 6.61305 0.127441 9 0.127441C11.3869 0.127441 13.6761 1.07565 15.364 2.76348C17.0518 4.45131 18 6.74049 18 9.12744H16C16 7.27093 15.2625 5.49045 13.9497 4.17769C12.637 2.86494 10.8565 2.12744 9 2.12744Z" fill="black"/>
<path fill-rule="evenodd" clip-rule="evenodd" d="M9 9.12744C8.73478 9.12744 8.48043 9.2328 8.29289 9.42034C8.10536 9.60787 8 9.86223 8 10.1274H6C6 9.33179 6.31607 8.56873 6.87868 8.00612C7.44129 7.44351 8.20435 7.12744 9 7.12744C9.79565 7.12744 10.5587 7.44351 11.1213 8.00612C11.6839 8.56873 12 9.33179 12 10.1274H10C10 9.86223 9.89464 9.60787 9.70711 9.42034C9.51957 9.2328 9.26522 9.12744 9 9.12744Z" fill="black"/>
<path fill-rule="evenodd" clip-rule="evenodd" d="M12.5547 4.2955C13.0142 4.60185 13.1384 5.22272 12.8321 5.68225L10.8321 8.68225C10.5257 9.14178 9.90483 9.26595 9.4453 8.9596C8.98577 8.65325 8.8616 8.03238 9.16795 7.57285L11.1679 4.57285C11.4743 4.11332 12.0952 3.98914 12.5547 4.2955ZM1 8.12755C1.55228 8.12755 2 8.57526 2 9.12755V10.1275H16V9.12755C16 8.57526 16.4477 8.12755 17 8.12755C17.5523 8.12755 18 8.57526 18 9.12755V10.1275C18 10.658 17.7893 11.1667 17.4142 11.5418C17.0391 11.9168 16.5304 12.1275 16 12.1275H2C1.46957 12.1275 0.960859 11.9168 0.585787 11.5418C0.210714 11.1667 0 10.658 0 10.1275V9.12755C0 8.57526 0.447715 8.12755 1 8.12755Z" fill="black"/>
</svg>
