<svg width="38" height="32" viewBox="0 0 38 32" fill="none" xmlns="http://www.w3.org/2000/svg">
<path d="M25.25 10.125C26.2389 10.125 27.2056 9.83176 28.0279 9.28235C28.8501 8.73294 29.491 7.95205 29.8694 7.03842C30.2478 6.12479 30.3469 5.11946 30.1539 4.14955C29.961 3.17965 29.4848 2.28873 28.7855 1.58947C28.0863 0.890206 27.1954 0.414002 26.2255 0.221076C25.2555 0.0281497 24.2502 0.127166 23.3366 0.505605C22.423 0.884043 21.6421 1.52491 21.0927 2.34715C20.5432 3.1694 20.25 4.1361 20.25 5.125C20.25 6.45109 20.7768 7.72285 21.7145 8.66054C22.6522 9.59822 23.9239 10.125 25.25 10.125ZM25.25 3.875C25.4972 3.875 25.7389 3.94831 25.9445 4.08567C26.15 4.22302 26.3102 4.41824 26.4049 4.64665C26.4995 4.87506 26.5242 5.12639 26.476 5.36887C26.4278 5.61134 26.3087 5.83407 26.1339 6.00889C25.9591 6.1837 25.7363 6.30275 25.4939 6.35098C25.2514 6.39922 25.0001 6.37446 24.7716 6.27985C24.5432 6.18524 24.348 6.02503 24.2107 5.81947C24.0733 5.6139 24 5.37223 24 5.125C24 4.79348 24.1317 4.47554 24.3661 4.24112C24.6005 4.0067 24.9185 3.875 25.25 3.875ZM30.875 18.875C29.6389 18.875 28.4305 19.2416 27.4027 19.9283C26.3749 20.6151 25.5738 21.5912 25.1008 22.7332C24.6277 23.8753 24.5039 25.1319 24.7451 26.3443C24.9863 27.5567 25.5815 28.6703 26.4556 29.5444C27.3297 30.4185 28.4433 31.0138 29.6557 31.2549C30.8681 31.4961 32.1247 31.3723 33.2668 30.8993C34.4088 30.4262 35.3849 29.6251 36.0717 28.5973C36.7584 27.5695 37.125 26.3611 37.125 25.125C37.125 23.4674 36.4665 21.8777 35.2944 20.7056C34.1223 19.5335 32.5326 18.875 30.875 18.875ZM30.875 27.625C30.3805 27.625 29.8972 27.4784 29.4861 27.2037C29.075 26.929 28.7545 26.5385 28.5653 26.0817C28.3761 25.6249 28.3266 25.1222 28.423 24.6373C28.5195 24.1523 28.7576 23.7069 29.1072 23.3572C29.4569 23.0076 29.9023 22.7695 30.3873 22.673C30.8722 22.5766 31.3749 22.6261 31.8317 22.8153C32.2885 23.0045 32.679 23.325 32.9537 23.7361C33.2284 24.1472 33.375 24.6305 33.375 25.125C33.375 25.788 33.1116 26.4239 32.6428 26.8928C32.1739 27.3616 31.538 27.625 30.875 27.625ZM7.4375 18.25C6.13956 18.25 4.87077 18.6349 3.79157 19.356C2.71238 20.0771 1.87124 21.102 1.37454 22.3011C0.877843 23.5003 0.747884 24.8198 1.0011 26.0928C1.25432 27.3658 1.87933 28.5351 2.79711 29.4529C3.7149 30.3707 4.88422 30.9957 6.15722 31.2489C7.43022 31.5021 8.74972 31.3722 9.94886 30.8755C11.148 30.3788 12.1729 29.5376 12.894 28.4584C13.6151 27.3792 14 26.1104 14 24.8125C14 23.072 13.3086 21.4028 12.0779 20.1721C10.8472 18.9414 9.17799 18.25 7.4375 18.25ZM7.4375 27.625C6.88124 27.625 6.33748 27.4601 5.87496 27.151C5.41245 26.842 5.05196 26.4027 4.83909 25.8888C4.62622 25.3749 4.57052 24.8094 4.67904 24.2638C4.78756 23.7182 5.05543 23.2171 5.44877 22.8238C5.8421 22.4304 6.34324 22.1626 6.88881 22.054C7.43438 21.9455 7.99988 22.0012 8.5138 22.2141C9.02772 22.427 9.46697 22.7874 9.77601 23.25C10.0851 23.7125 10.25 24.2562 10.25 24.8125C10.25 25.5584 9.95369 26.2738 9.42624 26.8012C8.89879 27.3287 8.18342 27.625 7.4375 27.625ZM28.375 17H22.75C22.5037 17.0002 22.2598 16.9519 22.0322 16.8578C21.8045 16.7637 21.5977 16.6256 21.4234 16.4516L17.75 12.7813L15.4063 15.125L20.3313 20.0484C20.6811 20.4011 20.8766 20.8782 20.875 21.375V28.875C20.875 29.3723 20.6775 29.8492 20.3258 30.2008C19.9742 30.5525 19.4973 30.75 19 30.75C18.5027 30.75 18.0258 30.5525 17.6742 30.2008C17.3225 29.8492 17.125 29.3723 17.125 28.875V22.1563L11.4234 16.4516C11.2486 16.2774 11.1099 16.0704 11.0153 15.8425C10.9207 15.6146 10.872 15.3702 10.872 15.1234C10.872 14.8767 10.9207 14.6323 11.0153 14.4044C11.1099 14.1765 11.2486 13.9695 11.4234 13.7953L16.4234 8.79531C16.5976 8.62051 16.8046 8.48182 17.0325 8.38719C17.2604 8.29255 17.5048 8.24384 17.7516 8.24384C17.9983 8.24384 18.2427 8.29255 18.4706 8.38719C18.6985 8.48182 18.9055 8.62051 19.0797 8.79531L23.5313 13.25H28.375C28.8723 13.25 29.3492 13.4475 29.7008 13.7992C30.0525 14.1508 30.25 14.6277 30.25 15.125C30.25 15.6223 30.0525 16.0992 29.7008 16.4508C29.3492 16.8025 28.8723 17 28.375 17Z" fill="black"/>
</svg>
