<svg width="871" height="293" viewBox="0 0 871 293" fill="none" xmlns="http://www.w3.org/2000/svg">
<g clip-path="url(#clip0_270_1519)">
<g opacity="0.3">
<path d="M669.984 31.4274H608.988V18.5122L580.156 42.528L608.988 66.5439V53.6287H669.984V31.4274Z" stroke="black" stroke-linecap="round" stroke-linejoin="round"/>
<path d="M665.238 132.403H507.371V119.488L478.539 143.503L507.371 167.519V154.604H665.238V132.403Z" stroke="black" stroke-linecap="round" stroke-linejoin="round"/>
<path d="M852.797 228.148H694.93V215.233L666.098 239.249L694.93 263.259V250.344H852.797V228.148Z" stroke="black" stroke-linecap="round" stroke-linejoin="round"/>
<path d="M849.869 115.914H770.764V109.444L756.314 121.473L770.764 133.509V127.039H849.869V115.914Z" stroke="black" stroke-linecap="round" stroke-linejoin="round"/>
<path d="M611.178 245.859H532.072V239.389L517.623 251.419L532.072 263.454V256.984H611.178V245.859Z" stroke="black" stroke-linecap="round" stroke-linejoin="round"/>
</g>
<path opacity="0.3" d="M489.123 41.0067C489.123 41.0067 494.773 24.4137 505.596 21.304C516.419 18.1944 519.242 34.2681 521.121 36.8584C523.001 39.4488 528.651 32.7102 533.358 36.3391C538.066 39.9681 539.457 45.6742 540.888 45.6742C542.318 45.6742 545.124 41.0067 547.475 43.5971C549.826 46.1874 555.005 50.855 555.005 50.855C555.005 50.855 559.712 47.7453 561.104 49.3032L565.34 53.9707H467.477C467.477 53.9707 469.362 38.4163 474.535 36.8646C479.708 35.3128 489.123 46.725 489.123 41.0067Z" stroke="black" stroke-linecap="round" stroke-linejoin="round"/>
<path opacity="0.3" d="M782.524 29.3502C782.524 29.3502 785.712 19.9845 791.822 18.225C797.932 16.4655 799.529 25.5563 800.588 27.0042C801.647 28.4521 804.841 24.6643 807.497 26.717C810.153 28.7698 810.951 31.9833 811.75 31.9833C812.548 31.9833 814.139 29.3502 815.464 30.8103C816.79 32.2704 819.717 34.9097 819.717 34.9097C819.717 34.9097 822.373 33.1563 823.149 34.0299L825.539 36.6692H770.281C770.281 36.6692 771.346 27.8839 774.268 27.0042C777.19 26.1244 782.524 32.5698 782.524 29.3502Z" stroke="black" stroke-linecap="round" stroke-linejoin="round"/>
<path opacity="0.3" d="M566.555 93.8343C566.555 93.8343 569.759 84.4687 575.858 82.7092C581.958 80.9497 583.56 90.0404 584.625 91.4944C585.689 92.9484 588.877 89.1484 591.533 91.2012C594.189 93.2539 594.988 96.4674 595.78 96.4674C596.573 96.4674 598.17 93.8343 599.501 95.2944C600.832 96.7546 603.754 99.3938 603.754 99.3938C603.754 99.3938 606.409 97.6404 607.208 98.5202L609.598 101.153H554.34C554.34 101.153 555.404 92.368 558.326 91.4944C561.248 90.6208 566.555 97.0539 566.555 93.8343Z" stroke="black" stroke-linecap="round" stroke-linejoin="round"/>
<path d="M456 274.787H871V311.26H456V274.787Z" fill="#92DCE5"/>
<path d="M863.281 274.72H460.746" stroke="#263238" stroke-linecap="round" stroke-linejoin="round"/>
<path d="M790.625 282.283H710.327" stroke="#263238" stroke-linecap="round" stroke-linejoin="round"/>
<path d="M711.847 290.335H681.041" stroke="#263238" stroke-linecap="round" stroke-linejoin="round"/>
<path d="M864.352 291.942H833.546" stroke="#263238" stroke-linecap="round" stroke-linejoin="round"/>
<path d="M644.174 286.578H658.817" stroke="#263238" stroke-linecap="round" stroke-linejoin="round"/>
<path d="M782.547 292.479H745.176" stroke="#263238" stroke-linecap="round" stroke-linejoin="round"/>
<path d="M828.5 281.214H805.773" stroke="#263238" stroke-linecap="round" stroke-linejoin="round"/>
<path d="M550.249 288.185H609.837" stroke="#263238" stroke-linecap="round" stroke-linejoin="round"/>
<path d="M563.882 282.821H546.206" stroke="#263238" stroke-linecap="round" stroke-linejoin="round"/>
<path d="M473.487 285.503H512.372" stroke="#263238" stroke-linecap="round" stroke-linejoin="round"/>
<path d="M689.119 281.214H669.929" stroke="#263238" stroke-linecap="round" stroke-linejoin="round"/>
<path d="M-47 275.067H368V311.54H-47V275.067Z" fill="#92DCE5"/>
<path d="M360.281 275H-42.2544" stroke="#263238" stroke-linecap="round" stroke-linejoin="round"/>
<path d="M287.625 282.563H207.327" stroke="#263238" stroke-linecap="round" stroke-linejoin="round"/>
<path d="M208.847 290.615H178.041" stroke="#263238" stroke-linecap="round" stroke-linejoin="round"/>
<path d="M361.352 292.222H330.546" stroke="#263238" stroke-linecap="round" stroke-linejoin="round"/>
<path d="M141.174 286.858H155.817" stroke="#263238" stroke-linecap="round" stroke-linejoin="round"/>
<path d="M279.547 292.76H242.176" stroke="#263238" stroke-linecap="round" stroke-linejoin="round"/>
<path d="M325.5 281.494H302.773" stroke="#263238" stroke-linecap="round" stroke-linejoin="round"/>
<path d="M47.2486 288.465H106.837" stroke="#263238" stroke-linecap="round" stroke-linejoin="round"/>
<path d="M60.8818 283.101H43.2055" stroke="#263238" stroke-linecap="round" stroke-linejoin="round"/>
<path d="M-29.5125 285.783H9.37207" stroke="#263238" stroke-linecap="round" stroke-linejoin="round"/>
<path d="M186.119 281.494H166.929" stroke="#263238" stroke-linecap="round" stroke-linejoin="round"/>
<path d="M52 274.067H467V310.54H52V274.067Z" fill="#92DCE5"/>
<path d="M459.281 274H56.7456" stroke="#263238" stroke-linecap="round" stroke-linejoin="round"/>
<path d="M386.625 281.563H306.327" stroke="#263238" stroke-linecap="round" stroke-linejoin="round"/>
<path d="M307.847 289.615H277.041" stroke="#263238" stroke-linecap="round" stroke-linejoin="round"/>
<path d="M460.352 291.222H429.546" stroke="#263238" stroke-linecap="round" stroke-linejoin="round"/>
<path d="M240.174 285.858H254.817" stroke="#263238" stroke-linecap="round" stroke-linejoin="round"/>
<path d="M378.547 291.76H341.176" stroke="#263238" stroke-linecap="round" stroke-linejoin="round"/>
<path d="M424.5 280.494H401.773" stroke="#263238" stroke-linecap="round" stroke-linejoin="round"/>
<path d="M406.824 292.835H384.097" stroke="#263238" stroke-linecap="round" stroke-linejoin="round"/>
<path d="M146.249 287.465H205.837" stroke="#263238" stroke-linecap="round" stroke-linejoin="round"/>
<path d="M159.882 282.101H142.206" stroke="#263238" stroke-linecap="round" stroke-linejoin="round"/>
<path d="M69.4875 284.783H108.372" stroke="#263238" stroke-linecap="round" stroke-linejoin="round"/>
<path d="M107.868 292.835H177.559" stroke="#263238" stroke-linecap="round" stroke-linejoin="round"/>
<path d="M285.119 280.494H265.929" stroke="#263238" stroke-linecap="round" stroke-linejoin="round"/>
<path d="M676.854 44.0981C676.854 44.0981 704.749 42.0148 706.407 43.0595C708.065 44.1042 710.427 50.348 711.148 50.8734C711.869 51.3988 727.46 52.7062 727.46 52.7062C727.46 52.7062 729.828 58.6994 730.537 59.738C731.247 60.7766 739.52 60.2634 742.12 57.9052C740.386 59.9277 738.485 61.7684 736.442 63.4036C732.899 66.2689 730.77 68.0956 729.828 68.902C728.885 69.7085 726.279 66.5561 724.627 66.2934C722.974 66.0306 712.334 69.4213 710.211 69.6779C708.087 69.9345 706.662 60.8255 704.3 61.3448C701.938 61.8641 676.405 63.4281 676.405 63.4281L676.854 44.0981Z" fill="#92DCE5" stroke="#263238" stroke-linecap="round" stroke-linejoin="round"/>
<path d="M676.338 70.7349V42.082" stroke="#263238" stroke-width="4" stroke-linecap="round" stroke-linejoin="round"/>
<path d="M589.321 199.41L676.45 66.7087L771.79 216.498L641.325 237.605L589.321 199.41Z" fill="white" stroke="#263238" stroke-linecap="round" stroke-linejoin="round"/>
<path d="M676.449 88.5864V217.995" stroke="#263238" stroke-linecap="round" stroke-linejoin="round"/>
<path d="M676.449 70.7349V83.8333" stroke="#263238" stroke-linecap="round" stroke-linejoin="round"/>
<path d="M564.481 62.4507C564.481 62.4507 564.348 64.8944 564.941 66.0063C565.534 67.1182 567.508 71.9568 567.508 71.9568L572.249 71.3459L572.448 67.2099C572.448 67.2099 573.962 64.6989 574.195 64.4423C574.428 64.1857 576.302 64.0819 576.302 63.5687C576.302 63.0555 575.708 63.1349 575.708 63.1349L564.481 62.4507Z" fill="white" stroke="#263238" stroke-linecap="round" stroke-linejoin="round"/>
<path d="M572.382 62.5239C572.382 62.5239 571.273 63.5381 571.273 63.9046V64.2651C571.273 64.2651 568.828 65.0532 568.65 66.2262C568.473 67.3992 568.584 68.114 568.911 68.3278" stroke="#263238" stroke-linecap="round" stroke-linejoin="round"/>
<path d="M572.776 70.0688L566.389 71.81L567.048 74.492L573.63 72.9708L572.776 70.0688Z" fill="white" stroke="#263238" stroke-linecap="round" stroke-linejoin="round"/>
<path d="M573.641 72.3843L565.929 74.9074C565.929 74.9074 572.438 103.585 573.281 104.648C574.124 105.711 586.898 105.045 586.898 105.045L586.178 84.4625L579.43 92.4046L573.641 72.3843Z" fill="#92DCE5" stroke="#263238" stroke-linecap="round" stroke-linejoin="round"/>
<path d="M560.771 56.2312L578.592 58.0762L578.498 63.2875L560.4 63.0859L560.771 56.2312Z" fill="#9E9E9E" stroke="#263238" stroke-linecap="round" stroke-linejoin="round"/>
<path d="M544.249 53.9832L544.432 64.6195H560.866V54.9057L544.249 53.9832Z" fill="#9E9E9E" stroke="#263238" stroke-linecap="round" stroke-linejoin="round"/>
<path d="M578.592 58.8889L581.192 59.0966L581.176 61.8947L578.592 61.7542V58.8889Z" fill="#9E9E9E" stroke="#263238" stroke-linecap="round" stroke-linejoin="round"/>
<path d="M573.236 55.9258L571.573 55.6326C571.379 56.5387 571.247 57.4598 571.179 58.3879C571.246 58.8278 572.1 59.1882 572.432 59.0416C572.765 58.895 573.353 57.447 573.486 56.94C573.512 56.7611 573.504 56.5781 573.461 56.4031C573.418 56.2282 573.341 56.0655 573.236 55.9258Z" fill="white" stroke="#263238" stroke-linecap="round" stroke-linejoin="round"/>
<path d="M571.589 55.6325C571.589 55.6325 569.155 54.9116 568.889 55.2721C568.622 55.6325 567.968 58.5345 568.168 58.7544C568.367 58.9743 569.277 59.5486 569.548 59.3653C569.82 59.1821 571.589 55.6325 571.589 55.6325Z" fill="white" stroke="#263238" stroke-linecap="round" stroke-linejoin="round"/>
<path d="M568.889 55.2781C568.889 55.2781 566.671 54.6977 566.455 54.9177C566.238 55.1376 565.861 58.0334 566.455 58.2534C566.861 58.3838 567.286 58.4314 567.708 58.3939L568.889 55.2781Z" fill="white" stroke="#263238" stroke-linecap="round" stroke-linejoin="round"/>
<path d="M566.433 54.9115C566.433 54.9115 564.658 54.8382 564.392 55.0521C564.126 55.2659 564.525 57.4958 564.658 57.8074C564.791 58.119 565.446 57.954 565.579 57.5202C565.712 57.0865 566.433 54.9115 566.433 54.9115Z" fill="white" stroke="#263238" stroke-linecap="round" stroke-linejoin="round"/>
<path d="M585.101 52.3886C585.101 52.3886 581.625 56.2191 581.403 57.8198C581.181 59.4204 581.403 61.1555 581.176 61.9008C580.948 62.6462 578.265 65.1082 578.148 65.8475C578.032 66.5867 580.283 67.8269 580.283 67.8269C580.283 67.8269 581.065 72.5189 580.954 73.0137C580.843 73.5086 579.29 75.8546 579.845 77.2108C580.399 78.5671 583.316 78.8176 584.774 78.4327L586.232 77.944L587.02 80.3877L599.334 73.6063L598.78 71.2603C598.78 71.2603 603.155 65.9513 603.376 60.0191C603.598 54.087 598.78 50.2442 595.98 48.7841C593.18 47.3239 586.898 48.4114 585.445 48.9062C583.992 49.4011 584.336 47.4217 583.649 48.6558C582.961 49.8899 582.861 51.521 585.101 52.3886Z" fill="white" stroke="#263238" stroke-linecap="round" stroke-linejoin="round"/>
<path d="M589.587 75.3597C590.928 73.7529 592.608 70.1728 592.497 67.7047C592.386 66.0165 592.423 64.3204 592.608 62.64C592.725 62.2674 594.854 59.5487 596.085 61.4182C597.316 63.2876 596.983 66.7272 595.863 67.7169L594.754 68.7005C594.754 68.7005 596.418 71.914 598.791 71.297C598.791 71.297 603.165 65.9879 603.387 60.0558C603.609 54.1236 598.791 50.2808 595.991 48.8207C593.191 47.3605 586.908 48.448 585.456 48.9429C584.003 49.4377 584.347 47.4583 583.659 48.6924C582.972 49.9265 582.878 51.5332 585.118 52.4008C585.118 52.4008 592.403 52.7734 591.616 53.5127C590.829 54.2519 586.687 56.9705 587.025 58.3268C587.363 59.6831 589.825 61.4182 590.047 61.7847C590.269 62.1513 589.714 66.3545 589.714 66.3545L586.908 69.6902C586.908 69.6902 581.081 67.2465 580.299 67.8574C580.299 67.8574 581.081 72.5494 580.97 73.0442C580.859 73.5391 579.307 75.8851 579.861 77.2414C580.416 78.5976 583.332 78.8481 584.79 78.4632L586.249 77.9745C587.491 77.3245 588.621 76.4395 589.587 75.3597Z" fill="#263238" stroke="#263238" stroke-linecap="round" stroke-linejoin="round"/>
<path d="M582.746 62.1452C582.987 61.9082 583.288 61.7578 583.609 61.7141C583.93 61.6705 584.255 61.7356 584.542 61.9008" stroke="#263238" stroke-linecap="round" stroke-linejoin="round"/>
<path d="M582.074 60.5384C582.074 60.5384 583.421 58.8095 584.763 60.0436" stroke="#263238" stroke-linecap="round" stroke-linejoin="round"/>
<path d="M583.377 71.071C583.599 71.743 583.472 72.4089 583.095 72.5617C582.717 72.7144 582.23 72.2929 581.986 71.6208C581.742 70.9488 581.886 70.2829 582.263 70.1302C582.64 69.9774 583.15 70.399 583.377 71.071Z" fill="white"/>
<path d="M599.673 72.7693C599.673 72.7693 588.029 80.1799 587.009 80.4243C585.989 80.6687 584.314 83.2651 584.314 83.2651L601.464 75.8545L599.673 72.7693Z" fill="white" stroke="#263238" stroke-linecap="round" stroke-linejoin="round"/>
<path d="M581.193 124.045L581.01 126.293L579.241 134.785C579.241 134.785 559.38 142.862 554.844 146.136C550.309 149.411 550.763 150.022 551.135 150.743C551.506 151.464 568.49 187.973 568.49 187.973L567.287 189.097L570.253 195.818C569.292 196.942 568.27 198.001 567.192 198.988C565.781 199.943 564.297 200.761 562.757 201.432C562.014 201.64 562.296 202.654 562.945 203.069C563.594 203.485 569.349 204.096 570.464 204.096C571.578 204.096 577.982 199.489 578.631 199.08C579.28 198.671 581.958 197.754 582.069 196.832C582.179 195.909 581.603 193.777 580.766 193.05C579.928 192.323 578.354 187.319 577.888 186.91C577.422 186.501 576.868 186.605 576.779 185.988C576.69 185.371 569.632 163.181 569.632 163.181L567.542 157.304L586.199 151.885C586.199 151.885 593.252 185.945 595.11 189.317C596.967 192.69 605.046 210.181 605.046 210.181C605.046 210.181 604.02 212.435 604.208 212.844C604.397 213.254 606.249 216.015 606.249 216.015C606.249 216.015 604.391 220.004 604.114 220.414C603.837 220.823 601.148 223.584 599.845 224.299C598.542 225.014 599.662 225.625 600.865 226.034C602.068 226.444 607.64 226.346 608.2 226.034C608.76 225.723 616.462 217.958 616.739 217.445C616.911 217.038 616.985 216.589 616.953 216.141C616.921 215.694 616.784 215.263 616.556 214.891C615.902 213.71 615.313 212.485 614.793 211.225C614.801 210.613 614.77 210 614.699 209.392C614.605 209.081 613.035 206.014 613.035 206.014L604.962 184.124L606.171 150.578L607.74 139.587L605.423 125.371L581.193 124.045Z" fill="#263238" stroke="#263238" stroke-linecap="round" stroke-linejoin="round"/>
<path d="M584.536 85.4829C584.536 85.4829 578.781 98.5752 578.781 102.461C578.781 106.346 581.47 121.797 581.47 122.206C581.47 122.616 580.638 123.226 581.193 124.039C581.755 124.744 582.5 125.243 583.327 125.469L592.98 125.267L584.536 85.4829Z" fill="white" stroke="#263238" stroke-linecap="round" stroke-linejoin="round"/>
<path d="M601.463 75.8545C601.463 75.8545 604.041 81.0413 604.269 82.1532C604.496 83.2651 606.548 93.8282 606.886 99.8703C607.224 105.912 607.745 107.098 607.745 107.098L620.359 135.696C620.359 135.696 613.007 146.026 603.581 148.598C598.868 149.888 594.837 146.375 594.837 146.375C594.837 146.375 583.077 111.27 582.85 110.525C582.623 109.78 581.292 96.2108 581.403 93.1562C581.514 90.1015 584.763 82.4098 584.763 82.4098L601.463 75.8545Z" fill="#92DCE5" stroke="#263238" stroke-linecap="round" stroke-linejoin="round"/>
<path d="M595.531 126.171L605.805 120.978L606.448 123.104L602.378 124.992" stroke="#263238" stroke-linecap="round" stroke-linejoin="round"/>
<path d="M582.867 110.525C582.867 110.525 599.562 137.608 601.464 140.076C603.365 142.544 604.607 144.524 604.607 144.524C602.573 144.4 600.533 144.606 598.553 145.135L595.747 146.002L594.854 146.369L582.867 110.525Z" fill="#92DCE5" stroke="#263238" stroke-linecap="round" stroke-linejoin="round"/>
<path d="M589.36 97.9641C589.36 97.9641 595.864 101.917 598.231 102.9" stroke="#263238" stroke-linecap="round" stroke-linejoin="round"/>
<path d="M594.4 105.247C595.037 105.765 595.714 106.221 596.424 106.609" stroke="#263238" stroke-linecap="round" stroke-linejoin="round"/>
<path d="M588.351 98.7034C589.509 100.276 590.763 101.76 592.104 103.145" stroke="#263238" stroke-linecap="round" stroke-linejoin="round"/>
<path d="M539.574 87.0468L532.266 85.3484C532.266 85.3484 524.143 85.9593 523.494 86.1548C522.846 86.3503 522.197 87.1384 522.685 87.3767C523.173 87.615 527.315 87.1079 527.315 87.1079L528.939 87.1995C528.939 87.1995 528.451 90.8651 528.856 91.4028C529.261 91.9404 532.671 93.0156 532.998 93.0156C533.325 93.0156 534.944 92.6552 535.027 92.1175C535.11 91.5799 534.379 91.1339 534.379 91.1339C535.351 91.225 536.328 91.225 537.301 91.1339C537.949 90.9568 540.223 89.9732 540.223 89.9732L539.574 87.0468Z" fill="white" stroke="#263238" stroke-linecap="round" stroke-linejoin="round"/>
<path d="M533.974 89.344L533.32 90.8652L534.379 91.134" stroke="#263238" stroke-linecap="round" stroke-linejoin="round"/>
<path d="M543.639 85.6233L539.042 85.8677L540.162 91.7998L544.759 92.1664L543.639 85.6233Z" fill="white" stroke="#263238" stroke-linecap="round" stroke-linejoin="round"/>
<path d="M587.009 80.4244C587.009 80.4244 600.777 71.9324 602.684 71.9324C604.591 71.9324 614.444 76.8198 614.444 76.8198C614.444 76.8198 619.462 74.1745 621.153 74.4433C623.77 74.8526 630.341 78.9215 630.341 78.9215L622.9 82.807C622.9 82.807 615.082 85.2507 612.537 84.1755C609.992 83.1003 603.194 74.6449 602.241 75.0115C601.287 75.378 585.934 81.7318 585.934 81.7318" fill="#263238"/>
<path d="M587.009 80.4244C587.009 80.4244 600.777 71.9324 602.684 71.9324C604.591 71.9324 614.444 76.8198 614.444 76.8198C614.444 76.8198 619.462 74.1745 621.153 74.4433C623.77 74.8526 630.341 78.9215 630.341 78.9215L622.9 82.807C622.9 82.807 615.082 85.2507 612.537 84.1755C609.992 83.1003 603.194 74.6449 602.241 75.0115C601.287 75.378 585.934 81.7318 585.934 81.7318" stroke="#263238" stroke-linecap="round" stroke-linejoin="round"/>
<path d="M599.224 84.2548C599.224 84.2548 593.396 80.7969 592.165 80.7969C590.934 80.7969 560.006 84.1265 560.006 84.1265L542.419 84.8779L543.411 93.1561L575.908 96.3574L598.087 99.076" fill="#92DCE5"/>
<path d="M599.224 84.2548C599.224 84.2548 593.396 80.7969 592.165 80.7969C590.934 80.7969 560.006 84.1265 560.006 84.1265L542.419 84.8779L543.411 93.1561L575.908 96.3574L598.087 99.076" stroke="#263238" stroke-linecap="round" stroke-linejoin="round"/>
<path d="M577.771 90.5413C579.079 91.0667 580.288 91.5188 581.264 91.8181" stroke="#263238" stroke-linecap="round" stroke-linejoin="round"/>
<path d="M565.435 84.9268C565.435 84.9268 570.686 87.5232 575.554 89.6126" stroke="#263238" stroke-linecap="round" stroke-linejoin="round"/>
<path d="M563.727 85.2874C565.578 86.5088 567.505 87.5847 569.493 88.507" stroke="#263238" stroke-linecap="round" stroke-linejoin="round"/>
<path d="M773.453 274.604L805.579 199.263L704.173 208.012C704.173 208.012 638.979 210.04 634.804 209.643C624.962 208.702 510.682 168.613 510.682 168.613L563.106 274.604H773.453Z" fill="white" stroke="#263238" stroke-linecap="round" stroke-linejoin="round"/>
<path d="M611.461 245.224L595.365 266.045" stroke="#263238" stroke-linecap="round" stroke-linejoin="round"/>
<path d="M635.092 214.665L615.198 240.398" stroke="#263238" stroke-linecap="round" stroke-linejoin="round"/>
<path d="M739.176 263.039L743.035 268.898" stroke="#263238" stroke-linecap="round" stroke-linejoin="round"/>
<path d="M705.471 211.812L736.493 258.958" stroke="#263238" stroke-linecap="round" stroke-linejoin="round"/>
<path d="M741.643 183.385L733.448 205.458C744.537 204.719 755.233 203.442 764.925 202.782L774.439 179.567L772.155 165.295L763.167 164.208L754.179 163.481C754.179 163.481 747.526 163.756 747.254 163.756C746.982 163.756 741.643 169.755 741.643 169.755L726.362 180.257C726.362 180.257 726.101 188.468 726.678 189.195C727.255 189.922 741.643 183.385 741.643 183.385Z" fill="#92DCE5" stroke="#263238" stroke-linecap="round" stroke-linejoin="round"/>
<path d="M746.251 201.475C742.708 197.577 742.564 187.814 742.564 187.814" stroke="#263238" stroke-linecap="round" stroke-linejoin="round"/>
<path d="M740.789 195.946C740.789 195.946 742.414 200.015 744.038 201.316" stroke="#263238" stroke-linecap="round" stroke-linejoin="round"/>
<path d="M730.842 175.021L732.821 177.923C732.821 177.923 732.405 183.471 732.405 184.375C732.405 185.279 729.273 188.92 728.447 189.104C727.242 189.304 726.015 189.273 724.82 189.012C724.161 188.737 723.418 184.65 723.251 183.831C723.085 183.013 730.842 175.021 730.842 175.021Z" fill="white" stroke="#263238" stroke-linecap="round" stroke-linejoin="round"/>
<path d="M737.385 146.497L739.114 147.041C739.345 147.937 739.53 148.846 739.669 149.765C739.666 149.876 739.641 149.984 739.597 150.082C739.552 150.181 739.488 150.268 739.41 150.337C739.333 150.406 739.242 150.456 739.145 150.482C739.048 150.509 738.947 150.513 738.848 150.492C738.455 150.401 737.385 146.497 737.385 146.497Z" stroke="#263238" stroke-linecap="round" stroke-linejoin="round"/>
<path d="M741.671 183.385L746.29 169.303" stroke="#263238" stroke-linecap="round" stroke-linejoin="round"/>
<path d="M741.671 183.385L743.733 170.666" stroke="#263238" stroke-linecap="round" stroke-linejoin="round"/>
<path d="M764.266 164.666C764.266 164.666 778.793 165.509 779.453 166.236C780.112 166.963 783.14 193.954 782.563 195.133C781.986 196.312 777.839 196.923 777.839 196.923L773.464 189.116L772.527 173.842" fill="#92DCE5"/>
<path d="M764.266 164.666C764.266 164.666 778.793 165.509 779.453 166.236C780.112 166.963 783.14 193.954 782.563 195.133C781.986 196.312 777.839 196.923 777.839 196.923L773.464 189.116L772.527 173.842" stroke="#263238" stroke-linecap="round" stroke-linejoin="round"/>
<path d="M762.192 171.093L757.995 175.865C757.995 175.865 761.044 178.247 762.192 178.663C763.34 179.078 769.444 171.234 770.841 170.672C772.239 170.11 782.552 174.178 784.587 175.022C786.238 175.589 787.949 175.918 789.677 175.999L792.1 180.63L785.607 184.552C785.607 184.552 772.25 175.303 771.23 175.162C770.209 175.022 762.963 181.748 762.325 181.467C761.687 181.186 756.614 176.421 756.614 176.421L755.067 168.301L759.647 166.059L762.192 171.093Z" fill="#263238" stroke="#263238" stroke-linecap="round" stroke-linejoin="round"/>
<path d="M766.145 160.787L768.518 161.795L768.79 164.409L762.769 175.571L759.575 168.936L757.745 168.533L751.175 173.256L754.823 163.401L756.47 161.892L766.145 160.787Z" fill="white" stroke="#263238" stroke-linecap="round" stroke-linejoin="round"/>
<path d="M767.237 157.469L765.413 163.304L757.839 171.747L756.009 163.2L756.653 160.286L767.237 157.469Z" fill="white" stroke="#263238" stroke-linecap="round" stroke-linejoin="round"/>
<path d="M760.141 137.577C760.141 137.577 757.369 142.624 756.942 144.383C756.515 146.143 756.481 148.049 756.254 148.544C756.027 149.038 754.879 150.816 754.879 152.82C754.879 154.824 754.768 159.876 754.996 160.762C755.223 161.648 756.942 161.899 758.322 162.027C759.703 162.155 763.24 161.269 765.53 159.882C767.744 158.636 769.544 156.652 770.676 154.213C772.051 151.439 771.818 147.78 771.591 147.151C771.363 146.521 771.591 140.094 767.587 138.457C765.213 137.475 762.651 137.173 760.141 137.577Z" fill="white" stroke="#263238" stroke-linecap="round" stroke-linejoin="round"/>
<path d="M770.664 151.446L768.147 151.189C768.147 151.189 769.289 150.059 768.834 149.173C768.38 148.287 765.862 147.914 766.661 146.906C767.459 145.898 769.405 144.383 768.718 142.746C768.03 141.109 762.885 139.972 762.43 139.972C761.976 139.972 761.97 141.359 761.97 141.359C761.026 140.742 760.33 139.753 760.024 138.591C759.469 136.569 758.654 134.81 760.14 134.181C761.626 133.551 770.437 136.319 771.352 137.455C772.266 138.591 775.466 141.237 775.127 143.375C774.789 145.513 772.494 150.816 772.039 151.446C771.584 152.075 770.664 151.446 770.664 151.446Z" fill="#263238" stroke="#263238" stroke-linecap="round" stroke-linejoin="round"/>
<path d="M769.179 152.832C769.179 152.832 772.151 149.167 773.409 150.816C774.668 152.466 772.611 155.704 771.579 156.235C770.548 156.767 769.179 155.978 769.179 155.978" fill="white"/>
<path d="M769.179 152.832C769.179 152.832 772.151 149.167 773.409 150.816C774.668 152.466 772.611 155.704 771.579 156.235C770.548 156.767 769.179 155.978 769.179 155.978" stroke="#263238" stroke-linecap="round" stroke-linejoin="round"/>
<path d="M761.305 147.609C761.305 147.609 763.589 147.206 764.504 148.715Z" fill="white"/>
<path d="M761.305 147.609C761.305 147.609 763.589 147.206 764.504 148.715" stroke="#263238" stroke-linecap="round" stroke-linejoin="round"/>
<path d="M758.932 146.405C758.726 146.041 758.421 145.758 758.061 145.596C757.7 145.433 757.303 145.4 756.924 145.501" stroke="#263238" stroke-linecap="round" stroke-linejoin="round"/>
<path d="M756.835 151.329C756.783 151.741 756.867 152.16 757.07 152.511C757.273 152.861 757.583 153.12 757.944 153.242" stroke="#263238" stroke-linecap="round" stroke-linejoin="round"/>
<path d="M761.671 155.154C761.011 155.527 760.286 155.738 759.545 155.773C758.804 155.808 758.065 155.665 757.379 155.355" stroke="#263238" stroke-linecap="round" stroke-linejoin="round"/>
<path d="M761.156 149.472C760.973 150.083 761.083 150.663 761.394 150.773C761.704 150.883 762.104 150.48 762.281 149.875C762.459 149.27 762.353 148.653 762.043 148.574C761.732 148.495 761.333 148.861 761.156 149.472Z" fill="#263238"/>
<path d="M757.002 148.214C756.819 148.824 756.93 149.405 757.241 149.515C757.551 149.625 757.95 149.222 758.128 148.617C758.305 148.012 758.2 147.425 757.889 147.315C757.579 147.205 757.169 147.609 757.002 148.214Z" fill="#263238"/>
<path d="M770.841 252.415C770.841 252.415 777.522 256.801 778.659 258.842C779.796 260.882 787.054 282.974 787.619 285.949C788.185 288.924 785.085 292.058 780.223 284.538C776.669 279.039 769.843 260.406 768.989 257.43C768.135 254.455 770.553 251.003 770.841 252.415Z" fill="#9E9E9E" stroke="#263238" stroke-linecap="round" stroke-linejoin="round"/>
<path d="M733.237 139.398L771.124 253.826" stroke="#263238" stroke-width="3" stroke-linecap="round" stroke-linejoin="round"/>
<path d="M735.544 159.217C735.544 159.217 731.142 181.711 730.975 182.89C730.809 184.069 728.669 187.436 727.432 188.163C727.221 188.279 726.995 188.357 726.762 188.395C726.279 188.472 725.787 188.435 725.319 188.288C724.85 188.14 724.415 187.885 724.043 187.538C723.67 187.192 723.369 186.762 723.158 186.278C722.947 185.794 722.831 185.266 722.819 184.729C722.736 182.45 722.703 179.695 722.98 178.883C723.474 177.429 732.822 156.84 732.822 156.84C732.822 156.84 732.822 147.676 733.232 147.395C733.642 147.114 736.864 145.849 737.357 146.485C737.686 147.058 737.877 147.714 737.912 148.391L739.575 154.024C739.447 154.67 739.224 155.289 738.915 155.856C738.797 156.011 738.642 156.127 738.468 156.19C738.294 156.254 738.107 156.263 737.928 156.217L737.102 156.125C737.102 156.125 736.808 158.764 735.544 159.217Z" fill="white" stroke="#263238" stroke-linecap="round" stroke-linejoin="round"/>
<path d="M772.965 189.928L754.451 191.566C754.451 191.566 746.134 194.559 745.879 194.742C745.624 194.926 745.63 195.921 745.879 196.38C746.155 196.784 746.525 197.099 746.949 197.29C747.879 198.244 748.708 199.309 749.422 200.467C749.672 201.011 749.755 200.919 750.825 200.65C751.895 200.381 756.68 195.017 756.68 195.017L777.988 198.549L772.965 189.928Z" fill="white" stroke="#263238" stroke-linecap="round" stroke-linejoin="round"/>
<path d="M771.645 189.476C771.645 189.476 773.708 187.643 774.284 187.747C774.861 187.851 784.121 195.182 784.038 195.793C783.954 196.404 777.683 199.361 777.683 199.361L771.645 189.476Z" fill="white" stroke="#263238" stroke-linecap="round" stroke-linejoin="round"/>
<path d="M779.164 186.843L774.285 187.747" stroke="#263238" stroke-linecap="round" stroke-linejoin="round"/>
<path d="M773.852 186.678L777.396 184.888" stroke="#263238" stroke-linecap="round" stroke-linejoin="round"/>
<path d="M656.333 179.976C656.333 179.976 647.384 187.594 646.558 188.645C645.732 189.696 645.005 192.06 645.72 193.637C646.436 195.213 648.227 196.398 649.657 196.264C651.088 196.129 662.061 187.992 662.061 187.992L656.333 179.976Z" fill="white" stroke="#263238" stroke-linecap="round" stroke-linejoin="round"/>
<path d="M661.917 197.992L658.934 209.276C666.076 208.898 674.57 209.197 683.558 208.665L684.589 196.991L686.408 188.596L687.694 186.825L689.247 188.535L698.673 180.52C698.673 180.52 696.527 175.266 696.405 174.869C695.51 172.895 694.203 171.185 692.59 169.877C690.112 167.794 686.591 168.411 686.491 168.429L684.312 168.613L670.878 170.036C670.878 170.036 665.294 171.111 664.673 171.258C663.396 171.874 662.161 172.589 660.975 173.396C659.783 174.319 654.537 180.233 654.537 180.233L660.387 188.865L661.917 197.992Z" fill="#92DCE5" stroke="#263238" stroke-linecap="round" stroke-linejoin="round"/>
<path d="M670.261 138.671C670.261 138.671 667.295 138.671 667.112 140.553C666.929 142.434 668.914 144.12 668.914 144.12L671.975 141.347L670.261 138.671Z" fill="#263238" stroke="#263238" stroke-linecap="round" stroke-linejoin="round"/>
<path d="M670.888 140.4C670.888 140.4 668.299 143.674 667.783 145.238C667.267 146.802 666.491 148.513 665.848 148.941C665.205 149.368 662.488 150.223 662.87 151.384C663.253 152.545 663.78 153.95 663.78 153.95C663.78 153.95 663.647 160.64 664.035 161.355C664.423 162.07 669.579 162.638 669.579 162.638L670.877 170.042L669.324 170.323L666.48 176.732L678.889 177.3L684.312 168.619H680.181L679.793 162.21C679.793 162.21 683.153 156.797 683.28 154.378C683.408 151.959 670.888 140.4 670.888 140.4Z" fill="white" stroke="#263238" stroke-linecap="round" stroke-linejoin="round"/>
<path d="M671.78 137.046C673.061 137.046 684.583 139.868 686.291 142.544C686.734 143.241 687.089 144.774 687.4 146.68L687.522 146.802C687.522 146.802 689.185 153.852 690.294 156.088C690.837 157.207 691.441 158.288 692.102 159.326L689.767 161.233L688.658 158.911L688.969 161.886C688.969 161.886 685.054 164.208 683.552 164.703C682.595 164.986 681.62 165.19 680.635 165.314C680.425 165.359 680.212 165.386 679.998 165.393C678.29 165.393 675.301 163.829 675.301 163.829L676.299 158.654C676.726 158.813 679.427 158.043 680.142 157.561C680.857 157.078 681.417 154.579 680.425 153.015C679.432 151.451 676.87 153.956 676.87 153.956C676.87 153.956 674.874 151.916 675.163 151.445C675.416 151.049 675.54 150.57 675.514 150.086C675.488 149.602 675.313 149.142 675.019 148.782C674.165 147.841 670.893 144.554 670.328 141.573C669.762 138.591 670.483 137.046 671.78 137.046Z" fill="#263238" stroke="#263238" stroke-linecap="round" stroke-linejoin="round"/>
<path d="M667.794 149.582C667.495 150.242 667.45 150.889 667.694 151.024C667.938 151.158 668.382 150.731 668.681 150.071C668.981 149.411 669.025 148.763 668.781 148.629C668.537 148.495 668.093 148.922 667.794 149.582Z" fill="#263238"/>
<path d="M670.445 147.792C670.347 147.371 670.104 147.009 669.768 146.781C669.432 146.553 669.029 146.477 668.643 146.57" stroke="#263238" stroke-linecap="round" stroke-linejoin="round"/>
<path d="M667.384 155.227C666.986 155.478 666.536 155.611 666.078 155.611C665.62 155.611 665.17 155.478 664.772 155.227" stroke="#263238" stroke-linecap="round" stroke-linejoin="round"/>
<path d="M682.925 252.415C682.925 252.415 689.612 256.801 690.749 258.842C691.885 260.882 699.138 282.974 699.709 285.949C700.28 288.924 697.175 292.058 692.312 284.538C688.758 279.039 681.927 260.406 681.079 257.43C680.231 254.455 682.642 251.003 682.925 252.415Z" fill="#9E9E9E" stroke="#263238" stroke-linecap="round" stroke-linejoin="round"/>
<path d="M645.327 139.398L683.208 253.826" stroke="#263238" stroke-width="3" stroke-linecap="round" stroke-linejoin="round"/>
<path d="M662.538 202.752C662.538 202.752 664.384 199.184 665.465 198.671C666.547 198.158 673.267 200.339 673.267 200.339L693.538 196.135L689.524 188.266L697.209 181.742C699.787 188.328 703.308 202.239 702.687 202.813C701.761 203.662 673.483 204.798 673.483 204.798C673.483 204.798 667.473 207.517 666.829 207.517C666.305 207.558 665.787 207.671 665.288 207.853C664.534 208.11 665.233 208.635 665.199 208.953C665.199 208.91 664.235 208.751 664.207 208.702C663.464 207.169 662.538 202.752 662.538 202.752Z" fill="white" stroke="#263238" stroke-linecap="round" stroke-linejoin="round"/>
<path d="M653.8 156.865L655.53 157.408C655.76 158.304 655.945 159.214 656.084 160.133C656.081 160.244 656.056 160.353 656.011 160.452C655.966 160.551 655.902 160.638 655.824 160.707C655.745 160.777 655.654 160.826 655.556 160.852C655.458 160.879 655.357 160.881 655.258 160.86C654.87 160.768 653.8 156.865 653.8 156.865Z" stroke="#263238" stroke-linecap="round" stroke-linejoin="round"/>
<path d="M651.981 169.584C651.981 169.584 652.314 190.026 652.147 191.211C651.981 192.397 649.841 195.751 648.604 196.478C648.391 196.594 648.163 196.672 647.928 196.71C647.446 196.787 646.954 196.75 646.485 196.603C646.017 196.455 645.582 196.199 645.209 195.853C644.837 195.507 644.535 195.077 644.324 194.593C644.113 194.109 643.998 193.581 643.986 193.044C643.903 190.765 643.875 188.01 644.146 187.197C644.646 185.743 649.264 167.208 649.264 167.208C649.264 167.208 649.264 158.044 649.675 157.757C650.085 157.469 653.301 156.217 653.8 156.852C654.129 157.425 654.32 158.081 654.354 158.758L656.018 164.391C655.889 165.038 655.666 165.657 655.358 166.224C655.24 166.379 655.085 166.494 654.911 166.558C654.736 166.622 654.549 166.631 654.371 166.585L653.545 166.493C653.545 166.493 653.218 169.132 651.981 169.584Z" fill="white" stroke="#263238" stroke-linecap="round" stroke-linejoin="round"/>
<g opacity="0.5">
<path opacity="0.3" d="M84.6466 33.1002C84.6466 33.1002 90.2966 16.5072 101.12 13.3976C111.943 10.2879 114.765 26.3616 116.645 28.9519C118.524 31.5423 124.174 24.8037 128.882 28.4327C133.589 32.0616 134.981 37.7677 136.411 37.7677C137.842 37.7677 140.647 33.1002 142.998 35.6906C145.349 38.2809 150.528 42.9485 150.528 42.9485C150.528 42.9485 155.235 39.8388 156.627 41.3967L160.863 46.0642H63.0003C63.0003 46.0642 64.8855 30.5098 70.0586 28.9581C75.2318 27.4063 84.6466 38.8185 84.6466 33.1002Z" stroke="black" stroke-linecap="round" stroke-linejoin="round"/>
<path opacity="0.3" d="M379.047 41.3502C379.047 41.3502 382.235 31.9845 388.346 30.225C394.456 28.4655 396.053 37.5563 397.112 39.0042C398.171 40.4521 401.364 36.6643 404.02 38.717C406.676 40.7698 407.475 43.9833 408.273 43.9833C409.071 43.9833 410.663 41.3502 411.988 42.8103C413.313 44.2704 416.241 46.9097 416.241 46.9097C416.241 46.9097 418.897 45.1563 419.673 46.0299L422.062 48.6692H366.805C366.805 48.6692 367.869 39.8839 370.791 39.0042C373.713 38.1244 379.047 44.5698 379.047 41.3502Z" stroke="black" stroke-linecap="round" stroke-linejoin="round"/>
</g>
</g>
<rect x="1.5" y="1.5" width="868" height="290" stroke="#52DEE5" stroke-width="3"/>
<defs>
<clipPath id="clip0_270_1519">
<rect width="871" height="293" fill="white"/>
</clipPath>
</defs>
</svg>
