<svg width="44" height="41" viewBox="0 0 44 41" fill="none" xmlns="http://www.w3.org/2000/svg">
<path d="M12.5 12H14.0625V15.1094H29.6875V12H31.25V15.1094H42.5625C43.2188 15.1094 43.7656 15.6406 43.7656 16.3125V20.1719C43.75 20.8438 43.2188 21.375 42.5625 21.375H42.1875V40.125H1.5625V21.375H1.20312C0.884036 21.375 0.578017 21.2482 0.352387 21.0226C0.126757 20.797 0 20.491 0 20.1719V16.3125C0 15.6563 0.53125 15.1094 1.20312 15.1094H12.5V12ZM37.5156 37.7031V28.375C37.5156 28.1719 37.435 27.9772 37.2914 27.8336C37.1478 27.69 36.9531 27.6094 36.75 27.6094H24.2031C24.0001 27.6094 23.8053 27.69 23.6617 27.8336C23.5182 27.9772 23.4375 28.1719 23.4375 28.375V37.7031C23.4375 38.125 23.7812 38.5625 24.2031 38.5625H36.75C37.1562 38.5625 37.5 38.125 37.5156 37.7031ZM17.1875 26.9219C17.1875 26.4531 16.7969 26.0625 16.3281 26.0625H13.375C12.9063 26.0625 12.5156 26.4531 12.5156 26.9219V37.7031C12.5156 38.1719 12.9063 38.5625 13.375 38.5625H16.3281C16.7969 38.5625 17.1875 38.1719 17.1875 37.7031V26.9219ZM10.9375 26.9219C10.9375 26.4531 10.5469 26.0625 10.0781 26.0625H7.125C6.65625 26.0625 6.26563 26.4531 6.26563 26.9219V37.7031C6.26563 38.1719 6.65625 38.5625 7.125 38.5625H10.0781C10.5469 38.5625 10.9375 38.1719 10.9375 37.7031V26.9219ZM42.2031 16.6719H1.5625V19.8125H42.2031V16.6719Z" fill="#00AFB8"/>
<rect x="2" width="40" height="12" rx="2" fill="#00AFB8"/>
<path d="M8.50568 9V3.18182H12.4261V4.19602H9.7358V5.58239H12.2244V6.59659H9.7358V7.9858H12.4375V9H8.50568ZM14.4553 3.18182L15.8615 7.60227H15.9155L17.3246 3.18182H18.6882L16.6825 9H15.0973L13.0888 3.18182H14.4553ZM19.2997 9.07386C19.1122 9.07386 18.9512 9.00758 18.8168 8.875C18.6842 8.74053 18.6179 8.57955 18.6179 8.39205C18.6179 8.20644 18.6842 8.04735 18.8168 7.91477C18.9512 7.7822 19.1122 7.71591 19.2997 7.71591C19.4815 7.71591 19.6406 7.7822 19.777 7.91477C19.9134 8.04735 19.9815 8.20644 19.9815 8.39205C19.9815 8.51705 19.9493 8.63163 19.8849 8.7358C19.8224 8.83807 19.7401 8.92045 19.6378 8.98295C19.5355 9.04356 19.4228 9.07386 19.2997 9.07386ZM24.8558 5.0625C24.8161 4.92424 24.7602 4.80208 24.6882 4.69602C24.6162 4.58807 24.5282 4.49716 24.424 4.4233C24.3217 4.34754 24.2043 4.28977 24.0717 4.25C23.9411 4.21023 23.7962 4.19034 23.6371 4.19034C23.3397 4.19034 23.0784 4.2642 22.853 4.41193C22.6295 4.55966 22.4553 4.77462 22.3303 5.05682C22.2053 5.33712 22.1428 5.67992 22.1428 6.08523C22.1428 6.49053 22.2043 6.83523 22.3274 7.11932C22.4505 7.40341 22.6248 7.62027 22.8501 7.76989C23.0755 7.91761 23.3416 7.99148 23.6484 7.99148C23.9268 7.99148 24.1645 7.94223 24.3615 7.84375C24.5604 7.74337 24.7119 7.60227 24.8161 7.42045C24.9221 7.23864 24.9751 7.02367 24.9751 6.77557L25.2251 6.8125H23.7251V5.88636H26.1598V6.61932C26.1598 7.13068 26.0518 7.57008 25.8359 7.9375C25.62 8.30303 25.3227 8.58523 24.9439 8.78409C24.5651 8.98106 24.1314 9.07955 23.6428 9.07955C23.0973 9.07955 22.6181 8.95928 22.2053 8.71875C21.7924 8.47633 21.4704 8.13258 21.2393 7.6875C21.0102 7.24053 20.8956 6.71023 20.8956 6.09659C20.8956 5.625 20.9638 5.20455 21.1001 4.83523C21.2384 4.46402 21.4316 4.14962 21.6797 3.89205C21.9278 3.63447 22.2166 3.43845 22.5462 3.30398C22.8757 3.16951 23.2327 3.10227 23.6172 3.10227C23.9467 3.10227 24.2536 3.15057 24.5376 3.24716C24.8217 3.34186 25.0736 3.47633 25.2933 3.65057C25.5149 3.82481 25.6958 4.0322 25.8359 4.27273C25.9761 4.51136 26.0661 4.77462 26.1058 5.0625H24.8558ZM32.4304 6.09091C32.4304 6.72538 32.3101 7.26515 32.0696 7.71023C31.831 8.1553 31.5052 8.49527 31.0923 8.73011C30.6813 8.96307 30.2192 9.07955 29.706 9.07955C29.1889 9.07955 28.7249 8.96212 28.3139 8.72727C27.9029 8.49242 27.5781 8.15246 27.3395 7.70739C27.1009 7.26231 26.9815 6.72348 26.9815 6.09091C26.9815 5.45644 27.1009 4.91667 27.3395 4.47159C27.5781 4.02652 27.9029 3.6875 28.3139 3.45455C28.7249 3.2197 29.1889 3.10227 29.706 3.10227C30.2192 3.10227 30.6813 3.2197 31.0923 3.45455C31.5052 3.6875 31.831 4.02652 32.0696 4.47159C32.3101 4.91667 32.4304 5.45644 32.4304 6.09091ZM31.1832 6.09091C31.1832 5.67992 31.1217 5.33333 30.9986 5.05114C30.8774 4.76894 30.706 4.55492 30.4844 4.40909C30.2628 4.26326 30.0033 4.19034 29.706 4.19034C29.4086 4.19034 29.1491 4.26326 28.9276 4.40909C28.706 4.55492 28.5336 4.76894 28.4105 5.05114C28.2893 5.33333 28.2287 5.67992 28.2287 6.09091C28.2287 6.50189 28.2893 6.84848 28.4105 7.13068C28.5336 7.41288 28.706 7.62689 28.9276 7.77273C29.1491 7.91856 29.4086 7.99148 29.706 7.99148C30.0033 7.99148 30.2628 7.91856 30.4844 7.77273C30.706 7.62689 30.8774 7.41288 30.9986 7.13068C31.1217 6.84848 31.1832 6.50189 31.1832 6.09091ZM34.7649 3.18182L34.6541 7.25568H33.6143L33.5007 3.18182H34.7649ZM34.1342 9.07386C33.9467 9.07386 33.7857 9.00758 33.6513 8.875C33.5168 8.74053 33.4505 8.57955 33.4524 8.39205C33.4505 8.20644 33.5168 8.04735 33.6513 7.91477C33.7857 7.7822 33.9467 7.71591 34.1342 7.71591C34.3142 7.71591 34.4723 7.7822 34.6087 7.91477C34.745 8.04735 34.8142 8.20644 34.8161 8.39205C34.8142 8.51705 34.781 8.63163 34.7166 8.7358C34.6541 8.83807 34.5717 8.92045 34.4695 8.98295C34.3672 9.04356 34.2554 9.07386 34.1342 9.07386Z" fill="black" fill-opacity="0.51"/>
</svg>
