<svg width="20" height="17" viewBox="0 0 20 17" fill="none" xmlns="http://www.w3.org/2000/svg">
<path d="M18.3802 4.69756L17.1502 6.54756C17.7433 7.73064 18.0337 9.04239 17.9954 10.3653C17.957 11.6882 17.591 12.9809 16.9302 14.1276H3.07017C2.21134 12.6377 1.85547 10.9107 2.05531 9.20263C2.25516 7.49458 3.00008 5.89639 4.17965 4.64499C5.35922 3.39359 6.91064 2.5556 8.60391 2.25526C10.2972 1.95491 12.0422 2.2082 13.5802 2.97756L15.4302 1.74756C13.5467 0.539779 11.3125 -0.00143251 9.08506 0.210499C6.85763 0.42243 4.76562 1.37526 3.14367 2.91657C1.52171 4.45789 0.463534 6.49863 0.13839 8.71238C-0.186755 10.9261 0.239923 13.185 1.35017 15.1276C1.52468 15.4298 1.77526 15.6812 2.077 15.8566C2.37875 16.032 2.72115 16.1255 3.07017 16.1276H16.9202C17.2726 16.129 17.6191 16.0372 17.9247 15.8616C18.2302 15.686 18.484 15.4328 18.6602 15.1276C19.5815 13.5315 20.0439 11.7118 19.9963 9.86952C19.9486 8.0272 19.3928 6.23388 18.3902 4.68756L18.3802 4.69756Z" fill="black"/>
<path d="M8.59048 11.5374C8.77623 11.7233 8.9968 11.8708 9.2396 11.9715C9.4824 12.0721 9.74265 12.1239 10.0055 12.1239C10.2683 12.1239 10.5286 12.0721 10.7714 11.9715C11.0142 11.8708 11.2347 11.7233 11.4205 11.5374L17.0805 3.04736L8.59048 8.70736C8.40453 8.89311 8.25701 9.11369 8.15636 9.35648C8.05571 9.59928 8.00391 9.85953 8.00391 10.1224C8.00391 10.3852 8.05571 10.6454 8.15636 10.8882C8.25701 11.131 8.40453 11.3516 8.59048 11.5374Z" fill="black"/>
</svg>
