<svg width="36" height="32" viewBox="0 0 36 32" fill="none" xmlns="http://www.w3.org/2000/svg">
<path d="M25.2326 1.52086C24.8405 1.12822 24.3428 0.857755 23.8001 0.742257C23.2573 0.62676 22.6927 0.671189 22.1746 0.87016L22.1675 0.873716L16.2175 3.16126L16.2081 3.16481C15.6049 3.39996 15.0563 3.75614 14.5961 4.21139L1.43978 17.3677C1.17142 17.6336 0.95847 17.9501 0.813248 18.2988C0.668026 18.6475 0.59342 19.0216 0.593751 19.3994C0.594082 19.7772 0.669342 20.1511 0.815174 20.4996C0.961007 20.8481 1.17451 21.1642 1.44334 21.4296L10.9218 30.9081C11.1877 31.1764 11.5042 31.3894 11.8529 31.5346C12.2017 31.6798 12.5757 31.7544 12.9535 31.7541C13.3313 31.7538 13.7052 31.6785 14.0537 31.5327C14.4022 31.3868 14.7183 31.1733 14.9837 30.9045L28.1365 17.7517C28.5987 17.2895 28.9507 16.7443 29.1866 16.1303L29.8468 14.4153C30.0127 14.4058 30.1779 14.3892 30.3422 14.3655C30.3896 14.3591 30.437 14.3497 30.4845 14.337C31.3683 14.1875 32.209 13.8475 32.9482 13.3405C33.6874 12.8335 34.3074 12.1717 34.7653 11.4011C35.2231 10.6304 35.5077 9.76939 35.5993 8.87771C35.691 7.98604 35.5875 7.0851 35.2961 6.23743C35.0046 5.38976 34.5322 4.61567 33.9116 3.96889C33.291 3.32212 32.537 2.81815 31.7021 2.49197C30.8672 2.16579 29.9713 2.02521 29.0766 2.08C28.1819 2.13479 27.3098 2.38362 26.521 2.80924L25.2326 1.52086ZM28.3237 4.61201C29.2652 4.31308 30.2861 4.39204 31.1704 4.8322C32.0548 5.27237 32.7332 6.03921 33.0624 6.97059C33.3915 7.90196 33.3455 8.92483 32.9341 9.82289C32.5227 10.721 31.7781 11.4238 30.8578 11.7828L31.4741 10.1803C31.6735 9.66147 31.7186 9.09599 31.6037 8.55212C31.4889 8.00825 31.2191 7.50923 30.827 7.11527L28.3237 4.61201ZM28.1377 11.8243C27.2212 11.4883 26.4683 10.8138 26.0338 9.93973C26.2959 9.43423 26.3901 8.85836 26.3027 8.2957C26.2153 7.73304 25.9509 7.21286 25.5479 6.81066C25.2994 6.5612 25.0042 6.36325 24.679 6.22819C24.3539 6.09313 24.0053 6.0236 23.6532 6.0236C23.3012 6.0236 22.9526 6.09313 22.6274 6.22819C22.3023 6.36325 22.007 6.5612 21.7586 6.81066C21.3561 7.21124 21.0916 7.72955 21.0034 8.2905C20.9152 8.85145 21.0079 9.42592 21.268 9.93069C21.5281 10.4355 21.9422 10.8443 22.4502 11.098C22.9582 11.3518 23.5338 11.4372 24.0936 11.3419C24.8382 12.6309 26.0242 13.6068 27.4324 14.0893L26.9749 15.2793C26.8619 15.5783 26.6866 15.8498 26.4605 16.0758L13.3042 29.2321L13.2971 29.2392C13.251 29.2853 13.1962 29.3217 13.136 29.3463C13.0757 29.3709 13.0111 29.3833 12.9459 29.3826C12.8808 29.382 12.8165 29.3683 12.7567 29.3425C12.6969 29.3166 12.6429 29.2791 12.5978 29.2321L3.11573 19.7501L3.10862 19.743C3.06257 19.6969 3.02616 19.6421 3.00154 19.5819C2.97692 19.5216 2.96458 19.457 2.96524 19.3918C2.9659 19.3267 2.97956 19.2624 3.0054 19.2026C3.03124 19.1428 3.06875 19.0888 3.11573 19.0437L16.2721 5.88734C16.489 5.67044 16.7616 5.49621 17.0733 5.37176L23.0114 3.08896L23.0138 3.08777C23.1052 3.0517 23.205 3.0428 23.3013 3.06215C23.3976 3.08149 23.4863 3.12826 23.5566 3.19682L29.151 8.79122C29.2191 8.86089 29.2657 8.9486 29.2855 9.04397C29.3052 9.13933 29.2972 9.23836 29.2625 9.32932L28.2834 11.8741L28.1377 11.8243ZM23.3516 7.2409C23.1893 8.22874 23.2678 9.24115 23.5803 10.1922C23.2917 10.1789 23.0133 10.0819 22.7789 9.913C22.5444 9.74413 22.3642 9.51071 22.2602 9.24119C22.1561 8.97167 22.1328 8.6777 22.1929 8.39513C22.2531 8.11256 22.3942 7.85359 22.599 7.64982C22.8045 7.44295 23.0662 7.3008 23.3516 7.2409Z" fill="black"/>
</svg>
