<svg width="34" height="34" viewBox="0 0 34 34" fill="none" xmlns="http://www.w3.org/2000/svg">
<path d="M29.7663 13.0667L29.1663 11.5L32.2663 10.3334C30.733 6.80004 27.9997 3.96671 24.5663 2.23337L23.233 5.20004L21.6997 4.50004L23.033 1.50004C21.1663 0.766707 19.133 0.333374 16.9997 0.333374C15.233 0.333374 13.533 0.700041 11.933 1.16671L13.0663 4.23337L11.4997 4.83337L10.333 1.73337C6.79967 3.26671 3.96634 6.00004 2.23301 9.43337L5.19967 10.7667L4.49967 12.3L1.49967 10.9667C0.766341 12.8334 0.333008 14.8667 0.333008 17C0.333008 18.7667 0.699674 20.4667 1.16634 22.0667L4.23301 20.9334L4.83301 22.5L1.73301 23.6667C3.26634 27.2 5.99967 30.0334 9.43301 31.7667L10.7663 28.8L12.2997 29.5L10.9663 32.5C12.833 33.2334 14.8663 33.6667 16.9997 33.6667C18.7663 33.6667 20.4663 33.3 22.0663 32.8334L20.933 29.7667L22.4997 29.1667L23.6663 32.2667C27.1997 30.7334 30.033 28 31.7663 24.5667L28.7997 23.2334L29.4997 21.7L32.4997 23.0334C33.233 21.1667 33.6663 19.1334 33.6663 17C33.6663 15.2334 33.2997 13.5334 32.833 11.9334L29.7663 13.0667ZM20.833 26.2334C15.733 28.3334 9.86634 25.9334 7.76634 20.8334C5.66634 15.7334 8.06634 9.86671 13.1663 7.76671C18.2663 5.66671 24.133 8.06671 26.233 13.1667C26.7392 14.3789 27.0011 15.6791 27.0035 16.9928C27.0059 18.3064 26.7489 19.6077 26.2472 20.8217C25.7455 22.0358 25.0089 23.1388 24.0798 24.0675C23.1507 24.9962 22.0473 25.7322 20.833 26.2334Z" fill="black"/>
</svg>
