<svg width="18" height="18" viewBox="0 0 18 18" fill="none" xmlns="http://www.w3.org/2000/svg">
<path d="M9.00033 17.3334C7.86144 17.3334 6.78505 17.1147 5.77116 16.6772C4.75727 16.2397 3.87185 15.6424 3.11491 14.8855C2.35796 14.1286 1.76074 13.2431 1.32324 12.2292C0.885742 11.2154 0.666992 10.139 0.666992 9.00008C0.666992 7.8473 0.885742 6.76744 1.32324 5.7605C1.76074 4.75355 2.35796 3.87161 3.11491 3.11466C3.87185 2.35772 4.75727 1.7605 5.77116 1.323C6.78505 0.885498 7.86144 0.666748 9.00033 0.666748C10.1531 0.666748 11.233 0.885498 12.2399 1.323C13.2469 1.7605 14.1288 2.35772 14.8857 3.11466C15.6427 3.87161 16.2399 4.75355 16.6774 5.7605C17.1149 6.76744 17.3337 7.8473 17.3337 9.00008C17.3337 10.139 17.1149 11.2154 16.6774 12.2292C16.2399 13.2431 15.6427 14.1286 14.8857 14.8855C14.1288 15.6424 13.2469 16.2397 12.2399 16.6772C11.233 17.1147 10.1531 17.3334 9.00033 17.3334ZM9.00033 15.6251C9.36144 15.1251 9.67394 14.6042 9.93783 14.0626C10.2017 13.5209 10.417 12.9445 10.5837 12.3334H7.41699C7.58366 12.9445 7.79894 13.5209 8.06283 14.0626C8.32671 14.6042 8.63921 15.1251 9.00033 15.6251ZM6.83366 15.2917C6.58366 14.8334 6.36491 14.3577 6.17741 13.8647C5.98991 13.3716 5.83366 12.8612 5.70866 12.3334H3.25033C3.6531 13.0279 4.15658 13.632 4.76074 14.1459C5.36491 14.6598 6.05588 15.0417 6.83366 15.2917ZM11.167 15.2917C11.9448 15.0417 12.6357 14.6598 13.2399 14.1459C13.8441 13.632 14.3475 13.0279 14.7503 12.3334H12.292C12.167 12.8612 12.0107 13.3716 11.8232 13.8647C11.6357 14.3577 11.417 14.8334 11.167 15.2917ZM2.54199 10.6667H5.37533C5.33366 10.389 5.30241 10.1147 5.28158 9.84383C5.26074 9.573 5.25033 9.29175 5.25033 9.00008C5.25033 8.70842 5.26074 8.42717 5.28158 8.15633C5.30241 7.8855 5.33366 7.61119 5.37533 7.33342H2.54199C2.47255 7.61119 2.42046 7.8855 2.38574 8.15633C2.35102 8.42717 2.33366 8.70842 2.33366 9.00008C2.33366 9.29175 2.35102 9.573 2.38574 9.84383C2.42046 10.1147 2.47255 10.389 2.54199 10.6667ZM7.04199 10.6667H10.9587C11.0003 10.389 11.0316 10.1147 11.0524 9.84383C11.0732 9.573 11.0837 9.29175 11.0837 9.00008C11.0837 8.70842 11.0732 8.42717 11.0524 8.15633C11.0316 7.8855 11.0003 7.61119 10.9587 7.33342H7.04199C7.00033 7.61119 6.96908 7.8855 6.94824 8.15633C6.92741 8.42717 6.91699 8.70842 6.91699 9.00008C6.91699 9.29175 6.92741 9.573 6.94824 9.84383C6.96908 10.1147 7.00033 10.389 7.04199 10.6667ZM12.6253 10.6667H15.4587C15.5281 10.389 15.5802 10.1147 15.6149 9.84383C15.6496 9.573 15.667 9.29175 15.667 9.00008C15.667 8.70842 15.6496 8.42717 15.6149 8.15633C15.5802 7.8855 15.5281 7.61119 15.4587 7.33342H12.6253C12.667 7.61119 12.6982 7.8855 12.7191 8.15633C12.7399 8.42717 12.7503 8.70842 12.7503 9.00008C12.7503 9.29175 12.7399 9.573 12.7191 9.84383C12.6982 10.1147 12.667 10.389 12.6253 10.6667ZM12.292 5.66675H14.7503C14.3475 4.9723 13.8441 4.36814 13.2399 3.85425C12.6357 3.34036 11.9448 2.95841 11.167 2.70841C11.417 3.16675 11.6357 3.64244 11.8232 4.1355C12.0107 4.62855 12.167 5.13897 12.292 5.66675ZM7.41699 5.66675H10.5837C10.417 5.05564 10.2017 4.47925 9.93783 3.93758C9.67394 3.39591 9.36144 2.87508 9.00033 2.37508C8.63921 2.87508 8.32671 3.39591 8.06283 3.93758C7.79894 4.47925 7.58366 5.05564 7.41699 5.66675ZM3.25033 5.66675H5.70866C5.83366 5.13897 5.98991 4.62855 6.17741 4.1355C6.36491 3.64244 6.58366 3.16675 6.83366 2.70841C6.05588 2.95841 5.36491 3.34036 4.76074 3.85425C4.15658 4.36814 3.6531 4.9723 3.25033 5.66675Z" fill="#1D1B20"/>
</svg>
