<svg width="20" height="16" viewBox="0 0 20 16" fill="none" xmlns="http://www.w3.org/2000/svg">
<path d="M18.7835 3.34992C18.6845 2.95443 18.4829 2.59206 18.199 2.29942C17.9152 2.00679 17.5591 1.79424 17.1668 1.68325C15.7335 1.33325 10.0002 1.33325 10.0002 1.33325C10.0002 1.33325 4.26682 1.33325 2.83348 1.71659C2.44119 1.82757 2.08513 2.04012 1.80127 2.33276C1.51741 2.6254 1.31581 2.98776 1.21682 3.38325C0.954496 4.83788 0.826181 6.31351 0.833484 7.79159C0.824134 9.28079 0.952457 10.7677 1.21682 12.2333C1.32595 12.6165 1.53207 12.965 1.81527 13.2453C2.09847 13.5256 2.44917 13.7281 2.83348 13.8333C4.26682 14.2166 10.0002 14.2166 10.0002 14.2166C10.0002 14.2166 15.7335 14.2166 17.1668 13.8333C17.5591 13.7223 17.9152 13.5097 18.199 13.2171C18.4829 12.9244 18.6845 12.5621 18.7835 12.1666C19.0438 10.7229 19.1721 9.25853 19.1668 7.79159C19.1762 6.30238 19.0478 4.8155 18.7835 3.34992Z" stroke="white" stroke-width="2" stroke-linecap="round" stroke-linejoin="round"/>
<path d="M8.12515 10.5166L12.9168 7.79159L8.12515 5.06658V10.5166Z" stroke="white" stroke-width="2" stroke-linecap="round" stroke-linejoin="round"/>
</svg>
